<ttFont>
    <TTGlyph name="A" xMin="-15" yMin="0" xMax="1896" yMax="1417">
      <contour>
        <pt x="-15" y="79" on="1"/>
        <pt x="66" y="79" on="0"/>
        <pt x="153" y="101" on="0"/>
        <pt x="165" y="130" on="1"/>
        <pt x="680" y="1417" on="1"/>
        <pt x="1119" y="1417" on="1"/>
        <pt x="1722" y="79" on="1"/>
        <pt x="1896" y="79" on="1"/>
        <pt x="1896" y="0" on="1"/>
        <pt x="762" y="0" on="1"/>
        <pt x="762" y="79" on="1"/>
        <pt x="955" y="79" on="1"/>
        <pt x="817" y="424" on="1"/>
        <pt x="377" y="424" on="1"/>
        <pt x="260" y="133" on="1"/>
        <pt x="259" y="130" on="0"/>
        <pt x="259" y="125" on="1"/>
        <pt x="259" y="111" on="0"/>
        <pt x="286" y="94" on="0"/>
        <pt x="335" y="83" on="0"/>
        <pt x="402" y="79" on="0"/>
        <pt x="442" y="79" on="1"/>
        <pt x="442" y="0" on="1"/>
        <pt x="-15" y="0" on="1"/>
      </contour>
      <contour>
        <pt x="786" y="503" on="1"/>
        <pt x="593" y="975" on="1"/>
        <pt x="408" y="503" on="1"/>
      </contour>
    </TTGlyph>
    <TTGlyph name="AE" xMin="-15" yMin="0" xMax="2277" yMax="1417">
      <contour>
        <pt x="-15" y="79" on="1"/>
        <pt x="66" y="79" on="0"/>
        <pt x="150" y="102" on="0"/>
        <pt x="165" y="130" on="1"/>
        <pt x="855" y="1417" on="1"/>
        <pt x="2229" y="1417" on="1"/>
        <pt x="2229" y="930" on="1"/>
        <pt x="2161" y="930" on="1"/>
        <pt x="1883" y="1339" on="1"/>
        <pt x="1545" y="1339" on="1"/>
        <pt x="1545" y="744" on="1"/>
        <pt x="1696" y="744" on="1"/>
        <pt x="1828" y="1074" on="1"/>
        <pt x="1893" y="1074" on="1"/>
        <pt x="1893" y="334" on="1"/>
        <pt x="1828" y="334" on="1"/>
        <pt x="1696" y="666" on="1"/>
        <pt x="1545" y="666" on="1"/>
        <pt x="1545" y="79" on="1"/>
        <pt x="1918" y="79" on="1"/>
        <pt x="2208" y="534" on="1"/>
        <pt x="2277" y="534" on="1"/>
        <pt x="2277" y="0" on="1"/>
        <pt x="662" y="0" on="1"/>
        <pt x="662" y="79" on="1"/>
        <pt x="855" y="79" on="1"/>
        <pt x="855" y="424" on="1"/>
        <pt x="420" y="424" on="1"/>
        <pt x="271" y="134" on="1"/>
        <pt x="269" y="128" on="0"/>
        <pt x="269" y="125" on="1"/>
        <pt x="269" y="111" on="0"/>
        <pt x="296" y="94" on="0"/>
        <pt x="345" y="83" on="0"/>
        <pt x="412" y="79" on="0"/>
        <pt x="452" y="79" on="1"/>
        <pt x="452" y="0" on="1"/>
        <pt x="-15" y="0" on="1"/>
      </contour>
      <contour>
        <pt x="855" y="503" on="1"/>
        <pt x="855" y="1255" on="1"/>
        <pt x="464" y="503" on="1"/>
      </contour>
    </TTGlyph>
    <TTGlyph name="Aacute" xMin="-15" yMin="0" xMax="1896" yMax="1937">
      <contour>
        <pt x="598" y="1617" on="1"/>
        <pt x="604" y="1620" on="0"/>
        <pt x="650" y="1647" on="0"/>
        <pt x="684" y="1667" on="1"/>
        <pt x="718" y="1687" on="0"/>
        <pt x="805" y="1738" on="0"/>
        <pt x="897" y="1792" on="0"/>
        <pt x="989" y="1844" on="0"/>
        <pt x="1068" y="1888" on="0"/>
        <pt x="1129" y="1920" on="0"/>
        <pt x="1144" y="1927" on="1"/>
        <pt x="1157" y="1932" on="0"/>
        <pt x="1184" y="1937" on="0"/>
        <pt x="1198" y="1937" on="1"/>
        <pt x="1226" y="1937" on="0"/>
        <pt x="1275" y="1912" on="0"/>
        <pt x="1311" y="1870" on="0"/>
        <pt x="1332" y="1816" on="0"/>
        <pt x="1332" y="1788" on="1"/>
        <pt x="1332" y="1750" on="0"/>
        <pt x="1291" y="1683" on="0"/>
        <pt x="1247" y="1666" on="1"/>
        <pt x="1232" y="1660" on="0"/>
        <pt x="1169" y="1645" on="0"/>
        <pt x="1083" y="1628" on="0"/>
        <pt x="982" y="1609" on="0"/>
        <pt x="879" y="1591" on="0"/>
        <pt x="779" y="1575" on="0"/>
        <pt x="738" y="1568" on="1"/>
        <pt x="692" y="1560" on="0"/>
        <pt x="630" y="1550" on="0"/>
        <pt x="622" y="1548" on="1"/>
      </contour>
      <contour>
        <pt x="-15" y="79" on="1"/>
        <pt x="66" y="79" on="0"/>
        <pt x="153" y="101" on="0"/>
        <pt x="165" y="130" on="1"/>
        <pt x="680" y="1417" on="1"/>
        <pt x="1119" y="1417" on="1"/>
        <pt x="1722" y="79" on="1"/>
        <pt x="1896" y="79" on="1"/>
        <pt x="1896" y="0" on="1"/>
        <pt x="762" y="0" on="1"/>
        <pt x="762" y="79" on="1"/>
        <pt x="955" y="79" on="1"/>
        <pt x="817" y="424" on="1"/>
        <pt x="377" y="424" on="1"/>
        <pt x="260" y="133" on="1"/>
        <pt x="259" y="130" on="0"/>
        <pt x="259" y="125" on="1"/>
        <pt x="259" y="111" on="0"/>
        <pt x="286" y="94" on="0"/>
        <pt x="335" y="83" on="0"/>
        <pt x="402" y="79" on="0"/>
        <pt x="442" y="79" on="1"/>
        <pt x="442" y="0" on="1"/>
        <pt x="-15" y="0" on="1"/>
      </contour>
      <contour>
        <pt x="786" y="503" on="1"/>
        <pt x="593" y="975" on="1"/>
        <pt x="408" y="503" on="1"/>
      </contour>
    </TTGlyph>
    <TTGlyph name="Acircumflex" xMin="-15" yMin="0" xMax="1896" yMax="1937">
      <contour>
        <pt x="401" y="1580" on="1"/>
        <pt x="898" y="1937" on="1"/>
        <pt x="1395" y="1580" on="1"/>
        <pt x="1337" y="1504" on="1"/>
        <pt x="898" y="1652" on="1"/>
        <pt x="458" y="1504" on="1"/>
      </contour>
      <contour>
        <pt x="-15" y="79" on="1"/>
        <pt x="66" y="79" on="0"/>
        <pt x="153" y="101" on="0"/>
        <pt x="165" y="130" on="1"/>
        <pt x="680" y="1417" on="1"/>
        <pt x="1119" y="1417" on="1"/>
        <pt x="1722" y="79" on="1"/>
        <pt x="1896" y="79" on="1"/>
        <pt x="1896" y="0" on="1"/>
        <pt x="762" y="0" on="1"/>
        <pt x="762" y="79" on="1"/>
        <pt x="955" y="79" on="1"/>
        <pt x="817" y="424" on="1"/>
        <pt x="377" y="424" on="1"/>
        <pt x="260" y="133" on="1"/>
        <pt x="259" y="130" on="0"/>
        <pt x="259" y="125" on="1"/>
        <pt x="259" y="111" on="0"/>
        <pt x="286" y="94" on="0"/>
        <pt x="335" y="83" on="0"/>
        <pt x="402" y="79" on="0"/>
        <pt x="442" y="79" on="1"/>
        <pt x="442" y="0" on="1"/>
        <pt x="-15" y="0" on="1"/>
      </contour>
      <contour>
        <pt x="786" y="503" on="1"/>
        <pt x="593" y="975" on="1"/>
        <pt x="408" y="503" on="1"/>
      </contour>
    </TTGlyph>
    <TTGlyph name="Adieresis" xMin="-15" yMin="0" xMax="1896" yMax="1872">
      <contour>
        <pt x="1185" y="1523" on="1"/>
        <pt x="1148" y="1523" on="0"/>
        <pt x="1084" y="1550" on="0"/>
        <pt x="1037" y="1598" on="0"/>
        <pt x="1010" y="1661" on="0"/>
        <pt x="1010" y="1697" on="1"/>
        <pt x="1010" y="1733" on="0"/>
        <pt x="1037" y="1797" on="0"/>
        <pt x="1084" y="1845" on="0"/>
        <pt x="1148" y="1872" on="0"/>
        <pt x="1185" y="1872" on="1"/>
        <pt x="1221" y="1872" on="0"/>
        <pt x="1284" y="1845" on="0"/>
        <pt x="1332" y="1797" on="0"/>
        <pt x="1359" y="1733" on="0"/>
        <pt x="1359" y="1697" on="1"/>
        <pt x="1359" y="1661" on="0"/>
        <pt x="1332" y="1598" on="0"/>
        <pt x="1284" y="1550" on="0"/>
        <pt x="1221" y="1523" on="0"/>
      </contour>
      <contour>
        <pt x="613" y="1523" on="1"/>
        <pt x="577" y="1523" on="0"/>
        <pt x="513" y="1550" on="0"/>
        <pt x="465" y="1598" on="0"/>
        <pt x="438" y="1661" on="0"/>
        <pt x="438" y="1697" on="1"/>
        <pt x="438" y="1733" on="0"/>
        <pt x="465" y="1797" on="0"/>
        <pt x="513" y="1845" on="0"/>
        <pt x="577" y="1872" on="0"/>
        <pt x="613" y="1872" on="1"/>
        <pt x="649" y="1872" on="0"/>
        <pt x="713" y="1845" on="0"/>
        <pt x="760" y="1797" on="0"/>
        <pt x="787" y="1733" on="0"/>
        <pt x="787" y="1697" on="1"/>
        <pt x="787" y="1661" on="0"/>
        <pt x="760" y="1598" on="0"/>
        <pt x="713" y="1550" on="0"/>
        <pt x="649" y="1523" on="0"/>
      </contour>
      <contour>
        <pt x="-15" y="79" on="1"/>
        <pt x="66" y="79" on="0"/>
        <pt x="153" y="101" on="0"/>
        <pt x="165" y="130" on="1"/>
        <pt x="680" y="1417" on="1"/>
        <pt x="1119" y="1417" on="1"/>
        <pt x="1722" y="79" on="1"/>
        <pt x="1896" y="79" on="1"/>
        <pt x="1896" y="0" on="1"/>
        <pt x="762" y="0" on="1"/>
        <pt x="762" y="79" on="1"/>
        <pt x="955" y="79" on="1"/>
        <pt x="817" y="424" on="1"/>
        <pt x="377" y="424" on="1"/>
        <pt x="260" y="133" on="1"/>
        <pt x="259" y="130" on="0"/>
        <pt x="259" y="125" on="1"/>
        <pt x="259" y="111" on="0"/>
        <pt x="286" y="94" on="0"/>
        <pt x="335" y="83" on="0"/>
        <pt x="402" y="79" on="0"/>
        <pt x="442" y="79" on="1"/>
        <pt x="442" y="0" on="1"/>
        <pt x="-15" y="0" on="1"/>
      </contour>
      <contour>
        <pt x="786" y="503" on="1"/>
        <pt x="593" y="975" on="1"/>
        <pt x="408" y="503" on="1"/>
      </contour>
    </TTGlyph>
    <TTGlyph name="Agrave" xMin="-15" yMin="0" xMax="1896" yMax="1937">
      <contour>
        <pt x="549" y="1666" on="1"/>
        <pt x="505" y="1683" on="0"/>
        <pt x="464" y="1750" on="0"/>
        <pt x="464" y="1788" on="1"/>
        <pt x="464" y="1816" on="0"/>
        <pt x="484" y="1870" on="0"/>
        <pt x="520" y="1912" on="0"/>
        <pt x="569" y="1937" on="0"/>
        <pt x="598" y="1937" on="1"/>
        <pt x="612" y="1937" on="0"/>
        <pt x="639" y="1932" on="0"/>
        <pt x="652" y="1927" on="1"/>
        <pt x="667" y="1920" on="0"/>
        <pt x="728" y="1888" on="0"/>
        <pt x="807" y="1844" on="0"/>
        <pt x="899" y="1792" on="0"/>
        <pt x="991" y="1738" on="0"/>
        <pt x="1077" y="1687" on="0"/>
        <pt x="1112" y="1667" on="1"/>
        <pt x="1146" y="1647" on="0"/>
        <pt x="1192" y="1620" on="0"/>
        <pt x="1198" y="1617" on="1"/>
        <pt x="1174" y="1548" on="1"/>
        <pt x="1166" y="1550" on="0"/>
        <pt x="1104" y="1560" on="0"/>
        <pt x="1058" y="1568" on="1"/>
        <pt x="1017" y="1575" on="0"/>
        <pt x="917" y="1591" on="0"/>
        <pt x="814" y="1609" on="0"/>
        <pt x="713" y="1628" on="0"/>
        <pt x="627" y="1645" on="0"/>
        <pt x="563" y="1660" on="0"/>
      </contour>
      <contour>
        <pt x="-15" y="79" on="1"/>
        <pt x="66" y="79" on="0"/>
        <pt x="153" y="101" on="0"/>
        <pt x="165" y="130" on="1"/>
        <pt x="680" y="1417" on="1"/>
        <pt x="1119" y="1417" on="1"/>
        <pt x="1722" y="79" on="1"/>
        <pt x="1896" y="79" on="1"/>
        <pt x="1896" y="0" on="1"/>
        <pt x="762" y="0" on="1"/>
        <pt x="762" y="79" on="1"/>
        <pt x="955" y="79" on="1"/>
        <pt x="817" y="424" on="1"/>
        <pt x="377" y="424" on="1"/>
        <pt x="260" y="133" on="1"/>
        <pt x="259" y="130" on="0"/>
        <pt x="259" y="125" on="1"/>
        <pt x="259" y="111" on="0"/>
        <pt x="286" y="94" on="0"/>
        <pt x="335" y="83" on="0"/>
        <pt x="402" y="79" on="0"/>
        <pt x="442" y="79" on="1"/>
        <pt x="442" y="0" on="1"/>
        <pt x="-15" y="0" on="1"/>
      </contour>
      <contour>
        <pt x="786" y="503" on="1"/>
        <pt x="593" y="975" on="1"/>
        <pt x="408" y="503" on="1"/>
      </contour>
    </TTGlyph>
    <TTGlyph name="Aring" xMin="-15" yMin="0" xMax="1896" yMax="1894">
      <contour>
        <pt x="-15" y="79" on="1"/>
        <pt x="66" y="79" on="0"/>
        <pt x="153" y="101" on="0"/>
        <pt x="165" y="130" on="1"/>
        <pt x="680" y="1417" on="1"/>
        <pt x="816" y="1417" on="1"/>
        <pt x="800" y="1421" on="0"/>
        <pt x="785" y="1428" on="1"/>
        <pt x="741" y="1447" on="0"/>
        <pt x="675" y="1513" on="0"/>
        <pt x="637" y="1602" on="0"/>
        <pt x="637" y="1652" on="1"/>
        <pt x="637" y="1702" on="0"/>
        <pt x="675" y="1790" on="0"/>
        <pt x="741" y="1856" on="0"/>
        <pt x="830" y="1894" on="0"/>
        <pt x="880" y="1894" on="1"/>
        <pt x="930" y="1894" on="0"/>
        <pt x="1018" y="1856" on="0"/>
        <pt x="1084" y="1790" on="0"/>
        <pt x="1122" y="1702" on="0"/>
        <pt x="1122" y="1652" on="1"/>
        <pt x="1122" y="1602" on="0"/>
        <pt x="1084" y="1513" on="0"/>
        <pt x="1018" y="1447" on="0"/>
        <pt x="974" y="1428" on="1"/>
        <pt x="958" y="1421" on="0"/>
        <pt x="942" y="1417" on="1"/>
        <pt x="1119" y="1417" on="1"/>
        <pt x="1722" y="79" on="1"/>
        <pt x="1896" y="79" on="1"/>
        <pt x="1896" y="0" on="1"/>
        <pt x="762" y="0" on="1"/>
        <pt x="762" y="79" on="1"/>
        <pt x="955" y="79" on="1"/>
        <pt x="817" y="424" on="1"/>
        <pt x="377" y="424" on="1"/>
        <pt x="260" y="133" on="1"/>
        <pt x="259" y="130" on="0"/>
        <pt x="259" y="125" on="1"/>
        <pt x="259" y="111" on="0"/>
        <pt x="286" y="94" on="0"/>
        <pt x="335" y="83" on="0"/>
        <pt x="402" y="79" on="0"/>
        <pt x="442" y="79" on="1"/>
        <pt x="442" y="0" on="1"/>
        <pt x="-15" y="0" on="1"/>
      </contour>
      <contour>
        <pt x="786" y="503" on="1"/>
        <pt x="593" y="975" on="1"/>
        <pt x="408" y="503" on="1"/>
      </contour>
      <contour>
        <pt x="880" y="1519" on="1"/>
        <pt x="907" y="1519" on="0"/>
        <pt x="956" y="1540" on="0"/>
        <pt x="992" y="1576" on="0"/>
        <pt x="1013" y="1625" on="0"/>
        <pt x="1013" y="1652" on="1"/>
        <pt x="1013" y="1679" on="0"/>
        <pt x="992" y="1728" on="0"/>
        <pt x="956" y="1764" on="0"/>
        <pt x="907" y="1785" on="0"/>
        <pt x="880" y="1785" on="1"/>
        <pt x="853" y="1785" on="0"/>
        <pt x="804" y="1764" on="0"/>
        <pt x="768" y="1728" on="0"/>
        <pt x="747" y="1679" on="0"/>
        <pt x="747" y="1652" on="1"/>
        <pt x="747" y="1625" on="0"/>
        <pt x="768" y="1576" on="0"/>
        <pt x="804" y="1540" on="0"/>
        <pt x="853" y="1519" on="0"/>
      </contour>
    </TTGlyph>
    <TTGlyph name="Atilde" xMin="-15" yMin="0" xMax="1896" yMax="1890">
      <contour>
        <pt x="373" y="1596" on="1"/>
        <pt x="379" y="1661" on="0"/>
        <pt x="424" y="1769" on="0"/>
        <pt x="497" y="1847" on="0"/>
        <pt x="599" y="1890" on="0"/>
        <pt x="662" y="1890" on="1"/>
        <pt x="722" y="1890" on="0"/>
        <pt x="849" y="1850" on="0"/>
        <pt x="915" y="1825" on="1"/>
        <pt x="978" y="1802" on="0"/>
        <pt x="1102" y="1765" on="0"/>
        <pt x="1162" y="1765" on="1"/>
        <pt x="1218" y="1765" on="0"/>
        <pt x="1322" y="1809" on="0"/>
        <pt x="1370" y="1866" on="1"/>
        <pt x="1425" y="1831" on="1"/>
        <pt x="1419" y="1766" on="0"/>
        <pt x="1374" y="1658" on="0"/>
        <pt x="1301" y="1580" on="0"/>
        <pt x="1199" y="1537" on="0"/>
        <pt x="1136" y="1537" on="1"/>
        <pt x="1082" y="1537" on="0"/>
        <pt x="965" y="1571" on="0"/>
        <pt x="905" y="1594" on="1"/>
        <pt x="837" y="1620" on="0"/>
        <pt x="702" y="1662" on="0"/>
        <pt x="636" y="1662" on="1"/>
        <pt x="579" y="1662" on="0"/>
        <pt x="475" y="1618" on="0"/>
        <pt x="428" y="1561" on="1"/>
      </contour>
      <contour>
        <pt x="-15" y="79" on="1"/>
        <pt x="66" y="79" on="0"/>
        <pt x="153" y="101" on="0"/>
        <pt x="165" y="130" on="1"/>
        <pt x="680" y="1417" on="1"/>
        <pt x="1119" y="1417" on="1"/>
        <pt x="1722" y="79" on="1"/>
        <pt x="1896" y="79" on="1"/>
        <pt x="1896" y="0" on="1"/>
        <pt x="762" y="0" on="1"/>
        <pt x="762" y="79" on="1"/>
        <pt x="955" y="79" on="1"/>
        <pt x="817" y="424" on="1"/>
        <pt x="377" y="424" on="1"/>
        <pt x="260" y="133" on="1"/>
        <pt x="259" y="130" on="0"/>
        <pt x="259" y="125" on="1"/>
        <pt x="259" y="111" on="0"/>
        <pt x="286" y="94" on="0"/>
        <pt x="335" y="83" on="0"/>
        <pt x="402" y="79" on="0"/>
        <pt x="442" y="79" on="1"/>
        <pt x="442" y="0" on="1"/>
        <pt x="-15" y="0" on="1"/>
      </contour>
      <contour>
        <pt x="786" y="503" on="1"/>
        <pt x="593" y="975" on="1"/>
        <pt x="408" y="503" on="1"/>
      </contour>
    </TTGlyph>
    <TTGlyph name="B" xMin="99" yMin="0" xMax="1819" yMax="1417">
      <contour>
        <pt x="99" y="79" on="1"/>
        <pt x="275" y="79" on="1"/>
        <pt x="275" y="1339" on="1"/>
        <pt x="99" y="1339" on="1"/>
        <pt x="99" y="1417" on="1"/>
        <pt x="1110" y="1417" on="1"/>
        <pt x="1240" y="1417" on="0"/>
        <pt x="1464" y="1386" on="0"/>
        <pt x="1630" y="1307" on="0"/>
        <pt x="1725" y="1172" on="0"/>
        <pt x="1725" y="1069" on="1"/>
        <pt x="1725" y="985" on="0"/>
        <pt x="1658" y="864" on="0"/>
        <pt x="1516" y="785" on="0"/>
        <pt x="1291" y="745" on="0"/>
        <pt x="1134" y="744" on="1"/>
        <pt x="1219" y="743" on="0"/>
        <pt x="1387" y="734" on="0"/>
        <pt x="1539" y="708" on="0"/>
        <pt x="1669" y="659" on="0"/>
        <pt x="1765" y="580" on="0"/>
        <pt x="1819" y="464" on="0"/>
        <pt x="1819" y="384" on="1"/>
        <pt x="1819" y="270" on="0"/>
        <pt x="1733" y="121" on="0"/>
        <pt x="1571" y="34" on="0"/>
        <pt x="1336" y="0" on="0"/>
        <pt x="1186" y="0" on="1"/>
        <pt x="99" y="0" on="1"/>
      </contour>
      <contour>
        <pt x="964" y="775" on="1"/>
        <pt x="1009" y="775" on="0"/>
        <pt x="1087" y="797" on="0"/>
        <pt x="1145" y="860" on="0"/>
        <pt x="1178" y="973" on="0"/>
        <pt x="1178" y="1063" on="1"/>
        <pt x="1178" y="1153" on="0"/>
        <pt x="1145" y="1263" on="0"/>
        <pt x="1087" y="1324" on="0"/>
        <pt x="1009" y="1345" on="0"/>
        <pt x="964" y="1345" on="1"/>
      </contour>
      <contour>
        <pt x="964" y="79" on="1"/>
        <pt x="1019" y="79" on="0"/>
        <pt x="1099" y="98" on="0"/>
        <pt x="1152" y="156" on="0"/>
        <pt x="1178" y="265" on="0"/>
        <pt x="1178" y="355" on="1"/>
        <pt x="1178" y="535" on="0"/>
        <pt x="1073" y="700" on="0"/>
        <pt x="964" y="700" on="1"/>
      </contour>
    </TTGlyph>
    <TTGlyph name="C" xMin="118" yMin="-38" xMax="1701" yMax="1455">
      <contour>
        <pt x="118" y="675" on="1"/>
        <pt x="118" y="841" on="0"/>
        <pt x="224" y="1127" on="0"/>
        <pt x="437" y="1336" on="0"/>
        <pt x="755" y="1455" on="0"/>
        <pt x="967" y="1455" on="1"/>
        <pt x="1121" y="1455" on="0"/>
        <pt x="1385" y="1361" on="0"/>
        <pt x="1497" y="1256" on="1"/>
        <pt x="1620" y="1440" on="1"/>
        <pt x="1689" y="1440" on="1"/>
        <pt x="1689" y="791" on="1"/>
        <pt x="1611" y="791" on="1"/>
        <pt x="1575" y="950" on="0"/>
        <pt x="1452" y="1160" on="0"/>
        <pt x="1305" y="1285" on="0"/>
        <pt x="1146" y="1336" on="0"/>
        <pt x="1075" y="1336" on="1"/>
        <pt x="1041" y="1336" on="0"/>
        <pt x="974" y="1325" on="0"/>
        <pt x="912" y="1286" on="0"/>
        <pt x="858" y="1212" on="0"/>
        <pt x="819" y="1085" on="0"/>
        <pt x="796" y="899" on="0"/>
        <pt x="796" y="768" on="1"/>
        <pt x="796" y="631" on="0"/>
        <pt x="813" y="423" on="0"/>
        <pt x="848" y="271" on="0"/>
        <pt x="899" y="171" on="0"/>
        <pt x="968" y="111" on="0"/>
        <pt x="1054" y="86" on="0"/>
        <pt x="1105" y="86" on="1"/>
        <pt x="1205" y="86" on="0"/>
        <pt x="1379" y="147" on="0"/>
        <pt x="1513" y="279" on="0"/>
        <pt x="1600" y="487" on="0"/>
        <pt x="1613" y="633" on="1"/>
        <pt x="1701" y="633" on="1"/>
        <pt x="1693" y="492" on="0"/>
        <pt x="1608" y="248" on="0"/>
        <pt x="1434" y="66" on="0"/>
        <pt x="1160" y="-38" on="0"/>
        <pt x="963" y="-38" on="1"/>
        <pt x="771" y="-38" on="0"/>
        <pt x="459" y="66" on="0"/>
        <pt x="238" y="255" on="0"/>
        <pt x="118" y="517" on="0"/>
      </contour>
    </TTGlyph>
    <TTGlyph name="Ccedilla" xMin="118" yMin="-481" xMax="1701" yMax="1455">
      <contour>
        <pt x="118" y="675" on="1"/>
        <pt x="118" y="841" on="0"/>
        <pt x="224" y="1127" on="0"/>
        <pt x="437" y="1336" on="0"/>
        <pt x="755" y="1455" on="0"/>
        <pt x="967" y="1455" on="1"/>
        <pt x="1121" y="1455" on="0"/>
        <pt x="1385" y="1361" on="0"/>
        <pt x="1497" y="1256" on="1"/>
        <pt x="1620" y="1440" on="1"/>
        <pt x="1689" y="1440" on="1"/>
        <pt x="1689" y="791" on="1"/>
        <pt x="1611" y="791" on="1"/>
        <pt x="1575" y="950" on="0"/>
        <pt x="1452" y="1160" on="0"/>
        <pt x="1305" y="1285" on="0"/>
        <pt x="1146" y="1336" on="0"/>
        <pt x="1075" y="1336" on="1"/>
        <pt x="1041" y="1336" on="0"/>
        <pt x="974" y="1325" on="0"/>
        <pt x="912" y="1286" on="0"/>
        <pt x="858" y="1212" on="0"/>
        <pt x="819" y="1085" on="0"/>
        <pt x="796" y="899" on="0"/>
        <pt x="796" y="768" on="1"/>
        <pt x="796" y="631" on="0"/>
        <pt x="813" y="423" on="0"/>
        <pt x="848" y="271" on="0"/>
        <pt x="899" y="171" on="0"/>
        <pt x="968" y="111" on="0"/>
        <pt x="1054" y="86" on="0"/>
        <pt x="1105" y="86" on="1"/>
        <pt x="1205" y="86" on="0"/>
        <pt x="1379" y="147" on="0"/>
        <pt x="1513" y="279" on="0"/>
        <pt x="1600" y="487" on="0"/>
        <pt x="1613" y="633" on="1"/>
        <pt x="1701" y="633" on="1"/>
        <pt x="1696" y="543" on="0"/>
        <pt x="1658" y="376" on="0"/>
        <pt x="1587" y="231" on="0"/>
        <pt x="1481" y="111" on="0"/>
        <pt x="1333" y="22" on="0"/>
        <pt x="1141" y="-31" on="0"/>
        <pt x="1021" y="-36" on="1"/>
        <pt x="1021" y="-150" on="1"/>
        <pt x="1068" y="-127" on="0"/>
        <pt x="1167" y="-110" on="0"/>
        <pt x="1206" y="-110" on="1"/>
        <pt x="1252" y="-110" on="0"/>
        <pt x="1328" y="-135" on="0"/>
        <pt x="1383" y="-181" on="0"/>
        <pt x="1413" y="-244" on="0"/>
        <pt x="1413" y="-281" on="1"/>
        <pt x="1413" y="-373" on="0"/>
        <pt x="1275" y="-481" on="0"/>
        <pt x="1130" y="-481" on="1"/>
        <pt x="1058" y="-481" on="0"/>
        <pt x="925" y="-460" on="0"/>
        <pt x="812" y="-426" on="0"/>
        <pt x="723" y="-385" on="0"/>
        <pt x="693" y="-364" on="1"/>
        <pt x="718" y="-310" on="1"/>
        <pt x="735" y="-320" on="0"/>
        <pt x="800" y="-345" on="0"/>
        <pt x="879" y="-368" on="0"/>
        <pt x="965" y="-383" on="0"/>
        <pt x="1003" y="-383" on="1"/>
        <pt x="1031" y="-383" on="0"/>
        <pt x="1078" y="-375" on="0"/>
        <pt x="1112" y="-354" on="0"/>
        <pt x="1131" y="-318" on="0"/>
        <pt x="1131" y="-290" on="1"/>
        <pt x="1131" y="-249" on="0"/>
        <pt x="1083" y="-205" on="0"/>
        <pt x="1047" y="-205" on="1"/>
        <pt x="1036" y="-205" on="0"/>
        <pt x="1009" y="-210" on="0"/>
        <pt x="998" y="-215" on="1"/>
        <pt x="947" y="-215" on="1"/>
        <pt x="947" y="-38" on="1"/>
        <pt x="758" y="-36" on="0"/>
        <pt x="452" y="70" on="0"/>
        <pt x="236" y="258" on="0"/>
        <pt x="118" y="519" on="0"/>
      </contour>
    </TTGlyph>
    <TTGlyph name="D" xMin="99" yMin="0" xMax="1906" yMax="1417">
      <contour>
        <pt x="99" y="79" on="1"/>
        <pt x="274" y="79" on="1"/>
        <pt x="274" y="1339" on="1"/>
        <pt x="99" y="1339" on="1"/>
        <pt x="99" y="1417" on="1"/>
        <pt x="1214" y="1417" on="1"/>
        <pt x="1373" y="1417" on="0"/>
        <pt x="1629" y="1322" on="0"/>
        <pt x="1809" y="1140" on="0"/>
        <pt x="1906" y="877" on="0"/>
        <pt x="1906" y="709" on="1"/>
        <pt x="1906" y="540" on="0"/>
        <pt x="1809" y="276" on="0"/>
        <pt x="1629" y="95" on="0"/>
        <pt x="1373" y="0" on="0"/>
        <pt x="1214" y="0" on="1"/>
        <pt x="99" y="0" on="1"/>
      </contour>
      <contour>
        <pt x="964" y="79" on="1"/>
        <pt x="1011" y="79" on="0"/>
        <pt x="1088" y="98" on="0"/>
        <pt x="1146" y="150" on="0"/>
        <pt x="1188" y="239" on="0"/>
        <pt x="1215" y="379" on="0"/>
        <pt x="1228" y="576" on="0"/>
        <pt x="1228" y="709" on="1"/>
        <pt x="1228" y="842" on="0"/>
        <pt x="1215" y="1038" on="0"/>
        <pt x="1188" y="1178" on="0"/>
        <pt x="1146" y="1268" on="0"/>
        <pt x="1088" y="1319" on="0"/>
        <pt x="1011" y="1339" on="0"/>
        <pt x="964" y="1339" on="1"/>
      </contour>
    </TTGlyph>
    <TTGlyph name="E" xMin="99" yMin="0" xMax="1696" yMax="1417">
      <contour>
        <pt x="99" y="79" on="1"/>
        <pt x="274" y="79" on="1"/>
        <pt x="274" y="1339" on="1"/>
        <pt x="99" y="1339" on="1"/>
        <pt x="99" y="1417" on="1"/>
        <pt x="1648" y="1417" on="1"/>
        <pt x="1648" y="930" on="1"/>
        <pt x="1580" y="930" on="1"/>
        <pt x="1302" y="1339" on="1"/>
        <pt x="964" y="1339" on="1"/>
        <pt x="964" y="744" on="1"/>
        <pt x="1115" y="744" on="1"/>
        <pt x="1247" y="1074" on="1"/>
        <pt x="1312" y="1074" on="1"/>
        <pt x="1312" y="334" on="1"/>
        <pt x="1247" y="334" on="1"/>
        <pt x="1115" y="666" on="1"/>
        <pt x="964" y="666" on="1"/>
        <pt x="964" y="79" on="1"/>
        <pt x="1337" y="79" on="1"/>
        <pt x="1627" y="534" on="1"/>
        <pt x="1696" y="534" on="1"/>
        <pt x="1696" y="0" on="1"/>
        <pt x="99" y="0" on="1"/>
      </contour>
    </TTGlyph>
    <TTGlyph name="Eacute" xMin="99" yMin="0" xMax="1696" yMax="1937">
      <contour>
        <pt x="638" y="1617" on="1"/>
        <pt x="644" y="1620" on="0"/>
        <pt x="690" y="1647" on="0"/>
        <pt x="724" y="1667" on="1"/>
        <pt x="758" y="1687" on="0"/>
        <pt x="845" y="1738" on="0"/>
        <pt x="937" y="1792" on="0"/>
        <pt x="1029" y="1844" on="0"/>
        <pt x="1108" y="1888" on="0"/>
        <pt x="1169" y="1920" on="0"/>
        <pt x="1184" y="1927" on="1"/>
        <pt x="1197" y="1932" on="0"/>
        <pt x="1224" y="1937" on="0"/>
        <pt x="1238" y="1937" on="1"/>
        <pt x="1266" y="1937" on="0"/>
        <pt x="1315" y="1912" on="0"/>
        <pt x="1351" y="1870" on="0"/>
        <pt x="1372" y="1816" on="0"/>
        <pt x="1372" y="1788" on="1"/>
        <pt x="1372" y="1750" on="0"/>
        <pt x="1331" y="1683" on="0"/>
        <pt x="1287" y="1666" on="1"/>
        <pt x="1272" y="1660" on="0"/>
        <pt x="1209" y="1645" on="0"/>
        <pt x="1123" y="1628" on="0"/>
        <pt x="1022" y="1609" on="0"/>
        <pt x="919" y="1591" on="0"/>
        <pt x="819" y="1575" on="0"/>
        <pt x="778" y="1568" on="1"/>
        <pt x="732" y="1560" on="0"/>
        <pt x="670" y="1550" on="0"/>
        <pt x="662" y="1548" on="1"/>
      </contour>
      <contour>
        <pt x="99" y="79" on="1"/>
        <pt x="274" y="79" on="1"/>
        <pt x="274" y="1339" on="1"/>
        <pt x="99" y="1339" on="1"/>
        <pt x="99" y="1417" on="1"/>
        <pt x="1648" y="1417" on="1"/>
        <pt x="1648" y="930" on="1"/>
        <pt x="1580" y="930" on="1"/>
        <pt x="1302" y="1339" on="1"/>
        <pt x="964" y="1339" on="1"/>
        <pt x="964" y="744" on="1"/>
        <pt x="1115" y="744" on="1"/>
        <pt x="1247" y="1074" on="1"/>
        <pt x="1312" y="1074" on="1"/>
        <pt x="1312" y="334" on="1"/>
        <pt x="1247" y="334" on="1"/>
        <pt x="1115" y="666" on="1"/>
        <pt x="964" y="666" on="1"/>
        <pt x="964" y="79" on="1"/>
        <pt x="1337" y="79" on="1"/>
        <pt x="1627" y="534" on="1"/>
        <pt x="1696" y="534" on="1"/>
        <pt x="1696" y="0" on="1"/>
        <pt x="99" y="0" on="1"/>
      </contour>
    </TTGlyph>
    <TTGlyph name="Ecircumflex" xMin="99" yMin="0" xMax="1696" yMax="1937">
      <contour>
        <pt x="441" y="1580" on="1"/>
        <pt x="938" y="1937" on="1"/>
        <pt x="1435" y="1580" on="1"/>
        <pt x="1377" y="1504" on="1"/>
        <pt x="938" y="1652" on="1"/>
        <pt x="498" y="1504" on="1"/>
      </contour>
      <contour>
        <pt x="99" y="79" on="1"/>
        <pt x="274" y="79" on="1"/>
        <pt x="274" y="1339" on="1"/>
        <pt x="99" y="1339" on="1"/>
        <pt x="99" y="1417" on="1"/>
        <pt x="1648" y="1417" on="1"/>
        <pt x="1648" y="930" on="1"/>
        <pt x="1580" y="930" on="1"/>
        <pt x="1302" y="1339" on="1"/>
        <pt x="964" y="1339" on="1"/>
        <pt x="964" y="744" on="1"/>
        <pt x="1115" y="744" on="1"/>
        <pt x="1247" y="1074" on="1"/>
        <pt x="1312" y="1074" on="1"/>
        <pt x="1312" y="334" on="1"/>
        <pt x="1247" y="334" on="1"/>
        <pt x="1115" y="666" on="1"/>
        <pt x="964" y="666" on="1"/>
        <pt x="964" y="79" on="1"/>
        <pt x="1337" y="79" on="1"/>
        <pt x="1627" y="534" on="1"/>
        <pt x="1696" y="534" on="1"/>
        <pt x="1696" y="0" on="1"/>
        <pt x="99" y="0" on="1"/>
      </contour>
    </TTGlyph>
    <TTGlyph name="Edieresis" xMin="99" yMin="0" xMax="1696" yMax="1892">
      <contour>
        <pt x="1225" y="1543" on="1"/>
        <pt x="1188" y="1543" on="0"/>
        <pt x="1124" y="1570" on="0"/>
        <pt x="1077" y="1618" on="0"/>
        <pt x="1050" y="1681" on="0"/>
        <pt x="1050" y="1717" on="1"/>
        <pt x="1050" y="1753" on="0"/>
        <pt x="1077" y="1817" on="0"/>
        <pt x="1124" y="1865" on="0"/>
        <pt x="1188" y="1892" on="0"/>
        <pt x="1225" y="1892" on="1"/>
        <pt x="1261" y="1892" on="0"/>
        <pt x="1324" y="1865" on="0"/>
        <pt x="1372" y="1817" on="0"/>
        <pt x="1399" y="1753" on="0"/>
        <pt x="1399" y="1717" on="1"/>
        <pt x="1399" y="1681" on="0"/>
        <pt x="1372" y="1618" on="0"/>
        <pt x="1324" y="1570" on="0"/>
        <pt x="1261" y="1543" on="0"/>
      </contour>
      <contour>
        <pt x="653" y="1543" on="1"/>
        <pt x="617" y="1543" on="0"/>
        <pt x="553" y="1570" on="0"/>
        <pt x="505" y="1618" on="0"/>
        <pt x="478" y="1681" on="0"/>
        <pt x="478" y="1717" on="1"/>
        <pt x="478" y="1753" on="0"/>
        <pt x="505" y="1817" on="0"/>
        <pt x="553" y="1865" on="0"/>
        <pt x="617" y="1892" on="0"/>
        <pt x="653" y="1892" on="1"/>
        <pt x="689" y="1892" on="0"/>
        <pt x="753" y="1865" on="0"/>
        <pt x="800" y="1817" on="0"/>
        <pt x="827" y="1753" on="0"/>
        <pt x="827" y="1717" on="1"/>
        <pt x="827" y="1681" on="0"/>
        <pt x="800" y="1618" on="0"/>
        <pt x="753" y="1570" on="0"/>
        <pt x="689" y="1543" on="0"/>
      </contour>
      <contour>
        <pt x="99" y="79" on="1"/>
        <pt x="274" y="79" on="1"/>
        <pt x="274" y="1339" on="1"/>
        <pt x="99" y="1339" on="1"/>
        <pt x="99" y="1417" on="1"/>
        <pt x="1648" y="1417" on="1"/>
        <pt x="1648" y="930" on="1"/>
        <pt x="1580" y="930" on="1"/>
        <pt x="1302" y="1339" on="1"/>
        <pt x="964" y="1339" on="1"/>
        <pt x="964" y="744" on="1"/>
        <pt x="1115" y="744" on="1"/>
        <pt x="1247" y="1074" on="1"/>
        <pt x="1312" y="1074" on="1"/>
        <pt x="1312" y="334" on="1"/>
        <pt x="1247" y="334" on="1"/>
        <pt x="1115" y="666" on="1"/>
        <pt x="964" y="666" on="1"/>
        <pt x="964" y="79" on="1"/>
        <pt x="1337" y="79" on="1"/>
        <pt x="1627" y="534" on="1"/>
        <pt x="1696" y="534" on="1"/>
        <pt x="1696" y="0" on="1"/>
        <pt x="99" y="0" on="1"/>
      </contour>
    </TTGlyph>
    <TTGlyph name="Egrave" xMin="99" yMin="0" xMax="1696" yMax="1937">
      <contour>
        <pt x="589" y="1666" on="1"/>
        <pt x="545" y="1683" on="0"/>
        <pt x="504" y="1750" on="0"/>
        <pt x="504" y="1788" on="1"/>
        <pt x="504" y="1816" on="0"/>
        <pt x="524" y="1870" on="0"/>
        <pt x="560" y="1912" on="0"/>
        <pt x="609" y="1937" on="0"/>
        <pt x="638" y="1937" on="1"/>
        <pt x="652" y="1937" on="0"/>
        <pt x="679" y="1932" on="0"/>
        <pt x="692" y="1927" on="1"/>
        <pt x="707" y="1920" on="0"/>
        <pt x="768" y="1888" on="0"/>
        <pt x="847" y="1844" on="0"/>
        <pt x="939" y="1792" on="0"/>
        <pt x="1031" y="1738" on="0"/>
        <pt x="1117" y="1687" on="0"/>
        <pt x="1152" y="1667" on="1"/>
        <pt x="1186" y="1647" on="0"/>
        <pt x="1232" y="1620" on="0"/>
        <pt x="1238" y="1617" on="1"/>
        <pt x="1214" y="1548" on="1"/>
        <pt x="1206" y="1550" on="0"/>
        <pt x="1144" y="1560" on="0"/>
        <pt x="1098" y="1568" on="1"/>
        <pt x="1057" y="1575" on="0"/>
        <pt x="957" y="1591" on="0"/>
        <pt x="854" y="1609" on="0"/>
        <pt x="753" y="1628" on="0"/>
        <pt x="667" y="1645" on="0"/>
        <pt x="603" y="1660" on="0"/>
      </contour>
      <contour>
        <pt x="99" y="79" on="1"/>
        <pt x="274" y="79" on="1"/>
        <pt x="274" y="1339" on="1"/>
        <pt x="99" y="1339" on="1"/>
        <pt x="99" y="1417" on="1"/>
        <pt x="1648" y="1417" on="1"/>
        <pt x="1648" y="930" on="1"/>
        <pt x="1580" y="930" on="1"/>
        <pt x="1302" y="1339" on="1"/>
        <pt x="964" y="1339" on="1"/>
        <pt x="964" y="744" on="1"/>
        <pt x="1115" y="744" on="1"/>
        <pt x="1247" y="1074" on="1"/>
        <pt x="1312" y="1074" on="1"/>
        <pt x="1312" y="334" on="1"/>
        <pt x="1247" y="334" on="1"/>
        <pt x="1115" y="666" on="1"/>
        <pt x="964" y="666" on="1"/>
        <pt x="964" y="79" on="1"/>
        <pt x="1337" y="79" on="1"/>
        <pt x="1627" y="534" on="1"/>
        <pt x="1696" y="534" on="1"/>
        <pt x="1696" y="0" on="1"/>
        <pt x="99" y="0" on="1"/>
      </contour>
    </TTGlyph>
    <TTGlyph name="Eth" xMin="62" yMin="0" xMax="1906" yMax="1417">
      <contour>
        <pt x="99" y="79" on="1"/>
        <pt x="274" y="79" on="1"/>
        <pt x="274" y="617" on="1"/>
        <pt x="62" y="617" on="1"/>
        <pt x="62" y="741" on="1"/>
        <pt x="274" y="741" on="1"/>
        <pt x="274" y="1339" on="1"/>
        <pt x="99" y="1339" on="1"/>
        <pt x="99" y="1417" on="1"/>
        <pt x="1214" y="1417" on="1"/>
        <pt x="1373" y="1417" on="0"/>
        <pt x="1629" y="1322" on="0"/>
        <pt x="1809" y="1140" on="0"/>
        <pt x="1906" y="877" on="0"/>
        <pt x="1906" y="709" on="1"/>
        <pt x="1906" y="540" on="0"/>
        <pt x="1809" y="276" on="0"/>
        <pt x="1629" y="95" on="0"/>
        <pt x="1373" y="0" on="0"/>
        <pt x="1214" y="0" on="1"/>
        <pt x="99" y="0" on="1"/>
      </contour>
      <contour>
        <pt x="964" y="79" on="1"/>
        <pt x="1011" y="79" on="0"/>
        <pt x="1088" y="98" on="0"/>
        <pt x="1146" y="150" on="0"/>
        <pt x="1188" y="239" on="0"/>
        <pt x="1215" y="379" on="0"/>
        <pt x="1228" y="576" on="0"/>
        <pt x="1228" y="709" on="1"/>
        <pt x="1228" y="842" on="0"/>
        <pt x="1215" y="1038" on="0"/>
        <pt x="1188" y="1178" on="0"/>
        <pt x="1146" y="1268" on="0"/>
        <pt x="1088" y="1319" on="0"/>
        <pt x="1011" y="1339" on="0"/>
        <pt x="964" y="1339" on="1"/>
        <pt x="964" y="741" on="1"/>
        <pt x="1107" y="741" on="1"/>
        <pt x="1107" y="617" on="1"/>
        <pt x="964" y="617" on="1"/>
      </contour>
    </TTGlyph>
    <TTGlyph name="Euro" xMin="-11" yMin="-38" xMax="1715" yMax="1455">
      <contour>
        <pt x="-11" y="584" on="1"/>
        <pt x="137" y="584" on="1"/>
        <pt x="135" y="606" on="0"/>
        <pt x="132" y="652" on="0"/>
        <pt x="132" y="675" on="1"/>
        <pt x="132" y="713" on="1"/>
        <pt x="-11" y="713" on="1"/>
        <pt x="-11" y="815" on="1"/>
        <pt x="142" y="815" on="1"/>
        <pt x="163" y="954" on="0"/>
        <pt x="288" y="1189" on="0"/>
        <pt x="498" y="1360" on="0"/>
        <pt x="792" y="1455" on="0"/>
        <pt x="981" y="1455" on="1"/>
        <pt x="1135" y="1455" on="0"/>
        <pt x="1399" y="1361" on="0"/>
        <pt x="1511" y="1256" on="1"/>
        <pt x="1634" y="1440" on="1"/>
        <pt x="1703" y="1440" on="1"/>
        <pt x="1703" y="791" on="1"/>
        <pt x="1625" y="791" on="1"/>
        <pt x="1589" y="950" on="0"/>
        <pt x="1466" y="1160" on="0"/>
        <pt x="1319" y="1285" on="0"/>
        <pt x="1160" y="1336" on="0"/>
        <pt x="1089" y="1336" on="1"/>
        <pt x="1056" y="1336" on="0"/>
        <pt x="991" y="1325" on="0"/>
        <pt x="930" y="1290" on="0"/>
        <pt x="877" y="1221" on="0"/>
        <pt x="837" y="1106" on="0"/>
        <pt x="812" y="935" on="0"/>
        <pt x="810" y="815" on="1"/>
        <pt x="1172" y="815" on="1"/>
        <pt x="1172" y="713" on="1"/>
        <pt x="810" y="713" on="1"/>
        <pt x="811" y="678" on="0"/>
        <pt x="813" y="614" on="0"/>
        <pt x="815" y="584" on="1"/>
        <pt x="1172" y="584" on="1"/>
        <pt x="1172" y="482" on="1"/>
        <pt x="823" y="482" on="1"/>
        <pt x="835" y="365" on="0"/>
        <pt x="885" y="212" on="0"/>
        <pt x="959" y="122" on="0"/>
        <pt x="1057" y="86" on="0"/>
        <pt x="1119" y="86" on="1"/>
        <pt x="1219" y="86" on="0"/>
        <pt x="1393" y="147" on="0"/>
        <pt x="1527" y="279" on="0"/>
        <pt x="1614" y="487" on="0"/>
        <pt x="1627" y="633" on="1"/>
        <pt x="1715" y="633" on="1"/>
        <pt x="1707" y="492" on="0"/>
        <pt x="1622" y="248" on="0"/>
        <pt x="1448" y="66" on="0"/>
        <pt x="1174" y="-38" on="0"/>
        <pt x="977" y="-38" on="1"/>
        <pt x="816" y="-38" on="0"/>
        <pt x="544" y="36" on="0"/>
        <pt x="333" y="172" on="0"/>
        <pt x="190" y="364" on="0"/>
        <pt x="157" y="482" on="1"/>
        <pt x="-11" y="482" on="1"/>
      </contour>
    </TTGlyph>
    <TTGlyph name="F" xMin="99" yMin="0" xMax="1601" yMax="1417">
      <contour>
        <pt x="99" y="79" on="1"/>
        <pt x="274" y="79" on="1"/>
        <pt x="274" y="1339" on="1"/>
        <pt x="99" y="1339" on="1"/>
        <pt x="99" y="1417" on="1"/>
        <pt x="1601" y="1417" on="1"/>
        <pt x="1601" y="883" on="1"/>
        <pt x="1533" y="883" on="1"/>
        <pt x="1251" y="1339" on="1"/>
        <pt x="964" y="1339" on="1"/>
        <pt x="964" y="669" on="1"/>
        <pt x="1125" y="669" on="1"/>
        <pt x="1247" y="999" on="1"/>
        <pt x="1312" y="999" on="1"/>
        <pt x="1312" y="258" on="1"/>
        <pt x="1247" y="258" on="1"/>
        <pt x="1125" y="590" on="1"/>
        <pt x="964" y="590" on="1"/>
        <pt x="964" y="79" on="1"/>
        <pt x="1214" y="79" on="1"/>
        <pt x="1214" y="0" on="1"/>
        <pt x="99" y="0" on="1"/>
      </contour>
    </TTGlyph>
    <TTGlyph name="G" xMin="118" yMin="-39" xMax="1850" yMax="1455">
      <contour>
        <pt x="118" y="675" on="1"/>
        <pt x="118" y="840" on="0"/>
        <pt x="221" y="1125" on="0"/>
        <pt x="428" y="1335" on="0"/>
        <pt x="739" y="1455" on="0"/>
        <pt x="948" y="1455" on="1"/>
        <pt x="1097" y="1455" on="0"/>
        <pt x="1376" y="1365" on="0"/>
        <pt x="1497" y="1256" on="1"/>
        <pt x="1620" y="1440" on="1"/>
        <pt x="1689" y="1440" on="1"/>
        <pt x="1689" y="791" on="1"/>
        <pt x="1611" y="791" on="1"/>
        <pt x="1575" y="950" on="0"/>
        <pt x="1452" y="1160" on="0"/>
        <pt x="1305" y="1285" on="0"/>
        <pt x="1146" y="1336" on="0"/>
        <pt x="1075" y="1336" on="1"/>
        <pt x="1041" y="1336" on="0"/>
        <pt x="974" y="1325" on="0"/>
        <pt x="912" y="1286" on="0"/>
        <pt x="858" y="1212" on="0"/>
        <pt x="819" y="1085" on="0"/>
        <pt x="796" y="899" on="0"/>
        <pt x="796" y="768" on="1"/>
        <pt x="796" y="570" on="0"/>
        <pt x="813" y="296" on="0"/>
        <pt x="854" y="127" on="0"/>
        <pt x="921" y="51" on="0"/>
        <pt x="971" y="51" on="1"/>
        <pt x="1011" y="51" on="0"/>
        <pt x="1057" y="83" on="0"/>
        <pt x="1079" y="154" on="0"/>
        <pt x="1084" y="267" on="0"/>
        <pt x="1084" y="349" on="1"/>
        <pt x="1084" y="633" on="1"/>
        <pt x="898" y="633" on="1"/>
        <pt x="898" y="712" on="1"/>
        <pt x="1850" y="712" on="1"/>
        <pt x="1850" y="633" on="1"/>
        <pt x="1689" y="633" on="1"/>
        <pt x="1689" y="-38" on="1"/>
        <pt x="1627" y="-38" on="1"/>
        <pt x="1579" y="11" on="0"/>
        <pt x="1479" y="49" on="0"/>
        <pt x="1423" y="49" on="1"/>
        <pt x="1369" y="49" on="0"/>
        <pt x="1259" y="25" on="0"/>
        <pt x="1196" y="9" on="1"/>
        <pt x="1125" y="-8" on="0"/>
        <pt x="964" y="-39" on="0"/>
        <pt x="867" y="-39" on="1"/>
        <pt x="696" y="-39" on="0"/>
        <pt x="420" y="73" on="0"/>
        <pt x="224" y="267" on="0"/>
        <pt x="118" y="527" on="0"/>
      </contour>
    </TTGlyph>
    <TTGlyph name="H" xMin="99" yMin="0" xMax="2140" yMax="1417">
      <contour>
        <pt x="99" y="79" on="1"/>
        <pt x="274" y="79" on="1"/>
        <pt x="274" y="1339" on="1"/>
        <pt x="99" y="1339" on="1"/>
        <pt x="99" y="1417" on="1"/>
        <pt x="1063" y="1417" on="1"/>
        <pt x="1063" y="1339" on="1"/>
        <pt x="964" y="1339" on="1"/>
        <pt x="964" y="798" on="1"/>
        <pt x="1276" y="798" on="1"/>
        <pt x="1276" y="1339" on="1"/>
        <pt x="1176" y="1339" on="1"/>
        <pt x="1176" y="1417" on="1"/>
        <pt x="2140" y="1417" on="1"/>
        <pt x="2140" y="1339" on="1"/>
        <pt x="1966" y="1339" on="1"/>
        <pt x="1966" y="79" on="1"/>
        <pt x="2140" y="79" on="1"/>
        <pt x="2140" y="0" on="1"/>
        <pt x="1176" y="0" on="1"/>
        <pt x="1176" y="79" on="1"/>
        <pt x="1276" y="79" on="1"/>
        <pt x="1276" y="720" on="1"/>
        <pt x="964" y="720" on="1"/>
        <pt x="964" y="79" on="1"/>
        <pt x="1063" y="79" on="1"/>
        <pt x="1063" y="0" on="1"/>
        <pt x="99" y="0" on="1"/>
      </contour>
    </TTGlyph>
    <TTGlyph name="I" xMin="99" yMin="0" xMax="1138" yMax="1417">
      <contour>
        <pt x="99" y="79" on="1"/>
        <pt x="274" y="79" on="1"/>
        <pt x="274" y="1339" on="1"/>
        <pt x="99" y="1339" on="1"/>
        <pt x="99" y="1417" on="1"/>
        <pt x="1138" y="1417" on="1"/>
        <pt x="1138" y="1339" on="1"/>
        <pt x="964" y="1339" on="1"/>
        <pt x="964" y="79" on="1"/>
        <pt x="1138" y="79" on="1"/>
        <pt x="1138" y="0" on="1"/>
        <pt x="99" y="0" on="1"/>
      </contour>
    </TTGlyph>
    <TTGlyph name="Iacute" xMin="99" yMin="0" xMax="1138" yMax="1937">
      <contour>
        <pt x="321" y="1617" on="1"/>
        <pt x="327" y="1620" on="0"/>
        <pt x="373" y="1647" on="0"/>
        <pt x="407" y="1667" on="1"/>
        <pt x="441" y="1687" on="0"/>
        <pt x="528" y="1738" on="0"/>
        <pt x="620" y="1792" on="0"/>
        <pt x="712" y="1844" on="0"/>
        <pt x="791" y="1888" on="0"/>
        <pt x="852" y="1920" on="0"/>
        <pt x="867" y="1927" on="1"/>
        <pt x="880" y="1932" on="0"/>
        <pt x="907" y="1937" on="0"/>
        <pt x="921" y="1937" on="1"/>
        <pt x="949" y="1937" on="0"/>
        <pt x="998" y="1912" on="0"/>
        <pt x="1034" y="1870" on="0"/>
        <pt x="1055" y="1816" on="0"/>
        <pt x="1055" y="1788" on="1"/>
        <pt x="1055" y="1750" on="0"/>
        <pt x="1014" y="1683" on="0"/>
        <pt x="970" y="1666" on="1"/>
        <pt x="956" y="1660" on="0"/>
        <pt x="892" y="1645" on="0"/>
        <pt x="806" y="1628" on="0"/>
        <pt x="705" y="1609" on="0"/>
        <pt x="602" y="1591" on="0"/>
        <pt x="502" y="1575" on="0"/>
        <pt x="461" y="1568" on="1"/>
        <pt x="415" y="1560" on="0"/>
        <pt x="353" y="1550" on="0"/>
        <pt x="345" y="1548" on="1"/>
      </contour>
      <contour>
        <pt x="99" y="79" on="1"/>
        <pt x="274" y="79" on="1"/>
        <pt x="274" y="1339" on="1"/>
        <pt x="99" y="1339" on="1"/>
        <pt x="99" y="1417" on="1"/>
        <pt x="1138" y="1417" on="1"/>
        <pt x="1138" y="1339" on="1"/>
        <pt x="964" y="1339" on="1"/>
        <pt x="964" y="79" on="1"/>
        <pt x="1138" y="79" on="1"/>
        <pt x="1138" y="0" on="1"/>
        <pt x="99" y="0" on="1"/>
      </contour>
    </TTGlyph>
    <TTGlyph name="Icircumflex" xMin="99" yMin="0" xMax="1138" yMax="1937">
      <contour>
        <pt x="124" y="1580" on="1"/>
        <pt x="621" y="1937" on="1"/>
        <pt x="1118" y="1580" on="1"/>
        <pt x="1060" y="1504" on="1"/>
        <pt x="621" y="1652" on="1"/>
        <pt x="181" y="1504" on="1"/>
      </contour>
      <contour>
        <pt x="99" y="79" on="1"/>
        <pt x="274" y="79" on="1"/>
        <pt x="274" y="1339" on="1"/>
        <pt x="99" y="1339" on="1"/>
        <pt x="99" y="1417" on="1"/>
        <pt x="1138" y="1417" on="1"/>
        <pt x="1138" y="1339" on="1"/>
        <pt x="964" y="1339" on="1"/>
        <pt x="964" y="79" on="1"/>
        <pt x="1138" y="79" on="1"/>
        <pt x="1138" y="0" on="1"/>
        <pt x="99" y="0" on="1"/>
      </contour>
    </TTGlyph>
    <TTGlyph name="Idieresis" xMin="99" yMin="0" xMax="1138" yMax="1872">
      <contour>
        <pt x="908" y="1523" on="1"/>
        <pt x="871" y="1523" on="0"/>
        <pt x="807" y="1550" on="0"/>
        <pt x="760" y="1598" on="0"/>
        <pt x="733" y="1661" on="0"/>
        <pt x="733" y="1697" on="1"/>
        <pt x="733" y="1733" on="0"/>
        <pt x="760" y="1797" on="0"/>
        <pt x="807" y="1845" on="0"/>
        <pt x="871" y="1872" on="0"/>
        <pt x="908" y="1872" on="1"/>
        <pt x="944" y="1872" on="0"/>
        <pt x="1007" y="1845" on="0"/>
        <pt x="1055" y="1797" on="0"/>
        <pt x="1082" y="1733" on="0"/>
        <pt x="1082" y="1697" on="1"/>
        <pt x="1082" y="1661" on="0"/>
        <pt x="1055" y="1598" on="0"/>
        <pt x="1007" y="1550" on="0"/>
        <pt x="944" y="1523" on="0"/>
      </contour>
      <contour>
        <pt x="336" y="1523" on="1"/>
        <pt x="300" y="1523" on="0"/>
        <pt x="236" y="1550" on="0"/>
        <pt x="188" y="1598" on="0"/>
        <pt x="161" y="1661" on="0"/>
        <pt x="161" y="1697" on="1"/>
        <pt x="161" y="1733" on="0"/>
        <pt x="188" y="1797" on="0"/>
        <pt x="236" y="1845" on="0"/>
        <pt x="300" y="1872" on="0"/>
        <pt x="336" y="1872" on="1"/>
        <pt x="372" y="1872" on="0"/>
        <pt x="436" y="1845" on="0"/>
        <pt x="483" y="1797" on="0"/>
        <pt x="510" y="1733" on="0"/>
        <pt x="510" y="1697" on="1"/>
        <pt x="510" y="1661" on="0"/>
        <pt x="483" y="1598" on="0"/>
        <pt x="436" y="1550" on="0"/>
        <pt x="372" y="1523" on="0"/>
      </contour>
      <contour>
        <pt x="99" y="79" on="1"/>
        <pt x="274" y="79" on="1"/>
        <pt x="274" y="1339" on="1"/>
        <pt x="99" y="1339" on="1"/>
        <pt x="99" y="1417" on="1"/>
        <pt x="1138" y="1417" on="1"/>
        <pt x="1138" y="1339" on="1"/>
        <pt x="964" y="1339" on="1"/>
        <pt x="964" y="79" on="1"/>
        <pt x="1138" y="79" on="1"/>
        <pt x="1138" y="0" on="1"/>
        <pt x="99" y="0" on="1"/>
      </contour>
    </TTGlyph>
    <TTGlyph name="Igrave" xMin="99" yMin="0" xMax="1138" yMax="1937">
      <contour>
        <pt x="272" y="1666" on="1"/>
        <pt x="228" y="1683" on="0"/>
        <pt x="187" y="1750" on="0"/>
        <pt x="187" y="1788" on="1"/>
        <pt x="187" y="1816" on="0"/>
        <pt x="207" y="1870" on="0"/>
        <pt x="243" y="1912" on="0"/>
        <pt x="292" y="1937" on="0"/>
        <pt x="321" y="1937" on="1"/>
        <pt x="335" y="1937" on="0"/>
        <pt x="362" y="1932" on="0"/>
        <pt x="375" y="1927" on="1"/>
        <pt x="390" y="1920" on="0"/>
        <pt x="451" y="1888" on="0"/>
        <pt x="530" y="1844" on="0"/>
        <pt x="622" y="1792" on="0"/>
        <pt x="714" y="1738" on="0"/>
        <pt x="800" y="1687" on="0"/>
        <pt x="835" y="1667" on="1"/>
        <pt x="869" y="1647" on="0"/>
        <pt x="915" y="1620" on="0"/>
        <pt x="921" y="1617" on="1"/>
        <pt x="897" y="1548" on="1"/>
        <pt x="889" y="1550" on="0"/>
        <pt x="827" y="1560" on="0"/>
        <pt x="781" y="1568" on="1"/>
        <pt x="740" y="1575" on="0"/>
        <pt x="640" y="1591" on="0"/>
        <pt x="537" y="1609" on="0"/>
        <pt x="436" y="1628" on="0"/>
        <pt x="350" y="1645" on="0"/>
        <pt x="286" y="1660" on="0"/>
      </contour>
      <contour>
        <pt x="99" y="79" on="1"/>
        <pt x="274" y="79" on="1"/>
        <pt x="274" y="1339" on="1"/>
        <pt x="99" y="1339" on="1"/>
        <pt x="99" y="1417" on="1"/>
        <pt x="1138" y="1417" on="1"/>
        <pt x="1138" y="1339" on="1"/>
        <pt x="964" y="1339" on="1"/>
        <pt x="964" y="79" on="1"/>
        <pt x="1138" y="79" on="1"/>
        <pt x="1138" y="0" on="1"/>
        <pt x="99" y="0" on="1"/>
      </contour>
    </TTGlyph>
    <TTGlyph name="Itilde" xMin="96" yMin="0" xMax="1148" yMax="1890">
      <contour>
        <pt x="96" y="1596" on="1"/>
        <pt x="102" y="1661" on="0"/>
        <pt x="147" y="1769" on="0"/>
        <pt x="220" y="1847" on="0"/>
        <pt x="322" y="1890" on="0"/>
        <pt x="385" y="1890" on="1"/>
        <pt x="445" y="1890" on="0"/>
        <pt x="572" y="1850" on="0"/>
        <pt x="638" y="1825" on="1"/>
        <pt x="701" y="1802" on="0"/>
        <pt x="825" y="1765" on="0"/>
        <pt x="885" y="1765" on="1"/>
        <pt x="941" y="1765" on="0"/>
        <pt x="1045" y="1809" on="0"/>
        <pt x="1093" y="1866" on="1"/>
        <pt x="1148" y="1831" on="1"/>
        <pt x="1142" y="1766" on="0"/>
        <pt x="1097" y="1658" on="0"/>
        <pt x="1024" y="1580" on="0"/>
        <pt x="922" y="1537" on="0"/>
        <pt x="859" y="1537" on="1"/>
        <pt x="805" y="1537" on="0"/>
        <pt x="688" y="1571" on="0"/>
        <pt x="628" y="1594" on="1"/>
        <pt x="560" y="1620" on="0"/>
        <pt x="425" y="1662" on="0"/>
        <pt x="359" y="1662" on="1"/>
        <pt x="302" y="1662" on="0"/>
        <pt x="198" y="1618" on="0"/>
        <pt x="151" y="1561" on="1"/>
      </contour>
      <contour>
        <pt x="99" y="79" on="1"/>
        <pt x="274" y="79" on="1"/>
        <pt x="274" y="1339" on="1"/>
        <pt x="99" y="1339" on="1"/>
        <pt x="99" y="1417" on="1"/>
        <pt x="1138" y="1417" on="1"/>
        <pt x="1138" y="1339" on="1"/>
        <pt x="964" y="1339" on="1"/>
        <pt x="964" y="79" on="1"/>
        <pt x="1138" y="79" on="1"/>
        <pt x="1138" y="0" on="1"/>
        <pt x="99" y="0" on="1"/>
      </contour>
    </TTGlyph>
    <TTGlyph name="J" xMin="-24" yMin="-38" xMax="1252" yMax="1417">
      <contour>
        <pt x="-24" y="240" on="1"/>
        <pt x="-24" y="279" on="0"/>
        <pt x="11" y="348" on="0"/>
        <pt x="74" y="399" on="0"/>
        <pt x="161" y="429" on="0"/>
        <pt x="212" y="429" on="1"/>
        <pt x="264" y="429" on="0"/>
        <pt x="351" y="399" on="0"/>
        <pt x="413" y="348" on="0"/>
        <pt x="447" y="279" on="0"/>
        <pt x="447" y="240" on="1"/>
        <pt x="447" y="178" on="0"/>
        <pt x="365" y="82" on="0"/>
        <pt x="295" y="62" on="1"/>
        <pt x="314" y="54" on="0"/>
        <pt x="361" y="46" on="0"/>
        <pt x="382" y="46" on="1"/>
        <pt x="423" y="46" on="0"/>
        <pt x="480" y="77" on="0"/>
        <pt x="516" y="129" on="0"/>
        <pt x="532" y="198" on="0"/>
        <pt x="532" y="237" on="1"/>
        <pt x="532" y="284" on="0"/>
        <pt x="489" y="390" on="0"/>
        <pt x="463" y="444" on="1"/>
        <pt x="434" y="502" on="0"/>
        <pt x="387" y="613" on="0"/>
        <pt x="387" y="660" on="1"/>
        <pt x="387" y="1339" on="1"/>
        <pt x="212" y="1339" on="1"/>
        <pt x="212" y="1417" on="1"/>
        <pt x="1252" y="1417" on="1"/>
        <pt x="1252" y="1339" on="1"/>
        <pt x="1077" y="1339" on="1"/>
        <pt x="1077" y="417" on="1"/>
        <pt x="1077" y="283" on="0"/>
        <pt x="1012" y="108" on="0"/>
        <pt x="883" y="4" on="0"/>
        <pt x="690" y="-38" on="0"/>
        <pt x="561" y="-38" on="1"/>
        <pt x="443" y="-38" on="0"/>
        <pt x="231" y="0" on="0"/>
        <pt x="70" y="72" on="0"/>
        <pt x="-24" y="175" on="0"/>
      </contour>
    </TTGlyph>
    <TTGlyph name="Jcircumflex" xMin="-24" yMin="-38" xMax="1252" yMax="1937">
      <contour>
        <pt x="228" y="1580" on="1"/>
        <pt x="725" y="1937" on="1"/>
        <pt x="1222" y="1580" on="1"/>
        <pt x="1164" y="1504" on="1"/>
        <pt x="725" y="1652" on="1"/>
        <pt x="285" y="1504" on="1"/>
      </contour>
      <contour>
        <pt x="-24" y="240" on="1"/>
        <pt x="-24" y="279" on="0"/>
        <pt x="11" y="348" on="0"/>
        <pt x="74" y="399" on="0"/>
        <pt x="161" y="429" on="0"/>
        <pt x="212" y="429" on="1"/>
        <pt x="264" y="429" on="0"/>
        <pt x="351" y="399" on="0"/>
        <pt x="413" y="348" on="0"/>
        <pt x="447" y="279" on="0"/>
        <pt x="447" y="240" on="1"/>
        <pt x="447" y="178" on="0"/>
        <pt x="365" y="82" on="0"/>
        <pt x="295" y="62" on="1"/>
        <pt x="314" y="54" on="0"/>
        <pt x="361" y="46" on="0"/>
        <pt x="382" y="46" on="1"/>
        <pt x="423" y="46" on="0"/>
        <pt x="480" y="77" on="0"/>
        <pt x="516" y="129" on="0"/>
        <pt x="532" y="198" on="0"/>
        <pt x="532" y="237" on="1"/>
        <pt x="532" y="284" on="0"/>
        <pt x="489" y="390" on="0"/>
        <pt x="463" y="444" on="1"/>
        <pt x="434" y="502" on="0"/>
        <pt x="387" y="613" on="0"/>
        <pt x="387" y="660" on="1"/>
        <pt x="387" y="1339" on="1"/>
        <pt x="212" y="1339" on="1"/>
        <pt x="212" y="1417" on="1"/>
        <pt x="1252" y="1417" on="1"/>
        <pt x="1252" y="1339" on="1"/>
        <pt x="1077" y="1339" on="1"/>
        <pt x="1077" y="417" on="1"/>
        <pt x="1077" y="283" on="0"/>
        <pt x="1012" y="108" on="0"/>
        <pt x="883" y="4" on="0"/>
        <pt x="690" y="-38" on="0"/>
        <pt x="561" y="-38" on="1"/>
        <pt x="443" y="-38" on="0"/>
        <pt x="231" y="0" on="0"/>
        <pt x="70" y="72" on="0"/>
        <pt x="-24" y="175" on="0"/>
      </contour>
    </TTGlyph>
    <TTGlyph name="K" xMin="99" yMin="0" xMax="2083" yMax="1417">
      <contour>
        <pt x="99" y="79" on="1"/>
        <pt x="274" y="79" on="1"/>
        <pt x="274" y="1339" on="1"/>
        <pt x="99" y="1339" on="1"/>
        <pt x="99" y="1417" on="1"/>
        <pt x="1138" y="1417" on="1"/>
        <pt x="1138" y="1339" on="1"/>
        <pt x="964" y="1339" on="1"/>
        <pt x="964" y="713" on="1"/>
        <pt x="1561" y="1280" on="1"/>
        <pt x="1566" y="1285" on="0"/>
        <pt x="1568" y="1290" on="0"/>
        <pt x="1568" y="1294" on="1"/>
        <pt x="1568" y="1307" on="0"/>
        <pt x="1521" y="1325" on="0"/>
        <pt x="1451" y="1335" on="0"/>
        <pt x="1370" y="1339" on="0"/>
        <pt x="1335" y="1339" on="1"/>
        <pt x="1335" y="1417" on="1"/>
        <pt x="1951" y="1417" on="1"/>
        <pt x="1951" y="1339" on="1"/>
        <pt x="1889" y="1339" on="0"/>
        <pt x="1803" y="1333" on="0"/>
        <pt x="1742" y="1318" on="0"/>
        <pt x="1700" y="1295" on="0"/>
        <pt x="1681" y="1277" on="1"/>
        <pt x="1481" y="1087" on="1"/>
        <pt x="1956" y="79" on="1"/>
        <pt x="2083" y="79" on="1"/>
        <pt x="2083" y="0" on="1"/>
        <pt x="1148" y="0" on="1"/>
        <pt x="1148" y="79" on="1"/>
        <pt x="1247" y="79" on="1"/>
        <pt x="1009" y="637" on="1"/>
        <pt x="964" y="594" on="1"/>
        <pt x="964" y="79" on="1"/>
        <pt x="1063" y="79" on="1"/>
        <pt x="1063" y="0" on="1"/>
        <pt x="99" y="0" on="1"/>
      </contour>
    </TTGlyph>
    <TTGlyph name="L" xMin="99" yMin="0" xMax="1601" yMax="1417">
      <contour>
        <pt x="99" y="79" on="1"/>
        <pt x="274" y="79" on="1"/>
        <pt x="274" y="1339" on="1"/>
        <pt x="99" y="1339" on="1"/>
        <pt x="99" y="1417" on="1"/>
        <pt x="1138" y="1417" on="1"/>
        <pt x="1138" y="1339" on="1"/>
        <pt x="964" y="1339" on="1"/>
        <pt x="964" y="79" on="1"/>
        <pt x="1282" y="79" on="1"/>
        <pt x="1533" y="534" on="1"/>
        <pt x="1601" y="534" on="1"/>
        <pt x="1601" y="0" on="1"/>
        <pt x="99" y="0" on="1"/>
      </contour>
    </TTGlyph>
    <TTGlyph name="Lslash" xMin="99" yMin="0" xMax="1601" yMax="1417">
      <contour>
        <pt x="99" y="79" on="1"/>
        <pt x="274" y="79" on="1"/>
        <pt x="274" y="574" on="1"/>
        <pt x="112" y="526" on="1"/>
        <pt x="112" y="637" on="1"/>
        <pt x="274" y="685" on="1"/>
        <pt x="274" y="1339" on="1"/>
        <pt x="99" y="1339" on="1"/>
        <pt x="99" y="1417" on="1"/>
        <pt x="1138" y="1417" on="1"/>
        <pt x="1138" y="1339" on="1"/>
        <pt x="964" y="1339" on="1"/>
        <pt x="964" y="879" on="1"/>
        <pt x="1477" y="1031" on="1"/>
        <pt x="1477" y="920" on="1"/>
        <pt x="964" y="768" on="1"/>
        <pt x="964" y="79" on="1"/>
        <pt x="1282" y="79" on="1"/>
        <pt x="1533" y="534" on="1"/>
        <pt x="1601" y="534" on="1"/>
        <pt x="1601" y="0" on="1"/>
        <pt x="99" y="0" on="1"/>
      </contour>
    </TTGlyph>
    <TTGlyph name="M" xMin="94" yMin="0" xMax="2110" yMax="1417">
      <contour>
        <pt x="94" y="79" on="1"/>
        <pt x="181" y="79" on="0"/>
        <pt x="269" y="98" on="0"/>
        <pt x="269" y="136" on="1"/>
        <pt x="269" y="1339" on="1"/>
        <pt x="94" y="1339" on="1"/>
        <pt x="94" y="1417" on="1"/>
        <pt x="896" y="1417" on="1"/>
        <pt x="1080" y="825" on="1"/>
        <pt x="1274" y="1417" on="1"/>
        <pt x="2110" y="1417" on="1"/>
        <pt x="2110" y="1339" on="1"/>
        <pt x="1935" y="1339" on="1"/>
        <pt x="1935" y="79" on="1"/>
        <pt x="2110" y="79" on="1"/>
        <pt x="2110" y="0" on="1"/>
        <pt x="1099" y="0" on="1"/>
        <pt x="1099" y="79" on="1"/>
        <pt x="1274" y="79" on="1"/>
        <pt x="1274" y="1129" on="1"/>
        <pt x="905" y="0" on="1"/>
        <pt x="721" y="0" on="1"/>
        <pt x="354" y="1116" on="1"/>
        <pt x="354" y="141" on="1"/>
        <pt x="354" y="99" on="0"/>
        <pt x="441" y="79" on="0"/>
        <pt x="529" y="79" on="1"/>
        <pt x="529" y="0" on="1"/>
        <pt x="94" y="0" on="1"/>
      </contour>
    </TTGlyph>
    <TTGlyph name="N" xMin="28" yMin="0" xMax="1814" yMax="1417">
      <contour>
        <pt x="46" y="79" on="1"/>
        <pt x="89" y="79" on="0"/>
        <pt x="170" y="84" on="0"/>
        <pt x="232" y="96" on="0"/>
        <pt x="269" y="118" on="0"/>
        <pt x="269" y="136" on="1"/>
        <pt x="269" y="1179" on="1"/>
        <pt x="147" y="1339" on="1"/>
        <pt x="28" y="1339" on="1"/>
        <pt x="28" y="1417" on="1"/>
        <pt x="902" y="1417" on="1"/>
        <pt x="1545" y="570" on="1"/>
        <pt x="1545" y="1280" on="1"/>
        <pt x="1545" y="1298" on="0"/>
        <pt x="1520" y="1321" on="0"/>
        <pt x="1472" y="1334" on="0"/>
        <pt x="1404" y="1339" on="0"/>
        <pt x="1361" y="1339" on="1"/>
        <pt x="1361" y="1417" on="1"/>
        <pt x="1814" y="1417" on="1"/>
        <pt x="1814" y="1339" on="1"/>
        <pt x="1728" y="1339" on="0"/>
        <pt x="1630" y="1317" on="0"/>
        <pt x="1630" y="1280" on="1"/>
        <pt x="1630" y="0" on="1"/>
        <pt x="1123" y="0" on="1"/>
        <pt x="354" y="1067" on="1"/>
        <pt x="354" y="141" on="1"/>
        <pt x="354" y="121" on="0"/>
        <pt x="387" y="97" on="0"/>
        <pt x="444" y="84" on="0"/>
        <pt x="522" y="79" on="0"/>
        <pt x="566" y="79" on="1"/>
        <pt x="566" y="0" on="1"/>
        <pt x="46" y="0" on="1"/>
      </contour>
    </TTGlyph>
    <TTGlyph name="Nacute" xMin="28" yMin="0" xMax="1814" yMax="1937">
      <contour>
        <pt x="713" y="1617" on="1"/>
        <pt x="719" y="1620" on="0"/>
        <pt x="765" y="1647" on="0"/>
        <pt x="799" y="1667" on="1"/>
        <pt x="833" y="1687" on="0"/>
        <pt x="920" y="1738" on="0"/>
        <pt x="1012" y="1792" on="0"/>
        <pt x="1104" y="1844" on="0"/>
        <pt x="1183" y="1888" on="0"/>
        <pt x="1244" y="1920" on="0"/>
        <pt x="1259" y="1927" on="1"/>
        <pt x="1272" y="1932" on="0"/>
        <pt x="1299" y="1937" on="0"/>
        <pt x="1313" y="1937" on="1"/>
        <pt x="1341" y="1937" on="0"/>
        <pt x="1390" y="1912" on="0"/>
        <pt x="1426" y="1870" on="0"/>
        <pt x="1447" y="1816" on="0"/>
        <pt x="1447" y="1788" on="1"/>
        <pt x="1447" y="1750" on="0"/>
        <pt x="1406" y="1683" on="0"/>
        <pt x="1362" y="1666" on="1"/>
        <pt x="1348" y="1660" on="0"/>
        <pt x="1284" y="1645" on="0"/>
        <pt x="1198" y="1628" on="0"/>
        <pt x="1097" y="1609" on="0"/>
        <pt x="994" y="1591" on="0"/>
        <pt x="894" y="1575" on="0"/>
        <pt x="853" y="1568" on="1"/>
        <pt x="807" y="1560" on="0"/>
        <pt x="745" y="1550" on="0"/>
        <pt x="737" y="1548" on="1"/>
      </contour>
      <contour>
        <pt x="46" y="79" on="1"/>
        <pt x="89" y="79" on="0"/>
        <pt x="170" y="84" on="0"/>
        <pt x="232" y="96" on="0"/>
        <pt x="269" y="118" on="0"/>
        <pt x="269" y="136" on="1"/>
        <pt x="269" y="1179" on="1"/>
        <pt x="147" y="1339" on="1"/>
        <pt x="28" y="1339" on="1"/>
        <pt x="28" y="1417" on="1"/>
        <pt x="902" y="1417" on="1"/>
        <pt x="1545" y="570" on="1"/>
        <pt x="1545" y="1280" on="1"/>
        <pt x="1545" y="1298" on="0"/>
        <pt x="1520" y="1321" on="0"/>
        <pt x="1472" y="1334" on="0"/>
        <pt x="1404" y="1339" on="0"/>
        <pt x="1361" y="1339" on="1"/>
        <pt x="1361" y="1417" on="1"/>
        <pt x="1814" y="1417" on="1"/>
        <pt x="1814" y="1339" on="1"/>
        <pt x="1728" y="1339" on="0"/>
        <pt x="1630" y="1317" on="0"/>
        <pt x="1630" y="1280" on="1"/>
        <pt x="1630" y="0" on="1"/>
        <pt x="1123" y="0" on="1"/>
        <pt x="354" y="1067" on="1"/>
        <pt x="354" y="141" on="1"/>
        <pt x="354" y="121" on="0"/>
        <pt x="387" y="97" on="0"/>
        <pt x="444" y="84" on="0"/>
        <pt x="522" y="79" on="0"/>
        <pt x="566" y="79" on="1"/>
        <pt x="566" y="0" on="1"/>
        <pt x="46" y="0" on="1"/>
      </contour>
    </TTGlyph>
    <TTGlyph name="Ntilde" xMin="28" yMin="0" xMax="1814" yMax="1890">
      <contour>
        <pt x="488" y="1596" on="1"/>
        <pt x="494" y="1661" on="0"/>
        <pt x="539" y="1769" on="0"/>
        <pt x="612" y="1847" on="0"/>
        <pt x="714" y="1890" on="0"/>
        <pt x="777" y="1890" on="1"/>
        <pt x="837" y="1890" on="0"/>
        <pt x="964" y="1850" on="0"/>
        <pt x="1030" y="1825" on="1"/>
        <pt x="1093" y="1802" on="0"/>
        <pt x="1217" y="1765" on="0"/>
        <pt x="1277" y="1765" on="1"/>
        <pt x="1333" y="1765" on="0"/>
        <pt x="1437" y="1809" on="0"/>
        <pt x="1485" y="1866" on="1"/>
        <pt x="1540" y="1831" on="1"/>
        <pt x="1534" y="1766" on="0"/>
        <pt x="1489" y="1658" on="0"/>
        <pt x="1416" y="1580" on="0"/>
        <pt x="1314" y="1537" on="0"/>
        <pt x="1251" y="1537" on="1"/>
        <pt x="1197" y="1537" on="0"/>
        <pt x="1080" y="1571" on="0"/>
        <pt x="1020" y="1594" on="1"/>
        <pt x="952" y="1620" on="0"/>
        <pt x="817" y="1662" on="0"/>
        <pt x="751" y="1662" on="1"/>
        <pt x="694" y="1662" on="0"/>
        <pt x="590" y="1618" on="0"/>
        <pt x="543" y="1561" on="1"/>
      </contour>
      <contour>
        <pt x="46" y="79" on="1"/>
        <pt x="89" y="79" on="0"/>
        <pt x="170" y="84" on="0"/>
        <pt x="232" y="96" on="0"/>
        <pt x="269" y="118" on="0"/>
        <pt x="269" y="136" on="1"/>
        <pt x="269" y="1179" on="1"/>
        <pt x="147" y="1339" on="1"/>
        <pt x="28" y="1339" on="1"/>
        <pt x="28" y="1417" on="1"/>
        <pt x="902" y="1417" on="1"/>
        <pt x="1545" y="570" on="1"/>
        <pt x="1545" y="1280" on="1"/>
        <pt x="1545" y="1298" on="0"/>
        <pt x="1520" y="1321" on="0"/>
        <pt x="1472" y="1334" on="0"/>
        <pt x="1404" y="1339" on="0"/>
        <pt x="1361" y="1339" on="1"/>
        <pt x="1361" y="1417" on="1"/>
        <pt x="1814" y="1417" on="1"/>
        <pt x="1814" y="1339" on="1"/>
        <pt x="1728" y="1339" on="0"/>
        <pt x="1630" y="1317" on="0"/>
        <pt x="1630" y="1280" on="1"/>
        <pt x="1630" y="0" on="1"/>
        <pt x="1123" y="0" on="1"/>
        <pt x="354" y="1067" on="1"/>
        <pt x="354" y="141" on="1"/>
        <pt x="354" y="121" on="0"/>
        <pt x="387" y="97" on="0"/>
        <pt x="444" y="84" on="0"/>
        <pt x="522" y="79" on="0"/>
        <pt x="566" y="79" on="1"/>
        <pt x="566" y="0" on="1"/>
        <pt x="46" y="0" on="1"/>
      </contour>
    </TTGlyph>
    <TTGlyph name="O" xMin="118" yMin="-38" xMax="1832" yMax="1455">
      <contour>
        <pt x="118" y="709" on="1"/>
        <pt x="118" y="808" on="0"/>
        <pt x="159" y="996" on="0"/>
        <pt x="246" y="1162" on="0"/>
        <pt x="382" y="1300" on="0"/>
        <pt x="572" y="1400" on="0"/>
        <pt x="820" y="1455" on="0"/>
        <pt x="975" y="1455" on="1"/>
        <pt x="1130" y="1455" on="0"/>
        <pt x="1378" y="1400" on="0"/>
        <pt x="1569" y="1300" on="0"/>
        <pt x="1705" y="1162" on="0"/>
        <pt x="1791" y="996" on="0"/>
        <pt x="1832" y="808" on="0"/>
        <pt x="1832" y="709" on="1"/>
        <pt x="1832" y="610" on="0"/>
        <pt x="1791" y="421" on="0"/>
        <pt x="1705" y="255" on="0"/>
        <pt x="1569" y="117" on="0"/>
        <pt x="1378" y="17" on="0"/>
        <pt x="1130" y="-38" on="0"/>
        <pt x="975" y="-38" on="1"/>
        <pt x="820" y="-38" on="0"/>
        <pt x="572" y="17" on="0"/>
        <pt x="382" y="117" on="0"/>
        <pt x="246" y="255" on="0"/>
        <pt x="159" y="421" on="0"/>
        <pt x="118" y="609" on="0"/>
      </contour>
      <contour>
        <pt x="975" y="31" on="1"/>
        <pt x="1027" y="31" on="0"/>
        <pt x="1096" y="93" on="0"/>
        <pt x="1138" y="248" on="0"/>
        <pt x="1155" y="509" on="0"/>
        <pt x="1155" y="709" on="1"/>
        <pt x="1155" y="908" on="0"/>
        <pt x="1138" y="1169" on="0"/>
        <pt x="1096" y="1324" on="0"/>
        <pt x="1027" y="1386" on="0"/>
        <pt x="975" y="1386" on="1"/>
        <pt x="923" y="1386" on="0"/>
        <pt x="854" y="1324" on="0"/>
        <pt x="813" y="1169" on="0"/>
        <pt x="796" y="908" on="0"/>
        <pt x="796" y="709" on="1"/>
        <pt x="796" y="509" on="0"/>
        <pt x="813" y="248" on="0"/>
        <pt x="854" y="93" on="0"/>
        <pt x="923" y="31" on="0"/>
      </contour>
    </TTGlyph>
    <TTGlyph name="OE" xMin="118" yMin="0" xMax="2487" yMax="1417">
      <contour>
        <pt x="118" y="709" on="1"/>
        <pt x="118" y="858" on="0"/>
        <pt x="211" y="1117" on="0"/>
        <pt x="416" y="1308" on="0"/>
        <pt x="742" y="1417" on="0"/>
        <pt x="975" y="1417" on="1"/>
        <pt x="2439" y="1417" on="1"/>
        <pt x="2439" y="930" on="1"/>
        <pt x="2371" y="930" on="1"/>
        <pt x="2093" y="1339" on="1"/>
        <pt x="1755" y="1339" on="1"/>
        <pt x="1755" y="744" on="1"/>
        <pt x="1906" y="744" on="1"/>
        <pt x="2038" y="1074" on="1"/>
        <pt x="2103" y="1074" on="1"/>
        <pt x="2103" y="334" on="1"/>
        <pt x="2038" y="334" on="1"/>
        <pt x="1906" y="666" on="1"/>
        <pt x="1755" y="666" on="1"/>
        <pt x="1755" y="79" on="1"/>
        <pt x="2128" y="79" on="1"/>
        <pt x="2418" y="534" on="1"/>
        <pt x="2487" y="534" on="1"/>
        <pt x="2487" y="0" on="1"/>
        <pt x="975" y="0" on="1"/>
        <pt x="742" y="0" on="0"/>
        <pt x="416" y="110" on="0"/>
        <pt x="211" y="301" on="0"/>
        <pt x="118" y="560" on="0"/>
      </contour>
      <contour>
        <pt x="945" y="69" on="1"/>
        <pt x="980" y="69" on="0"/>
        <pt x="1033" y="90" on="0"/>
        <pt x="1073" y="143" on="0"/>
        <pt x="1101" y="236" on="0"/>
        <pt x="1118" y="378" on="0"/>
        <pt x="1125" y="576" on="0"/>
        <pt x="1125" y="709" on="1"/>
        <pt x="1125" y="842" on="0"/>
        <pt x="1118" y="1040" on="0"/>
        <pt x="1101" y="1182" on="0"/>
        <pt x="1073" y="1274" on="0"/>
        <pt x="1033" y="1327" on="0"/>
        <pt x="980" y="1348" on="0"/>
        <pt x="945" y="1348" on="1"/>
        <pt x="910" y="1348" on="0"/>
        <pt x="857" y="1327" on="0"/>
        <pt x="817" y="1274" on="0"/>
        <pt x="790" y="1182" on="0"/>
        <pt x="773" y="1040" on="0"/>
        <pt x="766" y="842" on="0"/>
        <pt x="766" y="709" on="1"/>
        <pt x="766" y="576" on="0"/>
        <pt x="773" y="378" on="0"/>
        <pt x="790" y="236" on="0"/>
        <pt x="817" y="143" on="0"/>
        <pt x="857" y="90" on="0"/>
        <pt x="910" y="69" on="0"/>
      </contour>
    </TTGlyph>
    <TTGlyph name="Oacute" xMin="118" yMin="-38" xMax="1832" yMax="1937">
      <contour>
        <pt x="675" y="1617" on="1"/>
        <pt x="681" y="1620" on="0"/>
        <pt x="727" y="1647" on="0"/>
        <pt x="761" y="1667" on="1"/>
        <pt x="795" y="1687" on="0"/>
        <pt x="882" y="1738" on="0"/>
        <pt x="974" y="1792" on="0"/>
        <pt x="1066" y="1844" on="0"/>
        <pt x="1145" y="1888" on="0"/>
        <pt x="1206" y="1920" on="0"/>
        <pt x="1221" y="1927" on="1"/>
        <pt x="1234" y="1932" on="0"/>
        <pt x="1261" y="1937" on="0"/>
        <pt x="1275" y="1937" on="1"/>
        <pt x="1303" y="1937" on="0"/>
        <pt x="1352" y="1912" on="0"/>
        <pt x="1388" y="1870" on="0"/>
        <pt x="1409" y="1816" on="0"/>
        <pt x="1409" y="1788" on="1"/>
        <pt x="1409" y="1750" on="0"/>
        <pt x="1368" y="1683" on="0"/>
        <pt x="1324" y="1666" on="1"/>
        <pt x="1309" y="1660" on="0"/>
        <pt x="1246" y="1645" on="0"/>
        <pt x="1160" y="1628" on="0"/>
        <pt x="1059" y="1609" on="0"/>
        <pt x="956" y="1591" on="0"/>
        <pt x="856" y="1575" on="0"/>
        <pt x="815" y="1568" on="1"/>
        <pt x="769" y="1560" on="0"/>
        <pt x="707" y="1550" on="0"/>
        <pt x="699" y="1548" on="1"/>
      </contour>
      <contour>
        <pt x="118" y="709" on="1"/>
        <pt x="118" y="808" on="0"/>
        <pt x="159" y="996" on="0"/>
        <pt x="246" y="1162" on="0"/>
        <pt x="382" y="1300" on="0"/>
        <pt x="572" y="1400" on="0"/>
        <pt x="820" y="1455" on="0"/>
        <pt x="975" y="1455" on="1"/>
        <pt x="1130" y="1455" on="0"/>
        <pt x="1378" y="1400" on="0"/>
        <pt x="1569" y="1300" on="0"/>
        <pt x="1705" y="1162" on="0"/>
        <pt x="1791" y="996" on="0"/>
        <pt x="1832" y="808" on="0"/>
        <pt x="1832" y="709" on="1"/>
        <pt x="1832" y="610" on="0"/>
        <pt x="1791" y="421" on="0"/>
        <pt x="1705" y="255" on="0"/>
        <pt x="1569" y="117" on="0"/>
        <pt x="1378" y="17" on="0"/>
        <pt x="1130" y="-38" on="0"/>
        <pt x="975" y="-38" on="1"/>
        <pt x="820" y="-38" on="0"/>
        <pt x="572" y="17" on="0"/>
        <pt x="382" y="117" on="0"/>
        <pt x="246" y="255" on="0"/>
        <pt x="159" y="421" on="0"/>
        <pt x="118" y="609" on="0"/>
      </contour>
      <contour>
        <pt x="975" y="31" on="1"/>
        <pt x="1027" y="31" on="0"/>
        <pt x="1096" y="93" on="0"/>
        <pt x="1138" y="248" on="0"/>
        <pt x="1155" y="509" on="0"/>
        <pt x="1155" y="709" on="1"/>
        <pt x="1155" y="908" on="0"/>
        <pt x="1138" y="1169" on="0"/>
        <pt x="1096" y="1324" on="0"/>
        <pt x="1027" y="1386" on="0"/>
        <pt x="975" y="1386" on="1"/>
        <pt x="923" y="1386" on="0"/>
        <pt x="854" y="1324" on="0"/>
        <pt x="813" y="1169" on="0"/>
        <pt x="796" y="908" on="0"/>
        <pt x="796" y="709" on="1"/>
        <pt x="796" y="509" on="0"/>
        <pt x="813" y="248" on="0"/>
        <pt x="854" y="93" on="0"/>
        <pt x="923" y="31" on="0"/>
      </contour>
    </TTGlyph>
    <TTGlyph name="Ocircumflex" xMin="118" yMin="-38" xMax="1832" yMax="1937">
      <contour>
        <pt x="478" y="1580" on="1"/>
        <pt x="975" y="1937" on="1"/>
        <pt x="1472" y="1580" on="1"/>
        <pt x="1414" y="1504" on="1"/>
        <pt x="975" y="1652" on="1"/>
        <pt x="535" y="1504" on="1"/>
      </contour>
      <contour>
        <pt x="118" y="709" on="1"/>
        <pt x="118" y="808" on="0"/>
        <pt x="159" y="996" on="0"/>
        <pt x="246" y="1162" on="0"/>
        <pt x="382" y="1300" on="0"/>
        <pt x="572" y="1400" on="0"/>
        <pt x="820" y="1455" on="0"/>
        <pt x="975" y="1455" on="1"/>
        <pt x="1130" y="1455" on="0"/>
        <pt x="1378" y="1400" on="0"/>
        <pt x="1569" y="1300" on="0"/>
        <pt x="1705" y="1162" on="0"/>
        <pt x="1791" y="996" on="0"/>
        <pt x="1832" y="808" on="0"/>
        <pt x="1832" y="709" on="1"/>
        <pt x="1832" y="610" on="0"/>
        <pt x="1791" y="421" on="0"/>
        <pt x="1705" y="255" on="0"/>
        <pt x="1569" y="117" on="0"/>
        <pt x="1378" y="17" on="0"/>
        <pt x="1130" y="-38" on="0"/>
        <pt x="975" y="-38" on="1"/>
        <pt x="820" y="-38" on="0"/>
        <pt x="572" y="17" on="0"/>
        <pt x="382" y="117" on="0"/>
        <pt x="246" y="255" on="0"/>
        <pt x="159" y="421" on="0"/>
        <pt x="118" y="609" on="0"/>
      </contour>
      <contour>
        <pt x="975" y="31" on="1"/>
        <pt x="1027" y="31" on="0"/>
        <pt x="1096" y="93" on="0"/>
        <pt x="1138" y="248" on="0"/>
        <pt x="1155" y="509" on="0"/>
        <pt x="1155" y="709" on="1"/>
        <pt x="1155" y="908" on="0"/>
        <pt x="1138" y="1169" on="0"/>
        <pt x="1096" y="1324" on="0"/>
        <pt x="1027" y="1386" on="0"/>
        <pt x="975" y="1386" on="1"/>
        <pt x="923" y="1386" on="0"/>
        <pt x="854" y="1324" on="0"/>
        <pt x="813" y="1169" on="0"/>
        <pt x="796" y="908" on="0"/>
        <pt x="796" y="709" on="1"/>
        <pt x="796" y="509" on="0"/>
        <pt x="813" y="248" on="0"/>
        <pt x="854" y="93" on="0"/>
        <pt x="923" y="31" on="0"/>
      </contour>
    </TTGlyph>
    <TTGlyph name="Odieresis" xMin="118" yMin="-38" xMax="1832" yMax="1872">
      <contour>
        <pt x="1262" y="1523" on="1"/>
        <pt x="1225" y="1523" on="0"/>
        <pt x="1161" y="1550" on="0"/>
        <pt x="1114" y="1598" on="0"/>
        <pt x="1087" y="1661" on="0"/>
        <pt x="1087" y="1697" on="1"/>
        <pt x="1087" y="1733" on="0"/>
        <pt x="1114" y="1797" on="0"/>
        <pt x="1161" y="1845" on="0"/>
        <pt x="1225" y="1872" on="0"/>
        <pt x="1262" y="1872" on="1"/>
        <pt x="1298" y="1872" on="0"/>
        <pt x="1361" y="1845" on="0"/>
        <pt x="1409" y="1797" on="0"/>
        <pt x="1436" y="1733" on="0"/>
        <pt x="1436" y="1697" on="1"/>
        <pt x="1436" y="1661" on="0"/>
        <pt x="1409" y="1598" on="0"/>
        <pt x="1361" y="1550" on="0"/>
        <pt x="1298" y="1523" on="0"/>
      </contour>
      <contour>
        <pt x="690" y="1523" on="1"/>
        <pt x="654" y="1523" on="0"/>
        <pt x="590" y="1550" on="0"/>
        <pt x="542" y="1598" on="0"/>
        <pt x="515" y="1661" on="0"/>
        <pt x="515" y="1697" on="1"/>
        <pt x="515" y="1733" on="0"/>
        <pt x="542" y="1797" on="0"/>
        <pt x="590" y="1845" on="0"/>
        <pt x="654" y="1872" on="0"/>
        <pt x="690" y="1872" on="1"/>
        <pt x="726" y="1872" on="0"/>
        <pt x="790" y="1845" on="0"/>
        <pt x="837" y="1797" on="0"/>
        <pt x="864" y="1733" on="0"/>
        <pt x="864" y="1697" on="1"/>
        <pt x="864" y="1661" on="0"/>
        <pt x="837" y="1598" on="0"/>
        <pt x="790" y="1550" on="0"/>
        <pt x="726" y="1523" on="0"/>
      </contour>
      <contour>
        <pt x="118" y="709" on="1"/>
        <pt x="118" y="808" on="0"/>
        <pt x="159" y="996" on="0"/>
        <pt x="246" y="1162" on="0"/>
        <pt x="382" y="1300" on="0"/>
        <pt x="572" y="1400" on="0"/>
        <pt x="820" y="1455" on="0"/>
        <pt x="975" y="1455" on="1"/>
        <pt x="1130" y="1455" on="0"/>
        <pt x="1378" y="1400" on="0"/>
        <pt x="1569" y="1300" on="0"/>
        <pt x="1705" y="1162" on="0"/>
        <pt x="1791" y="996" on="0"/>
        <pt x="1832" y="808" on="0"/>
        <pt x="1832" y="709" on="1"/>
        <pt x="1832" y="610" on="0"/>
        <pt x="1791" y="421" on="0"/>
        <pt x="1705" y="255" on="0"/>
        <pt x="1569" y="117" on="0"/>
        <pt x="1378" y="17" on="0"/>
        <pt x="1130" y="-38" on="0"/>
        <pt x="975" y="-38" on="1"/>
        <pt x="820" y="-38" on="0"/>
        <pt x="572" y="17" on="0"/>
        <pt x="382" y="117" on="0"/>
        <pt x="246" y="255" on="0"/>
        <pt x="159" y="421" on="0"/>
        <pt x="118" y="609" on="0"/>
      </contour>
      <contour>
        <pt x="975" y="31" on="1"/>
        <pt x="1027" y="31" on="0"/>
        <pt x="1096" y="93" on="0"/>
        <pt x="1138" y="248" on="0"/>
        <pt x="1155" y="509" on="0"/>
        <pt x="1155" y="709" on="1"/>
        <pt x="1155" y="908" on="0"/>
        <pt x="1138" y="1169" on="0"/>
        <pt x="1096" y="1324" on="0"/>
        <pt x="1027" y="1386" on="0"/>
        <pt x="975" y="1386" on="1"/>
        <pt x="923" y="1386" on="0"/>
        <pt x="854" y="1324" on="0"/>
        <pt x="813" y="1169" on="0"/>
        <pt x="796" y="908" on="0"/>
        <pt x="796" y="709" on="1"/>
        <pt x="796" y="509" on="0"/>
        <pt x="813" y="248" on="0"/>
        <pt x="854" y="93" on="0"/>
        <pt x="923" y="31" on="0"/>
      </contour>
    </TTGlyph>
    <TTGlyph name="Ograve" xMin="118" yMin="-38" xMax="1832" yMax="1937">
      <contour>
        <pt x="626" y="1666" on="1"/>
        <pt x="582" y="1683" on="0"/>
        <pt x="541" y="1750" on="0"/>
        <pt x="541" y="1788" on="1"/>
        <pt x="541" y="1816" on="0"/>
        <pt x="561" y="1870" on="0"/>
        <pt x="597" y="1912" on="0"/>
        <pt x="646" y="1937" on="0"/>
        <pt x="675" y="1937" on="1"/>
        <pt x="689" y="1937" on="0"/>
        <pt x="716" y="1932" on="0"/>
        <pt x="729" y="1927" on="1"/>
        <pt x="744" y="1920" on="0"/>
        <pt x="805" y="1888" on="0"/>
        <pt x="884" y="1844" on="0"/>
        <pt x="976" y="1792" on="0"/>
        <pt x="1068" y="1738" on="0"/>
        <pt x="1154" y="1687" on="0"/>
        <pt x="1189" y="1667" on="1"/>
        <pt x="1223" y="1647" on="0"/>
        <pt x="1269" y="1620" on="0"/>
        <pt x="1275" y="1617" on="1"/>
        <pt x="1251" y="1548" on="1"/>
        <pt x="1243" y="1550" on="0"/>
        <pt x="1181" y="1560" on="0"/>
        <pt x="1135" y="1568" on="1"/>
        <pt x="1094" y="1575" on="0"/>
        <pt x="994" y="1591" on="0"/>
        <pt x="891" y="1609" on="0"/>
        <pt x="790" y="1628" on="0"/>
        <pt x="704" y="1645" on="0"/>
        <pt x="640" y="1660" on="0"/>
      </contour>
      <contour>
        <pt x="118" y="709" on="1"/>
        <pt x="118" y="808" on="0"/>
        <pt x="159" y="996" on="0"/>
        <pt x="246" y="1162" on="0"/>
        <pt x="382" y="1300" on="0"/>
        <pt x="572" y="1400" on="0"/>
        <pt x="820" y="1455" on="0"/>
        <pt x="975" y="1455" on="1"/>
        <pt x="1130" y="1455" on="0"/>
        <pt x="1378" y="1400" on="0"/>
        <pt x="1569" y="1300" on="0"/>
        <pt x="1705" y="1162" on="0"/>
        <pt x="1791" y="996" on="0"/>
        <pt x="1832" y="808" on="0"/>
        <pt x="1832" y="709" on="1"/>
        <pt x="1832" y="610" on="0"/>
        <pt x="1791" y="421" on="0"/>
        <pt x="1705" y="255" on="0"/>
        <pt x="1569" y="117" on="0"/>
        <pt x="1378" y="17" on="0"/>
        <pt x="1130" y="-38" on="0"/>
        <pt x="975" y="-38" on="1"/>
        <pt x="820" y="-38" on="0"/>
        <pt x="572" y="17" on="0"/>
        <pt x="382" y="117" on="0"/>
        <pt x="246" y="255" on="0"/>
        <pt x="159" y="421" on="0"/>
        <pt x="118" y="609" on="0"/>
      </contour>
      <contour>
        <pt x="975" y="31" on="1"/>
        <pt x="1027" y="31" on="0"/>
        <pt x="1096" y="93" on="0"/>
        <pt x="1138" y="248" on="0"/>
        <pt x="1155" y="509" on="0"/>
        <pt x="1155" y="709" on="1"/>
        <pt x="1155" y="908" on="0"/>
        <pt x="1138" y="1169" on="0"/>
        <pt x="1096" y="1324" on="0"/>
        <pt x="1027" y="1386" on="0"/>
        <pt x="975" y="1386" on="1"/>
        <pt x="923" y="1386" on="0"/>
        <pt x="854" y="1324" on="0"/>
        <pt x="813" y="1169" on="0"/>
        <pt x="796" y="908" on="0"/>
        <pt x="796" y="709" on="1"/>
        <pt x="796" y="509" on="0"/>
        <pt x="813" y="248" on="0"/>
        <pt x="854" y="93" on="0"/>
        <pt x="923" y="31" on="0"/>
      </contour>
    </TTGlyph>
    <TTGlyph name="Oslash" xMin="118" yMin="-299" xMax="1832" yMax="1720">
      <contour>
        <pt x="577" y="23" on="1"/>
        <pt x="454" y="67" on="0"/>
        <pt x="280" y="208" on="0"/>
        <pt x="169" y="388" on="0"/>
        <pt x="118" y="597" on="0"/>
        <pt x="118" y="709" on="1"/>
        <pt x="118" y="808" on="0"/>
        <pt x="159" y="996" on="0"/>
        <pt x="246" y="1162" on="0"/>
        <pt x="382" y="1300" on="0"/>
        <pt x="572" y="1400" on="0"/>
        <pt x="820" y="1455" on="0"/>
        <pt x="975" y="1455" on="1"/>
        <pt x="1053" y="1455" on="0"/>
        <pt x="1191" y="1441" on="0"/>
        <pt x="1254" y="1427" on="1"/>
        <pt x="1395" y="1720" on="1"/>
        <pt x="1495" y="1670" on="1"/>
        <pt x="1364" y="1397" on="1"/>
        <pt x="1489" y="1354" on="0"/>
        <pt x="1667" y="1212" on="0"/>
        <pt x="1780" y="1032" on="0"/>
        <pt x="1832" y="821" on="0"/>
        <pt x="1832" y="709" on="1"/>
        <pt x="1832" y="610" on="0"/>
        <pt x="1791" y="421" on="0"/>
        <pt x="1705" y="255" on="0"/>
        <pt x="1569" y="117" on="0"/>
        <pt x="1378" y="17" on="0"/>
        <pt x="1130" y="-38" on="0"/>
        <pt x="975" y="-38" on="1"/>
        <pt x="894" y="-38" on="0"/>
        <pt x="752" y="-22" on="0"/>
        <pt x="688" y="-8" on="1"/>
        <pt x="548" y="-299" on="1"/>
        <pt x="446" y="-248" on="1"/>
      </contour>
      <contour>
        <pt x="1132" y="1174" on="1"/>
        <pt x="1123" y="1233" on="0"/>
        <pt x="1095" y="1314" on="0"/>
        <pt x="1056" y="1364" on="0"/>
        <pt x="1006" y="1386" on="0"/>
        <pt x="975" y="1386" on="1"/>
        <pt x="923" y="1386" on="0"/>
        <pt x="854" y="1324" on="0"/>
        <pt x="813" y="1169" on="0"/>
        <pt x="796" y="908" on="0"/>
        <pt x="796" y="709" on="1"/>
        <pt x="796" y="583" on="0"/>
        <pt x="799" y="484" on="1"/>
      </contour>
      <contour>
        <pt x="816" y="258" on="1"/>
        <pt x="825" y="194" on="0"/>
        <pt x="852" y="107" on="0"/>
        <pt x="891" y="54" on="0"/>
        <pt x="942" y="31" on="0"/>
        <pt x="975" y="31" on="1"/>
        <pt x="1027" y="31" on="0"/>
        <pt x="1096" y="93" on="0"/>
        <pt x="1138" y="248" on="0"/>
        <pt x="1155" y="509" on="0"/>
        <pt x="1155" y="709" on="1"/>
        <pt x="1155" y="779" on="0"/>
        <pt x="1153" y="900" on="0"/>
        <pt x="1151" y="954" on="1"/>
      </contour>
    </TTGlyph>
    <TTGlyph name="Otilde" xMin="118" yMin="-38" xMax="1832" yMax="1890">
      <contour>
        <pt x="450" y="1596" on="1"/>
        <pt x="456" y="1661" on="0"/>
        <pt x="501" y="1769" on="0"/>
        <pt x="574" y="1847" on="0"/>
        <pt x="676" y="1890" on="0"/>
        <pt x="739" y="1890" on="1"/>
        <pt x="799" y="1890" on="0"/>
        <pt x="926" y="1850" on="0"/>
        <pt x="992" y="1825" on="1"/>
        <pt x="1055" y="1802" on="0"/>
        <pt x="1179" y="1765" on="0"/>
        <pt x="1239" y="1765" on="1"/>
        <pt x="1295" y="1765" on="0"/>
        <pt x="1399" y="1809" on="0"/>
        <pt x="1447" y="1866" on="1"/>
        <pt x="1502" y="1831" on="1"/>
        <pt x="1496" y="1766" on="0"/>
        <pt x="1451" y="1658" on="0"/>
        <pt x="1378" y="1580" on="0"/>
        <pt x="1276" y="1537" on="0"/>
        <pt x="1213" y="1537" on="1"/>
        <pt x="1159" y="1537" on="0"/>
        <pt x="1042" y="1571" on="0"/>
        <pt x="982" y="1594" on="1"/>
        <pt x="914" y="1620" on="0"/>
        <pt x="779" y="1662" on="0"/>
        <pt x="713" y="1662" on="1"/>
        <pt x="656" y="1662" on="0"/>
        <pt x="552" y="1618" on="0"/>
        <pt x="505" y="1561" on="1"/>
      </contour>
      <contour>
        <pt x="118" y="709" on="1"/>
        <pt x="118" y="808" on="0"/>
        <pt x="159" y="996" on="0"/>
        <pt x="246" y="1162" on="0"/>
        <pt x="382" y="1300" on="0"/>
        <pt x="572" y="1400" on="0"/>
        <pt x="820" y="1455" on="0"/>
        <pt x="975" y="1455" on="1"/>
        <pt x="1130" y="1455" on="0"/>
        <pt x="1378" y="1400" on="0"/>
        <pt x="1569" y="1300" on="0"/>
        <pt x="1705" y="1162" on="0"/>
        <pt x="1791" y="996" on="0"/>
        <pt x="1832" y="808" on="0"/>
        <pt x="1832" y="709" on="1"/>
        <pt x="1832" y="610" on="0"/>
        <pt x="1791" y="421" on="0"/>
        <pt x="1705" y="255" on="0"/>
        <pt x="1569" y="117" on="0"/>
        <pt x="1378" y="17" on="0"/>
        <pt x="1130" y="-38" on="0"/>
        <pt x="975" y="-38" on="1"/>
        <pt x="820" y="-38" on="0"/>
        <pt x="572" y="17" on="0"/>
        <pt x="382" y="117" on="0"/>
        <pt x="246" y="255" on="0"/>
        <pt x="159" y="421" on="0"/>
        <pt x="118" y="609" on="0"/>
      </contour>
      <contour>
        <pt x="975" y="31" on="1"/>
        <pt x="1027" y="31" on="0"/>
        <pt x="1096" y="93" on="0"/>
        <pt x="1138" y="248" on="0"/>
        <pt x="1155" y="509" on="0"/>
        <pt x="1155" y="709" on="1"/>
        <pt x="1155" y="908" on="0"/>
        <pt x="1138" y="1169" on="0"/>
        <pt x="1096" y="1324" on="0"/>
        <pt x="1027" y="1386" on="0"/>
        <pt x="975" y="1386" on="1"/>
        <pt x="923" y="1386" on="0"/>
        <pt x="854" y="1324" on="0"/>
        <pt x="813" y="1169" on="0"/>
        <pt x="796" y="908" on="0"/>
        <pt x="796" y="709" on="1"/>
        <pt x="796" y="509" on="0"/>
        <pt x="813" y="248" on="0"/>
        <pt x="854" y="93" on="0"/>
        <pt x="923" y="31" on="0"/>
      </contour>
    </TTGlyph>
    <TTGlyph name="P" xMin="99" yMin="0" xMax="1820" yMax="1417">
      <contour>
        <pt x="99" y="79" on="1"/>
        <pt x="274" y="79" on="1"/>
        <pt x="274" y="1339" on="1"/>
        <pt x="99" y="1339" on="1"/>
        <pt x="99" y="1417" on="1"/>
        <pt x="1252" y="1417" on="1"/>
        <pt x="1399" y="1417" on="0"/>
        <pt x="1613" y="1346" on="0"/>
        <pt x="1753" y="1222" on="0"/>
        <pt x="1820" y="1051" on="0"/>
        <pt x="1820" y="951" on="1"/>
        <pt x="1820" y="850" on="0"/>
        <pt x="1743" y="683" on="0"/>
        <pt x="1594" y="564" on="0"/>
        <pt x="1375" y="499" on="0"/>
        <pt x="1233" y="499" on="1"/>
        <pt x="964" y="499" on="1"/>
        <pt x="964" y="79" on="1"/>
        <pt x="1138" y="79" on="1"/>
        <pt x="1138" y="0" on="1"/>
        <pt x="99" y="0" on="1"/>
      </contour>
      <contour>
        <pt x="964" y="571" on="1"/>
        <pt x="1022" y="571" on="0"/>
        <pt x="1104" y="624" on="0"/>
        <pt x="1155" y="720" on="0"/>
        <pt x="1178" y="854" on="0"/>
        <pt x="1178" y="936" on="1"/>
        <pt x="1178" y="1041" on="0"/>
        <pt x="1154" y="1196" on="0"/>
        <pt x="1103" y="1296" on="0"/>
        <pt x="1022" y="1345" on="0"/>
        <pt x="964" y="1345" on="1"/>
      </contour>
    </TTGlyph>
    <TTGlyph name="Q" xMin="118" yMin="-437" xMax="1858" yMax="1455">
      <contour>
        <pt x="118" y="709" on="1"/>
        <pt x="118" y="808" on="0"/>
        <pt x="159" y="996" on="0"/>
        <pt x="246" y="1162" on="0"/>
        <pt x="382" y="1300" on="0"/>
        <pt x="572" y="1400" on="0"/>
        <pt x="820" y="1455" on="0"/>
        <pt x="975" y="1455" on="1"/>
        <pt x="1130" y="1455" on="0"/>
        <pt x="1378" y="1400" on="0"/>
        <pt x="1569" y="1300" on="0"/>
        <pt x="1705" y="1162" on="0"/>
        <pt x="1791" y="996" on="0"/>
        <pt x="1832" y="808" on="0"/>
        <pt x="1832" y="709" on="1"/>
        <pt x="1832" y="590" on="0"/>
        <pt x="1773" y="368" on="0"/>
        <pt x="1647" y="182" on="0"/>
        <pt x="1447" y="41" on="0"/>
        <pt x="1306" y="2" on="1"/>
        <pt x="1319" y="-31" on="0"/>
        <pt x="1359" y="-87" on="0"/>
        <pt x="1418" y="-128" on="0"/>
        <pt x="1500" y="-151" on="0"/>
        <pt x="1556" y="-151" on="1"/>
        <pt x="1599" y="-151" on="0"/>
        <pt x="1683" y="-141" on="0"/>
        <pt x="1749" y="-104" on="0"/>
        <pt x="1790" y="-33" on="0"/>
        <pt x="1790" y="27" on="1"/>
        <pt x="1851" y="27" on="1"/>
        <pt x="1855" y="-2" on="0"/>
        <pt x="1858" y="-54" on="0"/>
        <pt x="1858" y="-80" on="1"/>
        <pt x="1858" y="-167" on="0"/>
        <pt x="1824" y="-301" on="0"/>
        <pt x="1748" y="-391" on="0"/>
        <pt x="1626" y="-437" on="0"/>
        <pt x="1538" y="-437" on="1"/>
        <pt x="1462" y="-437" on="0"/>
        <pt x="1352" y="-405" on="0"/>
        <pt x="1273" y="-348" on="0"/>
        <pt x="1222" y="-270" on="0"/>
        <pt x="1191" y="-178" on="0"/>
        <pt x="1175" y="-77" on="0"/>
        <pt x="1170" y="-25" on="1"/>
        <pt x="1125" y="-31" on="0"/>
        <pt x="1028" y="-38" on="0"/>
        <pt x="975" y="-38" on="1"/>
        <pt x="820" y="-38" on="0"/>
        <pt x="572" y="17" on="0"/>
        <pt x="382" y="117" on="0"/>
        <pt x="246" y="255" on="0"/>
        <pt x="159" y="421" on="0"/>
        <pt x="118" y="609" on="0"/>
      </contour>
      <contour>
        <pt x="803" y="394" on="1"/>
        <pt x="838" y="432" on="0"/>
        <pt x="937" y="477" on="0"/>
        <pt x="992" y="477" on="1"/>
        <pt x="1045" y="477" on="0"/>
        <pt x="1121" y="454" on="0"/>
        <pt x="1149" y="434" on="1"/>
        <pt x="1155" y="551" on="0"/>
        <pt x="1155" y="709" on="1"/>
        <pt x="1155" y="908" on="0"/>
        <pt x="1138" y="1169" on="0"/>
        <pt x="1096" y="1324" on="0"/>
        <pt x="1027" y="1386" on="0"/>
        <pt x="975" y="1386" on="1"/>
        <pt x="923" y="1386" on="0"/>
        <pt x="854" y="1324" on="0"/>
        <pt x="813" y="1169" on="0"/>
        <pt x="796" y="908" on="0"/>
        <pt x="796" y="709" on="1"/>
        <pt x="796" y="614" on="0"/>
        <pt x="799" y="459" on="0"/>
      </contour>
      <contour>
        <pt x="809" y="317" on="1"/>
        <pt x="817" y="236" on="0"/>
        <pt x="844" y="126" on="0"/>
        <pt x="884" y="59" on="0"/>
        <pt x="939" y="31" on="0"/>
        <pt x="975" y="31" on="1"/>
        <pt x="1008" y="31" on="0"/>
        <pt x="1059" y="54" on="0"/>
        <pt x="1098" y="108" on="0"/>
        <pt x="1125" y="197" on="0"/>
        <pt x="1134" y="262" on="1"/>
        <pt x="1116" y="322" on="0"/>
        <pt x="1038" y="397" on="0"/>
        <pt x="963" y="397" on="1"/>
        <pt x="919" y="397" on="0"/>
        <pt x="835" y="352" on="0"/>
      </contour>
    </TTGlyph>
    <TTGlyph name="R" xMin="99" yMin="-43" xMax="1969" yMax="1417">
      <contour>
        <pt x="99" y="79" on="1"/>
        <pt x="274" y="79" on="1"/>
        <pt x="274" y="1339" on="1"/>
        <pt x="99" y="1339" on="1"/>
        <pt x="99" y="1417" on="1"/>
        <pt x="1242" y="1417" on="1"/>
        <pt x="1379" y="1417" on="0"/>
        <pt x="1594" y="1373" on="0"/>
        <pt x="1741" y="1282" on="0"/>
        <pt x="1818" y="1142" on="0"/>
        <pt x="1818" y="1047" on="1"/>
        <pt x="1818" y="964" on="0"/>
        <pt x="1751" y="834" on="0"/>
        <pt x="1590" y="744" on="0"/>
        <pt x="1321" y="695" on="0"/>
        <pt x="1120" y="694" on="1"/>
        <pt x="1300" y="693" on="0"/>
        <pt x="1554" y="660" on="0"/>
        <pt x="1715" y="579" on="0"/>
        <pt x="1789" y="442" on="0"/>
        <pt x="1789" y="337" on="1"/>
        <pt x="1789" y="308" on="0"/>
        <pt x="1788" y="267" on="0"/>
        <pt x="1787" y="239" on="1"/>
        <pt x="1785" y="210" on="0"/>
        <pt x="1785" y="179" on="0"/>
        <pt x="1785" y="159" on="1"/>
        <pt x="1785" y="128" on="0"/>
        <pt x="1802" y="96" on="0"/>
        <pt x="1822" y="96" on="1"/>
        <pt x="1855" y="96" on="0"/>
        <pt x="1885" y="224" on="0"/>
        <pt x="1885" y="345" on="1"/>
        <pt x="1969" y="345" on="1"/>
        <pt x="1969" y="313" on="1"/>
        <pt x="1969" y="214" on="0"/>
        <pt x="1932" y="78" on="0"/>
        <pt x="1837" y="-6" on="0"/>
        <pt x="1677" y="-43" on="0"/>
        <pt x="1554" y="-43" on="1"/>
        <pt x="1436" y="-43" on="0"/>
        <pt x="1280" y="6" on="0"/>
        <pt x="1187" y="102" on="0"/>
        <pt x="1149" y="244" on="0"/>
        <pt x="1149" y="337" on="1"/>
        <pt x="1149" y="439" on="0"/>
        <pt x="1128" y="569" on="0"/>
        <pt x="1084" y="644" on="0"/>
        <pt x="1013" y="672" on="0"/>
        <pt x="964" y="672" on="1"/>
        <pt x="964" y="79" on="1"/>
        <pt x="1138" y="79" on="1"/>
        <pt x="1138" y="0" on="1"/>
        <pt x="99" y="0" on="1"/>
      </contour>
      <contour>
        <pt x="964" y="751" on="1"/>
        <pt x="1018" y="751" on="0"/>
        <pt x="1098" y="777" on="0"/>
        <pt x="1151" y="843" on="0"/>
        <pt x="1177" y="958" on="0"/>
        <pt x="1177" y="1047" on="1"/>
        <pt x="1177" y="1136" on="0"/>
        <pt x="1151" y="1249" on="0"/>
        <pt x="1098" y="1314" on="0"/>
        <pt x="1018" y="1339" on="0"/>
        <pt x="964" y="1339" on="1"/>
      </contour>
    </TTGlyph>
    <TTGlyph name="Racute" xMin="99" yMin="-43" xMax="1969" yMax="1937">
      <contour>
        <pt x="758" y="1617" on="1"/>
        <pt x="764" y="1620" on="0"/>
        <pt x="810" y="1647" on="0"/>
        <pt x="844" y="1667" on="1"/>
        <pt x="878" y="1687" on="0"/>
        <pt x="965" y="1738" on="0"/>
        <pt x="1057" y="1792" on="0"/>
        <pt x="1149" y="1844" on="0"/>
        <pt x="1228" y="1888" on="0"/>
        <pt x="1289" y="1920" on="0"/>
        <pt x="1304" y="1927" on="1"/>
        <pt x="1317" y="1932" on="0"/>
        <pt x="1344" y="1937" on="0"/>
        <pt x="1358" y="1937" on="1"/>
        <pt x="1386" y="1937" on="0"/>
        <pt x="1435" y="1912" on="0"/>
        <pt x="1471" y="1870" on="0"/>
        <pt x="1492" y="1816" on="0"/>
        <pt x="1492" y="1788" on="1"/>
        <pt x="1492" y="1750" on="0"/>
        <pt x="1451" y="1683" on="0"/>
        <pt x="1407" y="1666" on="1"/>
        <pt x="1393" y="1660" on="0"/>
        <pt x="1329" y="1645" on="0"/>
        <pt x="1243" y="1628" on="0"/>
        <pt x="1142" y="1609" on="0"/>
        <pt x="1039" y="1591" on="0"/>
        <pt x="939" y="1575" on="0"/>
        <pt x="898" y="1568" on="1"/>
        <pt x="852" y="1560" on="0"/>
        <pt x="790" y="1550" on="0"/>
        <pt x="782" y="1548" on="1"/>
      </contour>
      <contour>
        <pt x="99" y="79" on="1"/>
        <pt x="274" y="79" on="1"/>
        <pt x="274" y="1339" on="1"/>
        <pt x="99" y="1339" on="1"/>
        <pt x="99" y="1417" on="1"/>
        <pt x="1242" y="1417" on="1"/>
        <pt x="1379" y="1417" on="0"/>
        <pt x="1594" y="1373" on="0"/>
        <pt x="1741" y="1282" on="0"/>
        <pt x="1818" y="1142" on="0"/>
        <pt x="1818" y="1047" on="1"/>
        <pt x="1818" y="964" on="0"/>
        <pt x="1751" y="834" on="0"/>
        <pt x="1590" y="744" on="0"/>
        <pt x="1321" y="695" on="0"/>
        <pt x="1120" y="694" on="1"/>
        <pt x="1300" y="693" on="0"/>
        <pt x="1554" y="660" on="0"/>
        <pt x="1715" y="579" on="0"/>
        <pt x="1789" y="442" on="0"/>
        <pt x="1789" y="337" on="1"/>
        <pt x="1789" y="308" on="0"/>
        <pt x="1788" y="267" on="0"/>
        <pt x="1787" y="239" on="1"/>
        <pt x="1785" y="210" on="0"/>
        <pt x="1785" y="179" on="0"/>
        <pt x="1785" y="159" on="1"/>
        <pt x="1785" y="128" on="0"/>
        <pt x="1802" y="96" on="0"/>
        <pt x="1822" y="96" on="1"/>
        <pt x="1855" y="96" on="0"/>
        <pt x="1885" y="224" on="0"/>
        <pt x="1885" y="345" on="1"/>
        <pt x="1969" y="345" on="1"/>
        <pt x="1969" y="313" on="1"/>
        <pt x="1969" y="214" on="0"/>
        <pt x="1932" y="78" on="0"/>
        <pt x="1837" y="-6" on="0"/>
        <pt x="1677" y="-43" on="0"/>
        <pt x="1554" y="-43" on="1"/>
        <pt x="1436" y="-43" on="0"/>
        <pt x="1280" y="6" on="0"/>
        <pt x="1187" y="102" on="0"/>
        <pt x="1149" y="244" on="0"/>
        <pt x="1149" y="337" on="1"/>
        <pt x="1149" y="439" on="0"/>
        <pt x="1128" y="569" on="0"/>
        <pt x="1084" y="644" on="0"/>
        <pt x="1013" y="672" on="0"/>
        <pt x="964" y="672" on="1"/>
        <pt x="964" y="79" on="1"/>
        <pt x="1138" y="79" on="1"/>
        <pt x="1138" y="0" on="1"/>
        <pt x="99" y="0" on="1"/>
      </contour>
      <contour>
        <pt x="964" y="751" on="1"/>
        <pt x="1018" y="751" on="0"/>
        <pt x="1098" y="777" on="0"/>
        <pt x="1151" y="843" on="0"/>
        <pt x="1177" y="958" on="0"/>
        <pt x="1177" y="1047" on="1"/>
        <pt x="1177" y="1136" on="0"/>
        <pt x="1151" y="1249" on="0"/>
        <pt x="1098" y="1314" on="0"/>
        <pt x="1018" y="1339" on="0"/>
        <pt x="964" y="1339" on="1"/>
      </contour>
    </TTGlyph>
    <TTGlyph name="Rcaron" xMin="99" yMin="-43" xMax="1969" yMax="1928">
      <contour>
        <pt x="540" y="1852" on="1"/>
        <pt x="598" y="1928" on="1"/>
        <pt x="1037" y="1780" on="1"/>
        <pt x="1477" y="1928" on="1"/>
        <pt x="1534" y="1852" on="1"/>
        <pt x="1037" y="1495" on="1"/>
      </contour>
      <contour>
        <pt x="99" y="79" on="1"/>
        <pt x="274" y="79" on="1"/>
        <pt x="274" y="1339" on="1"/>
        <pt x="99" y="1339" on="1"/>
        <pt x="99" y="1417" on="1"/>
        <pt x="1242" y="1417" on="1"/>
        <pt x="1379" y="1417" on="0"/>
        <pt x="1594" y="1373" on="0"/>
        <pt x="1741" y="1282" on="0"/>
        <pt x="1818" y="1142" on="0"/>
        <pt x="1818" y="1047" on="1"/>
        <pt x="1818" y="964" on="0"/>
        <pt x="1751" y="834" on="0"/>
        <pt x="1590" y="744" on="0"/>
        <pt x="1321" y="695" on="0"/>
        <pt x="1120" y="694" on="1"/>
        <pt x="1300" y="693" on="0"/>
        <pt x="1554" y="660" on="0"/>
        <pt x="1715" y="579" on="0"/>
        <pt x="1789" y="442" on="0"/>
        <pt x="1789" y="337" on="1"/>
        <pt x="1789" y="308" on="0"/>
        <pt x="1788" y="267" on="0"/>
        <pt x="1787" y="239" on="1"/>
        <pt x="1785" y="210" on="0"/>
        <pt x="1785" y="179" on="0"/>
        <pt x="1785" y="159" on="1"/>
        <pt x="1785" y="128" on="0"/>
        <pt x="1802" y="96" on="0"/>
        <pt x="1822" y="96" on="1"/>
        <pt x="1855" y="96" on="0"/>
        <pt x="1885" y="224" on="0"/>
        <pt x="1885" y="345" on="1"/>
        <pt x="1969" y="345" on="1"/>
        <pt x="1969" y="313" on="1"/>
        <pt x="1969" y="214" on="0"/>
        <pt x="1932" y="78" on="0"/>
        <pt x="1837" y="-6" on="0"/>
        <pt x="1677" y="-43" on="0"/>
        <pt x="1554" y="-43" on="1"/>
        <pt x="1436" y="-43" on="0"/>
        <pt x="1280" y="6" on="0"/>
        <pt x="1187" y="102" on="0"/>
        <pt x="1149" y="244" on="0"/>
        <pt x="1149" y="337" on="1"/>
        <pt x="1149" y="439" on="0"/>
        <pt x="1128" y="569" on="0"/>
        <pt x="1084" y="644" on="0"/>
        <pt x="1013" y="672" on="0"/>
        <pt x="964" y="672" on="1"/>
        <pt x="964" y="79" on="1"/>
        <pt x="1138" y="79" on="1"/>
        <pt x="1138" y="0" on="1"/>
        <pt x="99" y="0" on="1"/>
      </contour>
      <contour>
        <pt x="964" y="751" on="1"/>
        <pt x="1018" y="751" on="0"/>
        <pt x="1098" y="777" on="0"/>
        <pt x="1151" y="843" on="0"/>
        <pt x="1177" y="958" on="0"/>
        <pt x="1177" y="1047" on="1"/>
        <pt x="1177" y="1136" on="0"/>
        <pt x="1151" y="1249" on="0"/>
        <pt x="1098" y="1314" on="0"/>
        <pt x="1018" y="1339" on="0"/>
        <pt x="964" y="1339" on="1"/>
      </contour>
    </TTGlyph>
    <TTGlyph name="Rcommaaccent" xMin="99" yMin="-623" xMax="1969" yMax="1417">
      <contour>
        <pt x="99" y="79" on="1"/>
        <pt x="274" y="79" on="1"/>
        <pt x="274" y="1339" on="1"/>
        <pt x="99" y="1339" on="1"/>
        <pt x="99" y="1417" on="1"/>
        <pt x="1242" y="1417" on="1"/>
        <pt x="1379" y="1417" on="0"/>
        <pt x="1594" y="1373" on="0"/>
        <pt x="1741" y="1282" on="0"/>
        <pt x="1818" y="1142" on="0"/>
        <pt x="1818" y="1047" on="1"/>
        <pt x="1818" y="964" on="0"/>
        <pt x="1751" y="834" on="0"/>
        <pt x="1590" y="744" on="0"/>
        <pt x="1321" y="695" on="0"/>
        <pt x="1120" y="694" on="1"/>
        <pt x="1300" y="693" on="0"/>
        <pt x="1554" y="660" on="0"/>
        <pt x="1715" y="579" on="0"/>
        <pt x="1789" y="442" on="0"/>
        <pt x="1789" y="337" on="1"/>
        <pt x="1789" y="308" on="0"/>
        <pt x="1788" y="267" on="0"/>
        <pt x="1787" y="239" on="1"/>
        <pt x="1785" y="210" on="0"/>
        <pt x="1785" y="179" on="0"/>
        <pt x="1785" y="159" on="1"/>
        <pt x="1785" y="128" on="0"/>
        <pt x="1802" y="96" on="0"/>
        <pt x="1822" y="96" on="1"/>
        <pt x="1855" y="96" on="0"/>
        <pt x="1885" y="224" on="0"/>
        <pt x="1885" y="345" on="1"/>
        <pt x="1969" y="345" on="1"/>
        <pt x="1969" y="313" on="1"/>
        <pt x="1969" y="214" on="0"/>
        <pt x="1932" y="78" on="0"/>
        <pt x="1837" y="-6" on="0"/>
        <pt x="1677" y="-43" on="0"/>
        <pt x="1554" y="-43" on="1"/>
        <pt x="1436" y="-43" on="0"/>
        <pt x="1280" y="6" on="0"/>
        <pt x="1187" y="102" on="0"/>
        <pt x="1149" y="244" on="0"/>
        <pt x="1149" y="337" on="1"/>
        <pt x="1149" y="439" on="0"/>
        <pt x="1128" y="569" on="0"/>
        <pt x="1084" y="644" on="0"/>
        <pt x="1013" y="672" on="0"/>
        <pt x="964" y="672" on="1"/>
        <pt x="964" y="79" on="1"/>
        <pt x="1138" y="79" on="1"/>
        <pt x="1138" y="0" on="1"/>
        <pt x="99" y="0" on="1"/>
      </contour>
      <contour>
        <pt x="964" y="751" on="1"/>
        <pt x="1018" y="751" on="0"/>
        <pt x="1098" y="777" on="0"/>
        <pt x="1151" y="843" on="0"/>
        <pt x="1177" y="958" on="0"/>
        <pt x="1177" y="1047" on="1"/>
        <pt x="1177" y="1136" on="0"/>
        <pt x="1151" y="1249" on="0"/>
        <pt x="1098" y="1314" on="0"/>
        <pt x="1018" y="1339" on="0"/>
        <pt x="964" y="1339" on="1"/>
      </contour>
      <contour>
        <pt x="808" y="-264" on="1"/>
        <pt x="808" y="-197" on="0"/>
        <pt x="914" y="-115" on="0"/>
        <pt x="1031" y="-115" on="1"/>
        <pt x="1094" y="-115" on="0"/>
        <pt x="1182" y="-141" on="0"/>
        <pt x="1238" y="-187" on="0"/>
        <pt x="1263" y="-253" on="0"/>
        <pt x="1263" y="-293" on="1"/>
        <pt x="1263" y="-375" on="0"/>
        <pt x="1199" y="-494" on="0"/>
        <pt x="1096" y="-573" on="0"/>
        <pt x="967" y="-617" on="0"/>
        <pt x="902" y="-623" on="1"/>
        <pt x="871" y="-584" on="1"/>
        <pt x="924" y="-573" on="0"/>
        <pt x="1005" y="-541" on="0"/>
        <pt x="1059" y="-504" on="0"/>
        <pt x="1087" y="-466" on="0"/>
        <pt x="1087" y="-450" on="1"/>
        <pt x="1087" y="-439" on="0"/>
        <pt x="1074" y="-425" on="0"/>
        <pt x="1051" y="-416" on="0"/>
        <pt x="1020" y="-411" on="0"/>
        <pt x="1002" y="-409" on="1"/>
        <pt x="971" y="-405" on="0"/>
        <pt x="902" y="-396" on="0"/>
        <pt x="845" y="-367" on="0"/>
        <pt x="808" y="-313" on="0"/>
      </contour>
    </TTGlyph>
    <TTGlyph name="S" xMin="180" yMin="-38" xMax="1646" yMax="1455">
      <contour>
        <pt x="184" y="544" on="1"/>
        <pt x="251" y="544" on="1"/>
        <pt x="276" y="495" on="0"/>
        <pt x="350" y="382" on="0"/>
        <pt x="450" y="270" on="0"/>
        <pt x="578" y="167" on="0"/>
        <pt x="736" y="89" on="0"/>
        <pt x="926" y="42" on="0"/>
        <pt x="1039" y="42" on="1"/>
        <pt x="1072" y="42" on="0"/>
        <pt x="1154" y="49" on="0"/>
        <pt x="1226" y="72" on="0"/>
        <pt x="1275" y="115" on="0"/>
        <pt x="1275" y="151" on="1"/>
        <pt x="1275" y="189" on="0"/>
        <pt x="1212" y="248" on="0"/>
        <pt x="1084" y="303" on="0"/>
        <pt x="889" y="359" on="0"/>
        <pt x="757" y="394" on="1"/>
        <pt x="463" y="470" on="0"/>
        <pt x="180" y="743" on="0"/>
        <pt x="180" y="940" on="1"/>
        <pt x="180" y="1063" on="0"/>
        <pt x="281" y="1255" on="0"/>
        <pt x="456" y="1386" on="0"/>
        <pt x="691" y="1455" on="0"/>
        <pt x="824" y="1455" on="1"/>
        <pt x="892" y="1455" on="0"/>
        <pt x="1041" y="1431" on="0"/>
        <pt x="1183" y="1389" on="0"/>
        <pt x="1309" y="1330" on="0"/>
        <pt x="1356" y="1295" on="1"/>
        <pt x="1507" y="1441" on="1"/>
        <pt x="1576" y="1441" on="1"/>
        <pt x="1576" y="1006" on="1"/>
        <pt x="1513" y="1006" on="1"/>
        <pt x="1469" y="1085" on="0"/>
        <pt x="1331" y="1221" on="0"/>
        <pt x="1153" y="1321" on="0"/>
        <pt x="937" y="1379" on="0"/>
        <pt x="816" y="1379" on="1"/>
        <pt x="793" y="1379" on="0"/>
        <pt x="721" y="1376" on="0"/>
        <pt x="652" y="1358" on="0"/>
        <pt x="602" y="1319" on="0"/>
        <pt x="602" y="1284" on="1"/>
        <pt x="602" y="1227" on="0"/>
        <pt x="809" y="1122" on="0"/>
        <pt x="1014" y="1068" on="1"/>
        <pt x="1101" y="1045" on="0"/>
        <pt x="1263" y="994" on="0"/>
        <pt x="1404" y="929" on="0"/>
        <pt x="1519" y="846" on="0"/>
        <pt x="1601" y="734" on="0"/>
        <pt x="1646" y="590" on="0"/>
        <pt x="1646" y="496" on="1"/>
        <pt x="1646" y="387" on="0"/>
        <pt x="1566" y="193" on="0"/>
        <pt x="1407" y="47" on="0"/>
        <pt x="1171" y="-38" on="0"/>
        <pt x="1016" y="-38" on="1"/>
        <pt x="931" y="-38" on="0"/>
        <pt x="781" y="-12" on="0"/>
        <pt x="640" y="40" on="0"/>
        <pt x="502" y="119" on="0"/>
        <pt x="429" y="172" on="1"/>
        <pt x="259" y="-19" on="1"/>
        <pt x="184" y="-19" on="1"/>
      </contour>
    </TTGlyph>
    <TTGlyph name="T" xMin="66" yMin="0" xMax="1673" yMax="1417">
      <contour>
        <pt x="350" y="79" on="1"/>
        <pt x="524" y="79" on="1"/>
        <pt x="524" y="1339" on="1"/>
        <pt x="380" y="1339" on="1"/>
        <pt x="135" y="845" on="1"/>
        <pt x="66" y="845" on="1"/>
        <pt x="66" y="1417" on="1"/>
        <pt x="1673" y="1417" on="1"/>
        <pt x="1673" y="845" on="1"/>
        <pt x="1603" y="845" on="1"/>
        <pt x="1359" y="1339" on="1"/>
        <pt x="1214" y="1339" on="1"/>
        <pt x="1214" y="79" on="1"/>
        <pt x="1389" y="79" on="1"/>
        <pt x="1389" y="0" on="1"/>
        <pt x="350" y="0" on="1"/>
      </contour>
    </TTGlyph>
    <TTGlyph name="Thorn" xMin="99" yMin="0" xMax="1906" yMax="1417">
      <contour>
        <pt x="99" y="79" on="1"/>
        <pt x="274" y="79" on="1"/>
        <pt x="274" y="1339" on="1"/>
        <pt x="99" y="1339" on="1"/>
        <pt x="99" y="1417" on="1"/>
        <pt x="1138" y="1417" on="1"/>
        <pt x="1138" y="1339" on="1"/>
        <pt x="964" y="1339" on="1"/>
        <pt x="964" y="1217" on="1"/>
        <pt x="1214" y="1217" on="1"/>
        <pt x="1373" y="1217" on="0"/>
        <pt x="1629" y="1161" on="0"/>
        <pt x="1809" y="1040" on="0"/>
        <pt x="1906" y="847" on="0"/>
        <pt x="1906" y="709" on="1"/>
        <pt x="1906" y="571" on="0"/>
        <pt x="1809" y="377" on="0"/>
        <pt x="1629" y="255" on="0"/>
        <pt x="1373" y="200" on="0"/>
        <pt x="1214" y="200" on="1"/>
        <pt x="964" y="200" on="1"/>
        <pt x="964" y="79" on="1"/>
        <pt x="1138" y="79" on="1"/>
        <pt x="1138" y="0" on="1"/>
        <pt x="99" y="0" on="1"/>
      </contour>
      <contour>
        <pt x="964" y="279" on="1"/>
        <pt x="1035" y="279" on="0"/>
        <pt x="1136" y="339" on="0"/>
        <pt x="1199" y="450" on="0"/>
        <pt x="1228" y="610" on="0"/>
        <pt x="1228" y="709" on="1"/>
        <pt x="1228" y="808" on="0"/>
        <pt x="1199" y="967" on="0"/>
        <pt x="1136" y="1079" on="0"/>
        <pt x="1035" y="1139" on="0"/>
        <pt x="964" y="1139" on="1"/>
      </contour>
    </TTGlyph>
    <TTGlyph name="U" xMin="80" yMin="-38" xMax="1831" yMax="1417">
      <contour>
        <pt x="255" y="1339" on="1"/>
        <pt x="80" y="1339" on="1"/>
        <pt x="80" y="1417" on="1"/>
        <pt x="1119" y="1417" on="1"/>
        <pt x="1119" y="1339" on="1"/>
        <pt x="945" y="1339" on="1"/>
        <pt x="945" y="567" on="1"/>
        <pt x="945" y="473" on="0"/>
        <pt x="965" y="303" on="0"/>
        <pt x="1028" y="174" on="0"/>
        <pt x="1145" y="98" on="0"/>
        <pt x="1242" y="98" on="1"/>
        <pt x="1279" y="98" on="0"/>
        <pt x="1357" y="113" on="0"/>
        <pt x="1430" y="155" on="0"/>
        <pt x="1495" y="229" on="0"/>
        <pt x="1544" y="346" on="0"/>
        <pt x="1572" y="511" on="0"/>
        <pt x="1572" y="624" on="1"/>
        <pt x="1572" y="1280" on="1"/>
        <pt x="1572" y="1309" on="0"/>
        <pt x="1483" y="1339" on="0"/>
        <pt x="1396" y="1339" on="1"/>
        <pt x="1396" y="1417" on="1"/>
        <pt x="1831" y="1417" on="1"/>
        <pt x="1831" y="1339" on="1"/>
        <pt x="1745" y="1339" on="0"/>
        <pt x="1657" y="1309" on="0"/>
        <pt x="1657" y="1280" on="1"/>
        <pt x="1657" y="652" on="1"/>
        <pt x="1657" y="470" on="0"/>
        <pt x="1590" y="209" on="0"/>
        <pt x="1431" y="41" on="0"/>
        <pt x="1168" y="-38" on="0"/>
        <pt x="972" y="-38" on="1"/>
        <pt x="836" y="-38" on="0"/>
        <pt x="624" y="10" on="0"/>
        <pt x="464" y="97" on="0"/>
        <pt x="354" y="218" on="0"/>
        <pt x="286" y="363" on="0"/>
        <pt x="255" y="527" on="0"/>
        <pt x="255" y="614" on="1"/>
      </contour>
    </TTGlyph>
    <TTGlyph name="Uacute" xMin="80" yMin="-38" xMax="1831" yMax="1937">
      <contour>
        <pt x="891" y="1617" on="1"/>
        <pt x="897" y="1620" on="0"/>
        <pt x="943" y="1647" on="0"/>
        <pt x="977" y="1667" on="1"/>
        <pt x="1011" y="1687" on="0"/>
        <pt x="1098" y="1738" on="0"/>
        <pt x="1190" y="1792" on="0"/>
        <pt x="1282" y="1844" on="0"/>
        <pt x="1361" y="1888" on="0"/>
        <pt x="1422" y="1920" on="0"/>
        <pt x="1437" y="1927" on="1"/>
        <pt x="1450" y="1932" on="0"/>
        <pt x="1477" y="1937" on="0"/>
        <pt x="1491" y="1937" on="1"/>
        <pt x="1519" y="1937" on="0"/>
        <pt x="1568" y="1912" on="0"/>
        <pt x="1604" y="1870" on="0"/>
        <pt x="1625" y="1816" on="0"/>
        <pt x="1625" y="1788" on="1"/>
        <pt x="1625" y="1750" on="0"/>
        <pt x="1584" y="1683" on="0"/>
        <pt x="1540" y="1666" on="1"/>
        <pt x="1526" y="1660" on="0"/>
        <pt x="1462" y="1645" on="0"/>
        <pt x="1376" y="1628" on="0"/>
        <pt x="1275" y="1609" on="0"/>
        <pt x="1172" y="1591" on="0"/>
        <pt x="1072" y="1575" on="0"/>
        <pt x="1031" y="1568" on="1"/>
        <pt x="985" y="1560" on="0"/>
        <pt x="923" y="1550" on="0"/>
        <pt x="915" y="1548" on="1"/>
      </contour>
      <contour>
        <pt x="255" y="1339" on="1"/>
        <pt x="80" y="1339" on="1"/>
        <pt x="80" y="1417" on="1"/>
        <pt x="1119" y="1417" on="1"/>
        <pt x="1119" y="1339" on="1"/>
        <pt x="945" y="1339" on="1"/>
        <pt x="945" y="567" on="1"/>
        <pt x="945" y="473" on="0"/>
        <pt x="965" y="303" on="0"/>
        <pt x="1028" y="174" on="0"/>
        <pt x="1145" y="98" on="0"/>
        <pt x="1242" y="98" on="1"/>
        <pt x="1279" y="98" on="0"/>
        <pt x="1357" y="113" on="0"/>
        <pt x="1430" y="155" on="0"/>
        <pt x="1495" y="229" on="0"/>
        <pt x="1544" y="346" on="0"/>
        <pt x="1572" y="511" on="0"/>
        <pt x="1572" y="624" on="1"/>
        <pt x="1572" y="1280" on="1"/>
        <pt x="1572" y="1309" on="0"/>
        <pt x="1483" y="1339" on="0"/>
        <pt x="1396" y="1339" on="1"/>
        <pt x="1396" y="1417" on="1"/>
        <pt x="1831" y="1417" on="1"/>
        <pt x="1831" y="1339" on="1"/>
        <pt x="1745" y="1339" on="0"/>
        <pt x="1657" y="1309" on="0"/>
        <pt x="1657" y="1280" on="1"/>
        <pt x="1657" y="652" on="1"/>
        <pt x="1657" y="470" on="0"/>
        <pt x="1590" y="209" on="0"/>
        <pt x="1431" y="41" on="0"/>
        <pt x="1168" y="-38" on="0"/>
        <pt x="972" y="-38" on="1"/>
        <pt x="836" y="-38" on="0"/>
        <pt x="624" y="10" on="0"/>
        <pt x="464" y="97" on="0"/>
        <pt x="354" y="218" on="0"/>
        <pt x="286" y="363" on="0"/>
        <pt x="255" y="527" on="0"/>
        <pt x="255" y="614" on="1"/>
      </contour>
    </TTGlyph>
    <TTGlyph name="Ucircumflex" xMin="80" yMin="-38" xMax="1831" yMax="1937">
      <contour>
        <pt x="694" y="1580" on="1"/>
        <pt x="1191" y="1937" on="1"/>
        <pt x="1688" y="1580" on="1"/>
        <pt x="1630" y="1504" on="1"/>
        <pt x="1191" y="1652" on="1"/>
        <pt x="751" y="1504" on="1"/>
      </contour>
      <contour>
        <pt x="255" y="1339" on="1"/>
        <pt x="80" y="1339" on="1"/>
        <pt x="80" y="1417" on="1"/>
        <pt x="1119" y="1417" on="1"/>
        <pt x="1119" y="1339" on="1"/>
        <pt x="945" y="1339" on="1"/>
        <pt x="945" y="567" on="1"/>
        <pt x="945" y="473" on="0"/>
        <pt x="965" y="303" on="0"/>
        <pt x="1028" y="174" on="0"/>
        <pt x="1145" y="98" on="0"/>
        <pt x="1242" y="98" on="1"/>
        <pt x="1279" y="98" on="0"/>
        <pt x="1357" y="113" on="0"/>
        <pt x="1430" y="155" on="0"/>
        <pt x="1495" y="229" on="0"/>
        <pt x="1544" y="346" on="0"/>
        <pt x="1572" y="511" on="0"/>
        <pt x="1572" y="624" on="1"/>
        <pt x="1572" y="1280" on="1"/>
        <pt x="1572" y="1309" on="0"/>
        <pt x="1483" y="1339" on="0"/>
        <pt x="1396" y="1339" on="1"/>
        <pt x="1396" y="1417" on="1"/>
        <pt x="1831" y="1417" on="1"/>
        <pt x="1831" y="1339" on="1"/>
        <pt x="1745" y="1339" on="0"/>
        <pt x="1657" y="1309" on="0"/>
        <pt x="1657" y="1280" on="1"/>
        <pt x="1657" y="652" on="1"/>
        <pt x="1657" y="470" on="0"/>
        <pt x="1590" y="209" on="0"/>
        <pt x="1431" y="41" on="0"/>
        <pt x="1168" y="-38" on="0"/>
        <pt x="972" y="-38" on="1"/>
        <pt x="836" y="-38" on="0"/>
        <pt x="624" y="10" on="0"/>
        <pt x="464" y="97" on="0"/>
        <pt x="354" y="218" on="0"/>
        <pt x="286" y="363" on="0"/>
        <pt x="255" y="527" on="0"/>
        <pt x="255" y="614" on="1"/>
      </contour>
    </TTGlyph>
    <TTGlyph name="Udieresis" xMin="80" yMin="-38" xMax="1831" yMax="1872">
      <contour>
        <pt x="1478" y="1523" on="1"/>
        <pt x="1441" y="1523" on="0"/>
        <pt x="1377" y="1550" on="0"/>
        <pt x="1330" y="1598" on="0"/>
        <pt x="1303" y="1661" on="0"/>
        <pt x="1303" y="1697" on="1"/>
        <pt x="1303" y="1733" on="0"/>
        <pt x="1330" y="1797" on="0"/>
        <pt x="1377" y="1845" on="0"/>
        <pt x="1441" y="1872" on="0"/>
        <pt x="1478" y="1872" on="1"/>
        <pt x="1514" y="1872" on="0"/>
        <pt x="1577" y="1845" on="0"/>
        <pt x="1625" y="1797" on="0"/>
        <pt x="1652" y="1733" on="0"/>
        <pt x="1652" y="1697" on="1"/>
        <pt x="1652" y="1661" on="0"/>
        <pt x="1625" y="1598" on="0"/>
        <pt x="1577" y="1550" on="0"/>
        <pt x="1514" y="1523" on="0"/>
      </contour>
      <contour>
        <pt x="906" y="1523" on="1"/>
        <pt x="870" y="1523" on="0"/>
        <pt x="806" y="1550" on="0"/>
        <pt x="758" y="1598" on="0"/>
        <pt x="731" y="1661" on="0"/>
        <pt x="731" y="1697" on="1"/>
        <pt x="731" y="1733" on="0"/>
        <pt x="758" y="1797" on="0"/>
        <pt x="806" y="1845" on="0"/>
        <pt x="870" y="1872" on="0"/>
        <pt x="906" y="1872" on="1"/>
        <pt x="942" y="1872" on="0"/>
        <pt x="1006" y="1845" on="0"/>
        <pt x="1053" y="1797" on="0"/>
        <pt x="1080" y="1733" on="0"/>
        <pt x="1080" y="1697" on="1"/>
        <pt x="1080" y="1661" on="0"/>
        <pt x="1053" y="1598" on="0"/>
        <pt x="1006" y="1550" on="0"/>
        <pt x="942" y="1523" on="0"/>
      </contour>
      <contour>
        <pt x="255" y="1339" on="1"/>
        <pt x="80" y="1339" on="1"/>
        <pt x="80" y="1417" on="1"/>
        <pt x="1119" y="1417" on="1"/>
        <pt x="1119" y="1339" on="1"/>
        <pt x="945" y="1339" on="1"/>
        <pt x="945" y="567" on="1"/>
        <pt x="945" y="473" on="0"/>
        <pt x="965" y="303" on="0"/>
        <pt x="1028" y="174" on="0"/>
        <pt x="1145" y="98" on="0"/>
        <pt x="1242" y="98" on="1"/>
        <pt x="1279" y="98" on="0"/>
        <pt x="1357" y="113" on="0"/>
        <pt x="1430" y="155" on="0"/>
        <pt x="1495" y="229" on="0"/>
        <pt x="1544" y="346" on="0"/>
        <pt x="1572" y="511" on="0"/>
        <pt x="1572" y="624" on="1"/>
        <pt x="1572" y="1280" on="1"/>
        <pt x="1572" y="1309" on="0"/>
        <pt x="1483" y="1339" on="0"/>
        <pt x="1396" y="1339" on="1"/>
        <pt x="1396" y="1417" on="1"/>
        <pt x="1831" y="1417" on="1"/>
        <pt x="1831" y="1339" on="1"/>
        <pt x="1745" y="1339" on="0"/>
        <pt x="1657" y="1309" on="0"/>
        <pt x="1657" y="1280" on="1"/>
        <pt x="1657" y="652" on="1"/>
        <pt x="1657" y="470" on="0"/>
        <pt x="1590" y="209" on="0"/>
        <pt x="1431" y="41" on="0"/>
        <pt x="1168" y="-38" on="0"/>
        <pt x="972" y="-38" on="1"/>
        <pt x="836" y="-38" on="0"/>
        <pt x="624" y="10" on="0"/>
        <pt x="464" y="97" on="0"/>
        <pt x="354" y="218" on="0"/>
        <pt x="286" y="363" on="0"/>
        <pt x="255" y="527" on="0"/>
        <pt x="255" y="614" on="1"/>
      </contour>
    </TTGlyph>
    <TTGlyph name="Ugrave" xMin="80" yMin="-38" xMax="1831" yMax="1937">
      <contour>
        <pt x="842" y="1666" on="1"/>
        <pt x="798" y="1683" on="0"/>
        <pt x="757" y="1750" on="0"/>
        <pt x="757" y="1788" on="1"/>
        <pt x="757" y="1816" on="0"/>
        <pt x="777" y="1870" on="0"/>
        <pt x="813" y="1912" on="0"/>
        <pt x="862" y="1937" on="0"/>
        <pt x="891" y="1937" on="1"/>
        <pt x="905" y="1937" on="0"/>
        <pt x="932" y="1932" on="0"/>
        <pt x="945" y="1927" on="1"/>
        <pt x="960" y="1920" on="0"/>
        <pt x="1021" y="1888" on="0"/>
        <pt x="1100" y="1844" on="0"/>
        <pt x="1192" y="1792" on="0"/>
        <pt x="1284" y="1738" on="0"/>
        <pt x="1370" y="1687" on="0"/>
        <pt x="1405" y="1667" on="1"/>
        <pt x="1439" y="1647" on="0"/>
        <pt x="1485" y="1620" on="0"/>
        <pt x="1491" y="1617" on="1"/>
        <pt x="1467" y="1548" on="1"/>
        <pt x="1459" y="1550" on="0"/>
        <pt x="1397" y="1560" on="0"/>
        <pt x="1351" y="1568" on="1"/>
        <pt x="1310" y="1575" on="0"/>
        <pt x="1210" y="1591" on="0"/>
        <pt x="1107" y="1609" on="0"/>
        <pt x="1006" y="1628" on="0"/>
        <pt x="920" y="1645" on="0"/>
        <pt x="856" y="1660" on="0"/>
      </contour>
      <contour>
        <pt x="255" y="1339" on="1"/>
        <pt x="80" y="1339" on="1"/>
        <pt x="80" y="1417" on="1"/>
        <pt x="1119" y="1417" on="1"/>
        <pt x="1119" y="1339" on="1"/>
        <pt x="945" y="1339" on="1"/>
        <pt x="945" y="567" on="1"/>
        <pt x="945" y="473" on="0"/>
        <pt x="965" y="303" on="0"/>
        <pt x="1028" y="174" on="0"/>
        <pt x="1145" y="98" on="0"/>
        <pt x="1242" y="98" on="1"/>
        <pt x="1279" y="98" on="0"/>
        <pt x="1357" y="113" on="0"/>
        <pt x="1430" y="155" on="0"/>
        <pt x="1495" y="229" on="0"/>
        <pt x="1544" y="346" on="0"/>
        <pt x="1572" y="511" on="0"/>
        <pt x="1572" y="624" on="1"/>
        <pt x="1572" y="1280" on="1"/>
        <pt x="1572" y="1309" on="0"/>
        <pt x="1483" y="1339" on="0"/>
        <pt x="1396" y="1339" on="1"/>
        <pt x="1396" y="1417" on="1"/>
        <pt x="1831" y="1417" on="1"/>
        <pt x="1831" y="1339" on="1"/>
        <pt x="1745" y="1339" on="0"/>
        <pt x="1657" y="1309" on="0"/>
        <pt x="1657" y="1280" on="1"/>
        <pt x="1657" y="652" on="1"/>
        <pt x="1657" y="470" on="0"/>
        <pt x="1590" y="209" on="0"/>
        <pt x="1431" y="41" on="0"/>
        <pt x="1168" y="-38" on="0"/>
        <pt x="972" y="-38" on="1"/>
        <pt x="836" y="-38" on="0"/>
        <pt x="624" y="10" on="0"/>
        <pt x="464" y="97" on="0"/>
        <pt x="354" y="218" on="0"/>
        <pt x="286" y="363" on="0"/>
        <pt x="255" y="527" on="0"/>
        <pt x="255" y="614" on="1"/>
      </contour>
    </TTGlyph>
    <TTGlyph name="V" xMin="-5" yMin="0" xMax="1814" yMax="1417">
      <contour>
        <pt x="142" y="1339" on="1"/>
        <pt x="-5" y="1339" on="1"/>
        <pt x="-5" y="1417" on="1"/>
        <pt x="1063" y="1417" on="1"/>
        <pt x="1063" y="1339" on="1"/>
        <pt x="887" y="1339" on="1"/>
        <pt x="1225" y="465" on="1"/>
        <pt x="1528" y="1277" on="1"/>
        <pt x="1531" y="1286" on="0"/>
        <pt x="1531" y="1293" on="1"/>
        <pt x="1531" y="1306" on="0"/>
        <pt x="1504" y="1323" on="0"/>
        <pt x="1455" y="1334" on="0"/>
        <pt x="1388" y="1339" on="0"/>
        <pt x="1348" y="1339" on="1"/>
        <pt x="1348" y="1417" on="1"/>
        <pt x="1814" y="1417" on="1"/>
        <pt x="1814" y="1339" on="1"/>
        <pt x="1726" y="1339" on="0"/>
        <pt x="1643" y="1311" on="0"/>
        <pt x="1630" y="1277" on="1"/>
        <pt x="1157" y="0" on="1"/>
        <pt x="728" y="0" on="1"/>
      </contour>
    </TTGlyph>
    <TTGlyph name="W" xMin="-5" yMin="0" xMax="2618" yMax="1417">
      <contour>
        <pt x="136" y="1339" on="1"/>
        <pt x="-5" y="1339" on="1"/>
        <pt x="-5" y="1417" on="1"/>
        <pt x="1006" y="1417" on="1"/>
        <pt x="1006" y="1339" on="1"/>
        <pt x="826" y="1339" on="1"/>
        <pt x="1103" y="519" on="1"/>
        <pt x="1253" y="1023" on="1"/>
        <pt x="1138" y="1339" on="1"/>
        <pt x="1072" y="1339" on="1"/>
        <pt x="1072" y="1417" on="1"/>
        <pt x="2008" y="1417" on="1"/>
        <pt x="2008" y="1339" on="1"/>
        <pt x="1828" y="1339" on="1"/>
        <pt x="2103" y="524" on="1"/>
        <pt x="2322" y="1277" on="1"/>
        <pt x="2325" y="1286" on="0"/>
        <pt x="2325" y="1293" on="1"/>
        <pt x="2325" y="1306" on="0"/>
        <pt x="2298" y="1323" on="0"/>
        <pt x="2249" y="1334" on="0"/>
        <pt x="2182" y="1339" on="0"/>
        <pt x="2142" y="1339" on="1"/>
        <pt x="2142" y="1417" on="1"/>
        <pt x="2618" y="1417" on="1"/>
        <pt x="2618" y="1339" on="1"/>
        <pt x="2529" y="1339" on="0"/>
        <pt x="2444" y="1312" on="0"/>
        <pt x="2433" y="1277" on="1"/>
        <pt x="2055" y="0" on="1"/>
        <pt x="1625" y="0" on="1"/>
        <pt x="1310" y="868" on="1"/>
        <pt x="1053" y="0" on="1"/>
        <pt x="624" y="0" on="1"/>
      </contour>
    </TTGlyph>
    <TTGlyph name="X" xMin="19" yMin="0" xMax="1894" yMax="1417">
      <contour>
        <pt x="19" y="79" on="1"/>
        <pt x="63" y="79" on="0"/>
        <pt x="124" y="86" on="0"/>
        <pt x="166" y="101" on="0"/>
        <pt x="194" y="125" on="0"/>
        <pt x="204" y="141" on="1"/>
        <pt x="581" y="738" on="1"/>
        <pt x="222" y="1339" on="1"/>
        <pt x="63" y="1339" on="1"/>
        <pt x="63" y="1417" on="1"/>
        <pt x="1141" y="1417" on="1"/>
        <pt x="1141" y="1339" on="1"/>
        <pt x="981" y="1339" on="1"/>
        <pt x="1277" y="843" on="1"/>
        <pt x="1558" y="1280" on="1"/>
        <pt x="1561" y="1284" on="0"/>
        <pt x="1561" y="1293" on="1"/>
        <pt x="1561" y="1306" on="0"/>
        <pt x="1534" y="1323" on="0"/>
        <pt x="1486" y="1334" on="0"/>
        <pt x="1419" y="1339" on="0"/>
        <pt x="1379" y="1339" on="1"/>
        <pt x="1379" y="1417" on="1"/>
        <pt x="1845" y="1417" on="1"/>
        <pt x="1845" y="1339" on="1"/>
        <pt x="1801" y="1339" on="0"/>
        <pt x="1739" y="1331" on="0"/>
        <pt x="1697" y="1316" on="0"/>
        <pt x="1670" y="1293" on="0"/>
        <pt x="1660" y="1277" on="1"/>
        <pt x="1330" y="754" on="1"/>
        <pt x="1734" y="79" on="1"/>
        <pt x="1894" y="79" on="1"/>
        <pt x="1894" y="0" on="1"/>
        <pt x="816" y="0" on="1"/>
        <pt x="816" y="79" on="1"/>
        <pt x="975" y="79" on="1"/>
        <pt x="634" y="649" on="1"/>
        <pt x="305" y="136" on="1"/>
        <pt x="302" y="131" on="0"/>
        <pt x="302" y="125" on="1"/>
        <pt x="302" y="111" on="0"/>
        <pt x="329" y="94" on="0"/>
        <pt x="378" y="83" on="0"/>
        <pt x="445" y="79" on="0"/>
        <pt x="485" y="79" on="1"/>
        <pt x="485" y="0" on="1"/>
        <pt x="19" y="0" on="1"/>
      </contour>
    </TTGlyph>
    <TTGlyph name="Y" xMin="-5" yMin="0" xMax="1785" yMax="1417">
      <contour>
        <pt x="404" y="79" on="1"/>
        <pt x="579" y="79" on="1"/>
        <pt x="579" y="500" on="1"/>
        <pt x="148" y="1339" on="1"/>
        <pt x="-5" y="1339" on="1"/>
        <pt x="-5" y="1417" on="1"/>
        <pt x="1063" y="1417" on="1"/>
        <pt x="1063" y="1339" on="1"/>
        <pt x="893" y="1339" on="1"/>
        <pt x="1218" y="646" on="1"/>
        <pt x="1508" y="1277" on="1"/>
        <pt x="1511" y="1284" on="0"/>
        <pt x="1511" y="1294" on="1"/>
        <pt x="1511" y="1307" on="0"/>
        <pt x="1484" y="1324" on="0"/>
        <pt x="1436" y="1334" on="0"/>
        <pt x="1369" y="1339" on="0"/>
        <pt x="1329" y="1339" on="1"/>
        <pt x="1329" y="1417" on="1"/>
        <pt x="1785" y="1417" on="1"/>
        <pt x="1785" y="1339" on="1"/>
        <pt x="1741" y="1339" on="0"/>
        <pt x="1681" y="1334" on="0"/>
        <pt x="1642" y="1320" on="0"/>
        <pt x="1619" y="1296" on="0"/>
        <pt x="1610" y="1277" on="1"/>
        <pt x="1269" y="546" on="1"/>
        <pt x="1269" y="79" on="1"/>
        <pt x="1444" y="79" on="1"/>
        <pt x="1444" y="0" on="1"/>
        <pt x="404" y="0" on="1"/>
      </contour>
    </TTGlyph>
    <TTGlyph name="Yacute" xMin="-5" yMin="0" xMax="1785" yMax="1937">
      <contour>
        <pt x="916" y="1617" on="1"/>
        <pt x="922" y="1620" on="0"/>
        <pt x="968" y="1647" on="0"/>
        <pt x="1002" y="1667" on="1"/>
        <pt x="1036" y="1687" on="0"/>
        <pt x="1123" y="1738" on="0"/>
        <pt x="1215" y="1792" on="0"/>
        <pt x="1307" y="1844" on="0"/>
        <pt x="1386" y="1888" on="0"/>
        <pt x="1447" y="1920" on="0"/>
        <pt x="1462" y="1927" on="1"/>
        <pt x="1475" y="1932" on="0"/>
        <pt x="1502" y="1937" on="0"/>
        <pt x="1516" y="1937" on="1"/>
        <pt x="1544" y="1937" on="0"/>
        <pt x="1593" y="1912" on="0"/>
        <pt x="1629" y="1870" on="0"/>
        <pt x="1650" y="1816" on="0"/>
        <pt x="1650" y="1788" on="1"/>
        <pt x="1650" y="1750" on="0"/>
        <pt x="1609" y="1683" on="0"/>
        <pt x="1565" y="1666" on="1"/>
        <pt x="1550" y="1660" on="0"/>
        <pt x="1487" y="1645" on="0"/>
        <pt x="1401" y="1628" on="0"/>
        <pt x="1300" y="1609" on="0"/>
        <pt x="1197" y="1591" on="0"/>
        <pt x="1097" y="1575" on="0"/>
        <pt x="1056" y="1568" on="1"/>
        <pt x="1010" y="1560" on="0"/>
        <pt x="948" y="1550" on="0"/>
        <pt x="940" y="1548" on="1"/>
      </contour>
      <contour>
        <pt x="404" y="79" on="1"/>
        <pt x="579" y="79" on="1"/>
        <pt x="579" y="500" on="1"/>
        <pt x="148" y="1339" on="1"/>
        <pt x="-5" y="1339" on="1"/>
        <pt x="-5" y="1417" on="1"/>
        <pt x="1063" y="1417" on="1"/>
        <pt x="1063" y="1339" on="1"/>
        <pt x="893" y="1339" on="1"/>
        <pt x="1218" y="646" on="1"/>
        <pt x="1508" y="1277" on="1"/>
        <pt x="1511" y="1284" on="0"/>
        <pt x="1511" y="1294" on="1"/>
        <pt x="1511" y="1307" on="0"/>
        <pt x="1484" y="1324" on="0"/>
        <pt x="1436" y="1334" on="0"/>
        <pt x="1369" y="1339" on="0"/>
        <pt x="1329" y="1339" on="1"/>
        <pt x="1329" y="1417" on="1"/>
        <pt x="1785" y="1417" on="1"/>
        <pt x="1785" y="1339" on="1"/>
        <pt x="1741" y="1339" on="0"/>
        <pt x="1681" y="1334" on="0"/>
        <pt x="1642" y="1320" on="0"/>
        <pt x="1619" y="1296" on="0"/>
        <pt x="1610" y="1277" on="1"/>
        <pt x="1269" y="546" on="1"/>
        <pt x="1269" y="79" on="1"/>
        <pt x="1444" y="79" on="1"/>
        <pt x="1444" y="0" on="1"/>
        <pt x="404" y="0" on="1"/>
      </contour>
    </TTGlyph>
    <TTGlyph name="Z" xMin="85" yMin="0" xMax="1565" yMax="1417">
      <contour>
        <pt x="85" y="76" on="1"/>
        <pt x="823" y="1342" on="1"/>
        <pt x="454" y="1342" on="1"/>
        <pt x="440" y="1342" on="0"/>
        <pt x="402" y="1294" on="0"/>
        <pt x="359" y="1219" on="0"/>
        <pt x="315" y="1125" on="0"/>
        <pt x="275" y="1032" on="0"/>
        <pt x="242" y="950" on="0"/>
        <pt x="233" y="925" on="1"/>
        <pt x="127" y="925" on="1"/>
        <pt x="127" y="1417" on="1"/>
        <pt x="1565" y="1417" on="1"/>
        <pt x="1565" y="1342" on="1"/>
        <pt x="824" y="76" on="1"/>
        <pt x="1202" y="76" on="1"/>
        <pt x="1221" y="76" on="0"/>
        <pt x="1268" y="123" on="0"/>
        <pt x="1317" y="197" on="0"/>
        <pt x="1365" y="289" on="0"/>
        <pt x="1407" y="380" on="0"/>
        <pt x="1441" y="461" on="0"/>
        <pt x="1451" y="487" on="1"/>
        <pt x="1557" y="487" on="1"/>
        <pt x="1557" y="0" on="1"/>
        <pt x="85" y="0" on="1"/>
      </contour>
    </TTGlyph>
    <TTGlyph name="a" xMin="131" yMin="-38" xMax="1771" yMax="1151">
      <contour>
        <pt x="131" y="262" on="1"/>
        <pt x="131" y="339" on="0"/>
        <pt x="189" y="450" on="0"/>
        <pt x="295" y="527" on="0"/>
        <pt x="443" y="574" on="0"/>
        <pt x="624" y="600" on="0"/>
        <pt x="832" y="609" on="0"/>
        <pt x="944" y="609" on="1"/>
        <pt x="944" y="665" on="1"/>
        <pt x="944" y="793" on="0"/>
        <pt x="909" y="947" on="0"/>
        <pt x="838" y="1029" on="0"/>
        <pt x="734" y="1054" on="0"/>
        <pt x="665" y="1054" on="1"/>
        <pt x="628" y="1054" on="0"/>
        <pt x="545" y="1042" on="0"/>
        <pt x="513" y="1034" on="1"/>
        <pt x="559" y="1029" on="0"/>
        <pt x="637" y="993" on="0"/>
        <pt x="693" y="939" on="0"/>
        <pt x="724" y="873" on="0"/>
        <pt x="724" y="839" on="1"/>
        <pt x="724" y="797" on="0"/>
        <pt x="682" y="723" on="0"/>
        <pt x="608" y="668" on="0"/>
        <pt x="510" y="636" on="0"/>
        <pt x="454" y="636" on="1"/>
        <pt x="398" y="636" on="0"/>
        <pt x="301" y="668" on="0"/>
        <pt x="228" y="723" on="0"/>
        <pt x="186" y="797" on="0"/>
        <pt x="186" y="839" on="1"/>
        <pt x="186" y="895" on="0"/>
        <pt x="247" y="985" on="0"/>
        <pt x="352" y="1054" on="0"/>
        <pt x="495" y="1104" on="0"/>
        <pt x="659" y="1136" on="0"/>
        <pt x="836" y="1151" on="0"/>
        <pt x="924" y="1151" on="1"/>
        <pt x="1080" y="1151" on="0"/>
        <pt x="1311" y="1108" on="0"/>
        <pt x="1464" y="999" on="0"/>
        <pt x="1540" y="810" on="0"/>
        <pt x="1540" y="665" on="1"/>
        <pt x="1540" y="246" on="1"/>
        <pt x="1540" y="171" on="0"/>
        <pt x="1571" y="90" on="0"/>
        <pt x="1613" y="90" on="1"/>
        <pt x="1634" y="90" on="0"/>
        <pt x="1661" y="117" on="0"/>
        <pt x="1676" y="161" on="0"/>
        <pt x="1682" y="219" on="0"/>
        <pt x="1682" y="249" on="1"/>
        <pt x="1682" y="348" on="1"/>
        <pt x="1771" y="348" on="1"/>
        <pt x="1771" y="249" on="1"/>
        <pt x="1771" y="169" on="0"/>
        <pt x="1730" y="59" on="0"/>
        <pt x="1629" y="-9" on="0"/>
        <pt x="1460" y="-38" on="0"/>
        <pt x="1332" y="-38" on="1"/>
        <pt x="1267" y="-38" on="0"/>
        <pt x="1154" y="-24" on="0"/>
        <pt x="1061" y="10" on="0"/>
        <pt x="993" y="66" on="0"/>
        <pt x="973" y="108" on="1"/>
        <pt x="943" y="62" on="0"/>
        <pt x="843" y="5" on="0"/>
        <pt x="727" y="-27" on="0"/>
        <pt x="609" y="-38" on="0"/>
        <pt x="560" y="-38" on="1"/>
        <pt x="443" y="-38" on="0"/>
        <pt x="279" y="11" on="0"/>
        <pt x="177" y="93" on="0"/>
        <pt x="131" y="202" on="0"/>
      </contour>
      <contour>
        <pt x="708" y="273" on="1"/>
        <pt x="708" y="199" on="0"/>
        <pt x="762" y="108" on="0"/>
        <pt x="824" y="108" on="1"/>
        <pt x="876" y="108" on="0"/>
        <pt x="944" y="183" on="0"/>
        <pt x="944" y="246" on="1"/>
        <pt x="944" y="517" on="1"/>
        <pt x="872" y="517" on="0"/>
        <pt x="780" y="491" on="0"/>
        <pt x="727" y="434" on="0"/>
        <pt x="708" y="340" on="0"/>
      </contour>
    </TTGlyph>
    <TTGlyph name="aacute" xMin="131" yMin="-38" xMax="1771" yMax="1753">
      <contour>
        <pt x="615" y="1351" on="1"/>
        <pt x="620" y="1354" on="0"/>
        <pt x="648" y="1377" on="0"/>
        <pt x="670" y="1396" on="1"/>
        <pt x="698" y="1420" on="0"/>
        <pt x="774" y="1485" on="0"/>
        <pt x="859" y="1554" on="0"/>
        <pt x="945" y="1624" on="0"/>
        <pt x="1020" y="1683" on="0"/>
        <pt x="1078" y="1726" on="0"/>
        <pt x="1093" y="1735" on="1"/>
        <pt x="1110" y="1745" on="0"/>
        <pt x="1144" y="1753" on="0"/>
        <pt x="1161" y="1753" on="1"/>
        <pt x="1189" y="1753" on="0"/>
        <pt x="1238" y="1729" on="0"/>
        <pt x="1276" y="1689" on="0"/>
        <pt x="1298" y="1636" on="0"/>
        <pt x="1298" y="1608" on="1"/>
        <pt x="1298" y="1575" on="0"/>
        <pt x="1266" y="1516" on="0"/>
        <pt x="1231" y="1496" on="1"/>
        <pt x="1217" y="1488" on="0"/>
        <pt x="1151" y="1459" on="0"/>
        <pt x="1063" y="1423" on="0"/>
        <pt x="961" y="1383" on="0"/>
        <pt x="859" y="1345" on="0"/>
        <pt x="766" y="1311" on="0"/>
        <pt x="731" y="1299" on="1"/>
        <pt x="705" y="1290" on="0"/>
        <pt x="671" y="1277" on="0"/>
        <pt x="665" y="1274" on="1"/>
      </contour>
      <contour>
        <pt x="131" y="262" on="1"/>
        <pt x="131" y="339" on="0"/>
        <pt x="189" y="450" on="0"/>
        <pt x="295" y="527" on="0"/>
        <pt x="443" y="574" on="0"/>
        <pt x="624" y="600" on="0"/>
        <pt x="832" y="609" on="0"/>
        <pt x="944" y="609" on="1"/>
        <pt x="944" y="665" on="1"/>
        <pt x="944" y="793" on="0"/>
        <pt x="909" y="947" on="0"/>
        <pt x="838" y="1029" on="0"/>
        <pt x="734" y="1054" on="0"/>
        <pt x="665" y="1054" on="1"/>
        <pt x="628" y="1054" on="0"/>
        <pt x="545" y="1042" on="0"/>
        <pt x="513" y="1034" on="1"/>
        <pt x="559" y="1029" on="0"/>
        <pt x="637" y="993" on="0"/>
        <pt x="693" y="939" on="0"/>
        <pt x="724" y="873" on="0"/>
        <pt x="724" y="839" on="1"/>
        <pt x="724" y="797" on="0"/>
        <pt x="682" y="723" on="0"/>
        <pt x="608" y="668" on="0"/>
        <pt x="510" y="636" on="0"/>
        <pt x="454" y="636" on="1"/>
        <pt x="398" y="636" on="0"/>
        <pt x="301" y="668" on="0"/>
        <pt x="228" y="723" on="0"/>
        <pt x="186" y="797" on="0"/>
        <pt x="186" y="839" on="1"/>
        <pt x="186" y="895" on="0"/>
        <pt x="247" y="985" on="0"/>
        <pt x="352" y="1054" on="0"/>
        <pt x="495" y="1104" on="0"/>
        <pt x="659" y="1136" on="0"/>
        <pt x="836" y="1151" on="0"/>
        <pt x="924" y="1151" on="1"/>
        <pt x="1080" y="1151" on="0"/>
        <pt x="1311" y="1108" on="0"/>
        <pt x="1464" y="999" on="0"/>
        <pt x="1540" y="810" on="0"/>
        <pt x="1540" y="665" on="1"/>
        <pt x="1540" y="246" on="1"/>
        <pt x="1540" y="171" on="0"/>
        <pt x="1571" y="90" on="0"/>
        <pt x="1613" y="90" on="1"/>
        <pt x="1634" y="90" on="0"/>
        <pt x="1661" y="117" on="0"/>
        <pt x="1676" y="161" on="0"/>
        <pt x="1682" y="219" on="0"/>
        <pt x="1682" y="249" on="1"/>
        <pt x="1682" y="348" on="1"/>
        <pt x="1771" y="348" on="1"/>
        <pt x="1771" y="249" on="1"/>
        <pt x="1771" y="169" on="0"/>
        <pt x="1730" y="59" on="0"/>
        <pt x="1629" y="-9" on="0"/>
        <pt x="1460" y="-38" on="0"/>
        <pt x="1332" y="-38" on="1"/>
        <pt x="1267" y="-38" on="0"/>
        <pt x="1154" y="-24" on="0"/>
        <pt x="1061" y="10" on="0"/>
        <pt x="993" y="66" on="0"/>
        <pt x="973" y="108" on="1"/>
        <pt x="943" y="62" on="0"/>
        <pt x="843" y="5" on="0"/>
        <pt x="727" y="-27" on="0"/>
        <pt x="609" y="-38" on="0"/>
        <pt x="560" y="-38" on="1"/>
        <pt x="443" y="-38" on="0"/>
        <pt x="279" y="11" on="0"/>
        <pt x="177" y="93" on="0"/>
        <pt x="131" y="202" on="0"/>
      </contour>
      <contour>
        <pt x="708" y="273" on="1"/>
        <pt x="708" y="199" on="0"/>
        <pt x="762" y="108" on="0"/>
        <pt x="824" y="108" on="1"/>
        <pt x="876" y="108" on="0"/>
        <pt x="944" y="183" on="0"/>
        <pt x="944" y="246" on="1"/>
        <pt x="944" y="517" on="1"/>
        <pt x="872" y="517" on="0"/>
        <pt x="780" y="491" on="0"/>
        <pt x="727" y="434" on="0"/>
        <pt x="708" y="340" on="0"/>
      </contour>
    </TTGlyph>
    <TTGlyph name="acircumflex" xMin="131" yMin="-38" xMax="1771" yMax="1766">
      <contour>
        <pt x="428" y="1329" on="1"/>
        <pt x="915" y="1766" on="1"/>
        <pt x="1402" y="1329" on="1"/>
        <pt x="1354" y="1263" on="1"/>
        <pt x="915" y="1461" on="1"/>
        <pt x="475" y="1263" on="1"/>
      </contour>
      <contour>
        <pt x="131" y="262" on="1"/>
        <pt x="131" y="339" on="0"/>
        <pt x="189" y="450" on="0"/>
        <pt x="295" y="527" on="0"/>
        <pt x="443" y="574" on="0"/>
        <pt x="624" y="600" on="0"/>
        <pt x="832" y="609" on="0"/>
        <pt x="944" y="609" on="1"/>
        <pt x="944" y="665" on="1"/>
        <pt x="944" y="793" on="0"/>
        <pt x="909" y="947" on="0"/>
        <pt x="838" y="1029" on="0"/>
        <pt x="734" y="1054" on="0"/>
        <pt x="665" y="1054" on="1"/>
        <pt x="628" y="1054" on="0"/>
        <pt x="545" y="1042" on="0"/>
        <pt x="513" y="1034" on="1"/>
        <pt x="559" y="1029" on="0"/>
        <pt x="637" y="993" on="0"/>
        <pt x="693" y="939" on="0"/>
        <pt x="724" y="873" on="0"/>
        <pt x="724" y="839" on="1"/>
        <pt x="724" y="797" on="0"/>
        <pt x="682" y="723" on="0"/>
        <pt x="608" y="668" on="0"/>
        <pt x="510" y="636" on="0"/>
        <pt x="454" y="636" on="1"/>
        <pt x="398" y="636" on="0"/>
        <pt x="301" y="668" on="0"/>
        <pt x="228" y="723" on="0"/>
        <pt x="186" y="797" on="0"/>
        <pt x="186" y="839" on="1"/>
        <pt x="186" y="895" on="0"/>
        <pt x="247" y="985" on="0"/>
        <pt x="352" y="1054" on="0"/>
        <pt x="495" y="1104" on="0"/>
        <pt x="659" y="1136" on="0"/>
        <pt x="836" y="1151" on="0"/>
        <pt x="924" y="1151" on="1"/>
        <pt x="1080" y="1151" on="0"/>
        <pt x="1311" y="1108" on="0"/>
        <pt x="1464" y="999" on="0"/>
        <pt x="1540" y="810" on="0"/>
        <pt x="1540" y="665" on="1"/>
        <pt x="1540" y="246" on="1"/>
        <pt x="1540" y="171" on="0"/>
        <pt x="1571" y="90" on="0"/>
        <pt x="1613" y="90" on="1"/>
        <pt x="1634" y="90" on="0"/>
        <pt x="1661" y="117" on="0"/>
        <pt x="1676" y="161" on="0"/>
        <pt x="1682" y="219" on="0"/>
        <pt x="1682" y="249" on="1"/>
        <pt x="1682" y="348" on="1"/>
        <pt x="1771" y="348" on="1"/>
        <pt x="1771" y="249" on="1"/>
        <pt x="1771" y="169" on="0"/>
        <pt x="1730" y="59" on="0"/>
        <pt x="1629" y="-9" on="0"/>
        <pt x="1460" y="-38" on="0"/>
        <pt x="1332" y="-38" on="1"/>
        <pt x="1267" y="-38" on="0"/>
        <pt x="1154" y="-24" on="0"/>
        <pt x="1061" y="10" on="0"/>
        <pt x="993" y="66" on="0"/>
        <pt x="973" y="108" on="1"/>
        <pt x="943" y="62" on="0"/>
        <pt x="843" y="5" on="0"/>
        <pt x="727" y="-27" on="0"/>
        <pt x="609" y="-38" on="0"/>
        <pt x="560" y="-38" on="1"/>
        <pt x="443" y="-38" on="0"/>
        <pt x="279" y="11" on="0"/>
        <pt x="177" y="93" on="0"/>
        <pt x="131" y="202" on="0"/>
      </contour>
      <contour>
        <pt x="708" y="273" on="1"/>
        <pt x="708" y="199" on="0"/>
        <pt x="762" y="108" on="0"/>
        <pt x="824" y="108" on="1"/>
        <pt x="876" y="108" on="0"/>
        <pt x="944" y="183" on="0"/>
        <pt x="944" y="246" on="1"/>
        <pt x="944" y="517" on="1"/>
        <pt x="872" y="517" on="0"/>
        <pt x="780" y="491" on="0"/>
        <pt x="727" y="434" on="0"/>
        <pt x="708" y="340" on="0"/>
      </contour>
    </TTGlyph>
    <TTGlyph name="acute" xMin="129" yMin="1274" xMax="812" yMax="1753">
      <contour>
        <pt x="129" y="1351" on="1"/>
        <pt x="134" y="1354" on="0"/>
        <pt x="162" y="1377" on="0"/>
        <pt x="184" y="1396" on="1"/>
        <pt x="212" y="1420" on="0"/>
        <pt x="288" y="1485" on="0"/>
        <pt x="373" y="1554" on="0"/>
        <pt x="459" y="1624" on="0"/>
        <pt x="534" y="1683" on="0"/>
        <pt x="592" y="1726" on="0"/>
        <pt x="607" y="1735" on="1"/>
        <pt x="624" y="1745" on="0"/>
        <pt x="658" y="1753" on="0"/>
        <pt x="675" y="1753" on="1"/>
        <pt x="703" y="1753" on="0"/>
        <pt x="752" y="1729" on="0"/>
        <pt x="790" y="1689" on="0"/>
        <pt x="812" y="1636" on="0"/>
        <pt x="812" y="1608" on="1"/>
        <pt x="812" y="1575" on="0"/>
        <pt x="780" y="1516" on="0"/>
        <pt x="745" y="1496" on="1"/>
        <pt x="731" y="1488" on="0"/>
        <pt x="665" y="1459" on="0"/>
        <pt x="577" y="1423" on="0"/>
        <pt x="475" y="1383" on="0"/>
        <pt x="373" y="1345" on="0"/>
        <pt x="280" y="1311" on="0"/>
        <pt x="245" y="1299" on="1"/>
        <pt x="219" y="1290" on="0"/>
        <pt x="185" y="1277" on="0"/>
        <pt x="179" y="1274" on="1"/>
      </contour>
    </TTGlyph>
    <TTGlyph name="acute.case" xMin="130" yMin="1333" xMax="864" yMax="1722">
      <contour>
        <pt x="130" y="1402" on="1"/>
        <pt x="136" y="1405" on="0"/>
        <pt x="182" y="1432" on="0"/>
        <pt x="216" y="1452" on="1"/>
        <pt x="250" y="1473" on="0"/>
        <pt x="337" y="1523" on="0"/>
        <pt x="429" y="1577" on="0"/>
        <pt x="521" y="1629" on="0"/>
        <pt x="600" y="1673" on="0"/>
        <pt x="661" y="1705" on="0"/>
        <pt x="676" y="1712" on="1"/>
        <pt x="689" y="1717" on="0"/>
        <pt x="716" y="1722" on="0"/>
        <pt x="730" y="1722" on="1"/>
        <pt x="758" y="1722" on="0"/>
        <pt x="807" y="1697" on="0"/>
        <pt x="843" y="1655" on="0"/>
        <pt x="864" y="1601" on="0"/>
        <pt x="864" y="1573" on="1"/>
        <pt x="864" y="1535" on="0"/>
        <pt x="823" y="1468" on="0"/>
        <pt x="779" y="1451" on="1"/>
        <pt x="764" y="1445" on="0"/>
        <pt x="701" y="1430" on="0"/>
        <pt x="615" y="1413" on="0"/>
        <pt x="514" y="1394" on="0"/>
        <pt x="411" y="1376" on="0"/>
        <pt x="311" y="1360" on="0"/>
        <pt x="270" y="1353" on="1"/>
        <pt x="224" y="1345" on="0"/>
        <pt x="162" y="1335" on="0"/>
        <pt x="154" y="1333" on="1"/>
      </contour>
    </TTGlyph>
    <TTGlyph name="adieresis" xMin="131" yMin="-38" xMax="1771" yMax="1665">
      <contour>
        <pt x="1198" y="1316" on="1"/>
        <pt x="1161" y="1316" on="0"/>
        <pt x="1097" y="1343" on="0"/>
        <pt x="1050" y="1391" on="0"/>
        <pt x="1023" y="1454" on="0"/>
        <pt x="1023" y="1490" on="1"/>
        <pt x="1023" y="1526" on="0"/>
        <pt x="1050" y="1590" on="0"/>
        <pt x="1097" y="1638" on="0"/>
        <pt x="1161" y="1665" on="0"/>
        <pt x="1198" y="1665" on="1"/>
        <pt x="1234" y="1665" on="0"/>
        <pt x="1297" y="1638" on="0"/>
        <pt x="1345" y="1590" on="0"/>
        <pt x="1372" y="1526" on="0"/>
        <pt x="1372" y="1490" on="1"/>
        <pt x="1372" y="1454" on="0"/>
        <pt x="1345" y="1391" on="0"/>
        <pt x="1297" y="1343" on="0"/>
        <pt x="1234" y="1316" on="0"/>
      </contour>
      <contour>
        <pt x="626" y="1316" on="1"/>
        <pt x="590" y="1316" on="0"/>
        <pt x="526" y="1343" on="0"/>
        <pt x="478" y="1391" on="0"/>
        <pt x="451" y="1454" on="0"/>
        <pt x="451" y="1490" on="1"/>
        <pt x="451" y="1526" on="0"/>
        <pt x="478" y="1590" on="0"/>
        <pt x="526" y="1638" on="0"/>
        <pt x="590" y="1665" on="0"/>
        <pt x="626" y="1665" on="1"/>
        <pt x="662" y="1665" on="0"/>
        <pt x="726" y="1638" on="0"/>
        <pt x="773" y="1590" on="0"/>
        <pt x="800" y="1526" on="0"/>
        <pt x="800" y="1490" on="1"/>
        <pt x="800" y="1454" on="0"/>
        <pt x="773" y="1391" on="0"/>
        <pt x="726" y="1343" on="0"/>
        <pt x="662" y="1316" on="0"/>
      </contour>
      <contour>
        <pt x="131" y="262" on="1"/>
        <pt x="131" y="339" on="0"/>
        <pt x="189" y="450" on="0"/>
        <pt x="295" y="527" on="0"/>
        <pt x="443" y="574" on="0"/>
        <pt x="624" y="600" on="0"/>
        <pt x="832" y="609" on="0"/>
        <pt x="944" y="609" on="1"/>
        <pt x="944" y="665" on="1"/>
        <pt x="944" y="793" on="0"/>
        <pt x="909" y="947" on="0"/>
        <pt x="838" y="1029" on="0"/>
        <pt x="734" y="1054" on="0"/>
        <pt x="665" y="1054" on="1"/>
        <pt x="628" y="1054" on="0"/>
        <pt x="545" y="1042" on="0"/>
        <pt x="513" y="1034" on="1"/>
        <pt x="559" y="1029" on="0"/>
        <pt x="637" y="993" on="0"/>
        <pt x="693" y="939" on="0"/>
        <pt x="724" y="873" on="0"/>
        <pt x="724" y="839" on="1"/>
        <pt x="724" y="797" on="0"/>
        <pt x="682" y="723" on="0"/>
        <pt x="608" y="668" on="0"/>
        <pt x="510" y="636" on="0"/>
        <pt x="454" y="636" on="1"/>
        <pt x="398" y="636" on="0"/>
        <pt x="301" y="668" on="0"/>
        <pt x="228" y="723" on="0"/>
        <pt x="186" y="797" on="0"/>
        <pt x="186" y="839" on="1"/>
        <pt x="186" y="895" on="0"/>
        <pt x="247" y="985" on="0"/>
        <pt x="352" y="1054" on="0"/>
        <pt x="495" y="1104" on="0"/>
        <pt x="659" y="1136" on="0"/>
        <pt x="836" y="1151" on="0"/>
        <pt x="924" y="1151" on="1"/>
        <pt x="1080" y="1151" on="0"/>
        <pt x="1311" y="1108" on="0"/>
        <pt x="1464" y="999" on="0"/>
        <pt x="1540" y="810" on="0"/>
        <pt x="1540" y="665" on="1"/>
        <pt x="1540" y="246" on="1"/>
        <pt x="1540" y="171" on="0"/>
        <pt x="1571" y="90" on="0"/>
        <pt x="1613" y="90" on="1"/>
        <pt x="1634" y="90" on="0"/>
        <pt x="1661" y="117" on="0"/>
        <pt x="1676" y="161" on="0"/>
        <pt x="1682" y="219" on="0"/>
        <pt x="1682" y="249" on="1"/>
        <pt x="1682" y="348" on="1"/>
        <pt x="1771" y="348" on="1"/>
        <pt x="1771" y="249" on="1"/>
        <pt x="1771" y="169" on="0"/>
        <pt x="1730" y="59" on="0"/>
        <pt x="1629" y="-9" on="0"/>
        <pt x="1460" y="-38" on="0"/>
        <pt x="1332" y="-38" on="1"/>
        <pt x="1267" y="-38" on="0"/>
        <pt x="1154" y="-24" on="0"/>
        <pt x="1061" y="10" on="0"/>
        <pt x="993" y="66" on="0"/>
        <pt x="973" y="108" on="1"/>
        <pt x="943" y="62" on="0"/>
        <pt x="843" y="5" on="0"/>
        <pt x="727" y="-27" on="0"/>
        <pt x="609" y="-38" on="0"/>
        <pt x="560" y="-38" on="1"/>
        <pt x="443" y="-38" on="0"/>
        <pt x="279" y="11" on="0"/>
        <pt x="177" y="93" on="0"/>
        <pt x="131" y="202" on="0"/>
      </contour>
      <contour>
        <pt x="708" y="273" on="1"/>
        <pt x="708" y="199" on="0"/>
        <pt x="762" y="108" on="0"/>
        <pt x="824" y="108" on="1"/>
        <pt x="876" y="108" on="0"/>
        <pt x="944" y="183" on="0"/>
        <pt x="944" y="246" on="1"/>
        <pt x="944" y="517" on="1"/>
        <pt x="872" y="517" on="0"/>
        <pt x="780" y="491" on="0"/>
        <pt x="727" y="434" on="0"/>
        <pt x="708" y="340" on="0"/>
      </contour>
    </TTGlyph>
    <TTGlyph name="ae" xMin="136" yMin="-38" xMax="2367" yMax="1151">
      <contour>
        <pt x="136" y="262" on="1"/>
        <pt x="136" y="339" on="0"/>
        <pt x="194" y="450" on="0"/>
        <pt x="300" y="527" on="0"/>
        <pt x="448" y="574" on="0"/>
        <pt x="629" y="600" on="0"/>
        <pt x="837" y="609" on="0"/>
        <pt x="949" y="609" on="1"/>
        <pt x="949" y="665" on="1"/>
        <pt x="949" y="793" on="0"/>
        <pt x="914" y="947" on="0"/>
        <pt x="843" y="1029" on="0"/>
        <pt x="739" y="1054" on="0"/>
        <pt x="670" y="1054" on="1"/>
        <pt x="633" y="1054" on="0"/>
        <pt x="550" y="1042" on="0"/>
        <pt x="518" y="1034" on="1"/>
        <pt x="564" y="1029" on="0"/>
        <pt x="642" y="993" on="0"/>
        <pt x="698" y="939" on="0"/>
        <pt x="729" y="873" on="0"/>
        <pt x="729" y="839" on="1"/>
        <pt x="729" y="797" on="0"/>
        <pt x="687" y="723" on="0"/>
        <pt x="613" y="668" on="0"/>
        <pt x="515" y="636" on="0"/>
        <pt x="459" y="636" on="1"/>
        <pt x="403" y="636" on="0"/>
        <pt x="306" y="668" on="0"/>
        <pt x="233" y="723" on="0"/>
        <pt x="191" y="797" on="0"/>
        <pt x="191" y="839" on="1"/>
        <pt x="191" y="895" on="0"/>
        <pt x="252" y="985" on="0"/>
        <pt x="357" y="1054" on="0"/>
        <pt x="500" y="1104" on="0"/>
        <pt x="664" y="1136" on="0"/>
        <pt x="841" y="1151" on="0"/>
        <pt x="929" y="1151" on="1"/>
        <pt x="1058" y="1151" on="0"/>
        <pt x="1258" y="1122" on="0"/>
        <pt x="1333" y="1087" on="1"/>
        <pt x="1491" y="1151" on="0"/>
        <pt x="1687" y="1151" on="1"/>
        <pt x="1807" y="1151" on="0"/>
        <pt x="2002" y="1103" on="0"/>
        <pt x="2153" y="1020" on="0"/>
        <pt x="2262" y="906" on="0"/>
        <pt x="2333" y="774" on="0"/>
        <pt x="2367" y="629" on="0"/>
        <pt x="2367" y="556" on="1"/>
        <pt x="1565" y="556" on="1"/>
        <pt x="1565" y="403" on="0"/>
        <pt x="1592" y="211" on="0"/>
        <pt x="1651" y="102" on="0"/>
        <pt x="1744" y="62" on="0"/>
        <pt x="1810" y="62" on="1"/>
        <pt x="1894" y="62" on="0"/>
        <pt x="2042" y="104" on="0"/>
        <pt x="2159" y="181" on="0"/>
        <pt x="2237" y="290" on="0"/>
        <pt x="2251" y="358" on="1"/>
        <pt x="2345" y="358" on="1"/>
        <pt x="2340" y="267" on="0"/>
        <pt x="2247" y="120" on="0"/>
        <pt x="2090" y="17" on="0"/>
        <pt x="1877" y="-38" on="0"/>
        <pt x="1753" y="-38" on="1"/>
        <pt x="1591" y="-38" on="0"/>
        <pt x="1359" y="-6" on="0"/>
        <pt x="1197" y="52" on="0"/>
        <pt x="1094" y="130" on="0"/>
        <pt x="1062" y="177" on="1"/>
        <pt x="1040" y="133" on="0"/>
        <pt x="968" y="66" on="0"/>
        <pt x="879" y="19" on="0"/>
        <pt x="781" y="-12" on="0"/>
        <pt x="684" y="-31" on="0"/>
        <pt x="597" y="-38" on="0"/>
        <pt x="565" y="-38" on="1"/>
        <pt x="448" y="-38" on="0"/>
        <pt x="284" y="11" on="0"/>
        <pt x="182" y="93" on="0"/>
        <pt x="136" y="202" on="0"/>
      </contour>
      <contour>
        <pt x="1846" y="657" on="1"/>
        <pt x="1843" y="782" on="0"/>
        <pt x="1825" y="948" on="0"/>
        <pt x="1791" y="1048" on="0"/>
        <pt x="1741" y="1089" on="0"/>
        <pt x="1706" y="1089" on="1"/>
        <pt x="1671" y="1089" on="0"/>
        <pt x="1620" y="1048" on="0"/>
        <pt x="1586" y="948" on="0"/>
        <pt x="1568" y="782" on="0"/>
        <pt x="1566" y="657" on="1"/>
      </contour>
      <contour>
        <pt x="713" y="273" on="1"/>
        <pt x="713" y="199" on="0"/>
        <pt x="767" y="108" on="0"/>
        <pt x="829" y="108" on="1"/>
        <pt x="881" y="108" on="0"/>
        <pt x="949" y="183" on="0"/>
        <pt x="949" y="246" on="1"/>
        <pt x="949" y="517" on="1"/>
        <pt x="877" y="517" on="0"/>
        <pt x="785" y="491" on="0"/>
        <pt x="732" y="434" on="0"/>
        <pt x="713" y="340" on="0"/>
      </contour>
    </TTGlyph>
    <TTGlyph name="agrave" xMin="131" yMin="-38" xMax="1771" yMax="1752">
      <contour>
        <pt x="619" y="1495" on="1"/>
        <pt x="584" y="1515" on="0"/>
        <pt x="552" y="1574" on="0"/>
        <pt x="552" y="1607" on="1"/>
        <pt x="552" y="1635" on="0"/>
        <pt x="574" y="1688" on="0"/>
        <pt x="611" y="1728" on="0"/>
        <pt x="661" y="1752" on="0"/>
        <pt x="689" y="1752" on="1"/>
        <pt x="706" y="1752" on="0"/>
        <pt x="740" y="1744" on="0"/>
        <pt x="757" y="1734" on="1"/>
        <pt x="771" y="1726" on="0"/>
        <pt x="830" y="1682" on="0"/>
        <pt x="905" y="1623" on="0"/>
        <pt x="991" y="1553" on="0"/>
        <pt x="1076" y="1484" on="0"/>
        <pt x="1152" y="1419" on="0"/>
        <pt x="1180" y="1395" on="1"/>
        <pt x="1202" y="1376" on="0"/>
        <pt x="1230" y="1353" on="0"/>
        <pt x="1235" y="1350" on="1"/>
        <pt x="1185" y="1273" on="1"/>
        <pt x="1179" y="1276" on="0"/>
        <pt x="1145" y="1289" on="0"/>
        <pt x="1119" y="1298" on="1"/>
        <pt x="1084" y="1310" on="0"/>
        <pt x="991" y="1344" on="0"/>
        <pt x="889" y="1382" on="0"/>
        <pt x="787" y="1422" on="0"/>
        <pt x="699" y="1458" on="0"/>
        <pt x="633" y="1487" on="0"/>
      </contour>
      <contour>
        <pt x="131" y="262" on="1"/>
        <pt x="131" y="339" on="0"/>
        <pt x="189" y="450" on="0"/>
        <pt x="295" y="527" on="0"/>
        <pt x="443" y="574" on="0"/>
        <pt x="624" y="600" on="0"/>
        <pt x="832" y="609" on="0"/>
        <pt x="944" y="609" on="1"/>
        <pt x="944" y="665" on="1"/>
        <pt x="944" y="793" on="0"/>
        <pt x="909" y="947" on="0"/>
        <pt x="838" y="1029" on="0"/>
        <pt x="734" y="1054" on="0"/>
        <pt x="665" y="1054" on="1"/>
        <pt x="628" y="1054" on="0"/>
        <pt x="545" y="1042" on="0"/>
        <pt x="513" y="1034" on="1"/>
        <pt x="559" y="1029" on="0"/>
        <pt x="637" y="993" on="0"/>
        <pt x="693" y="939" on="0"/>
        <pt x="724" y="873" on="0"/>
        <pt x="724" y="839" on="1"/>
        <pt x="724" y="797" on="0"/>
        <pt x="682" y="723" on="0"/>
        <pt x="608" y="668" on="0"/>
        <pt x="510" y="636" on="0"/>
        <pt x="454" y="636" on="1"/>
        <pt x="398" y="636" on="0"/>
        <pt x="301" y="668" on="0"/>
        <pt x="228" y="723" on="0"/>
        <pt x="186" y="797" on="0"/>
        <pt x="186" y="839" on="1"/>
        <pt x="186" y="895" on="0"/>
        <pt x="247" y="985" on="0"/>
        <pt x="352" y="1054" on="0"/>
        <pt x="495" y="1104" on="0"/>
        <pt x="659" y="1136" on="0"/>
        <pt x="836" y="1151" on="0"/>
        <pt x="924" y="1151" on="1"/>
        <pt x="1080" y="1151" on="0"/>
        <pt x="1311" y="1108" on="0"/>
        <pt x="1464" y="999" on="0"/>
        <pt x="1540" y="810" on="0"/>
        <pt x="1540" y="665" on="1"/>
        <pt x="1540" y="246" on="1"/>
        <pt x="1540" y="171" on="0"/>
        <pt x="1571" y="90" on="0"/>
        <pt x="1613" y="90" on="1"/>
        <pt x="1634" y="90" on="0"/>
        <pt x="1661" y="117" on="0"/>
        <pt x="1676" y="161" on="0"/>
        <pt x="1682" y="219" on="0"/>
        <pt x="1682" y="249" on="1"/>
        <pt x="1682" y="348" on="1"/>
        <pt x="1771" y="348" on="1"/>
        <pt x="1771" y="249" on="1"/>
        <pt x="1771" y="169" on="0"/>
        <pt x="1730" y="59" on="0"/>
        <pt x="1629" y="-9" on="0"/>
        <pt x="1460" y="-38" on="0"/>
        <pt x="1332" y="-38" on="1"/>
        <pt x="1267" y="-38" on="0"/>
        <pt x="1154" y="-24" on="0"/>
        <pt x="1061" y="10" on="0"/>
        <pt x="993" y="66" on="0"/>
        <pt x="973" y="108" on="1"/>
        <pt x="943" y="62" on="0"/>
        <pt x="843" y="5" on="0"/>
        <pt x="727" y="-27" on="0"/>
        <pt x="609" y="-38" on="0"/>
        <pt x="560" y="-38" on="1"/>
        <pt x="443" y="-38" on="0"/>
        <pt x="279" y="11" on="0"/>
        <pt x="177" y="93" on="0"/>
        <pt x="131" y="202" on="0"/>
      </contour>
      <contour>
        <pt x="708" y="273" on="1"/>
        <pt x="708" y="199" on="0"/>
        <pt x="762" y="108" on="0"/>
        <pt x="824" y="108" on="1"/>
        <pt x="876" y="108" on="0"/>
        <pt x="944" y="183" on="0"/>
        <pt x="944" y="246" on="1"/>
        <pt x="944" y="517" on="1"/>
        <pt x="872" y="517" on="0"/>
        <pt x="780" y="491" on="0"/>
        <pt x="727" y="434" on="0"/>
        <pt x="708" y="340" on="0"/>
      </contour>
    </TTGlyph>
    <TTGlyph name="ampersand" xMin="77" yMin="-38" xMax="1829" yMax="1455">
      <contour>
        <pt x="77" y="297" on="1"/>
        <pt x="77" y="373" on="0"/>
        <pt x="135" y="496" on="0"/>
        <pt x="240" y="595" on="0"/>
        <pt x="386" y="672" on="0"/>
        <pt x="473" y="702" on="1"/>
        <pt x="436" y="747" on="0"/>
        <pt x="380" y="832" on="0"/>
        <pt x="342" y="916" on="0"/>
        <pt x="322" y="1002" on="0"/>
        <pt x="322" y="1048" on="1"/>
        <pt x="322" y="1127" on="0"/>
        <pt x="387" y="1274" on="0"/>
        <pt x="514" y="1387" on="0"/>
        <pt x="701" y="1455" on="0"/>
        <pt x="823" y="1455" on="1"/>
        <pt x="876" y="1455" on="0"/>
        <pt x="988" y="1447" on="0"/>
        <pt x="1094" y="1424" on="0"/>
        <pt x="1187" y="1383" on="0"/>
        <pt x="1258" y="1317" on="0"/>
        <pt x="1299" y="1224" on="0"/>
        <pt x="1299" y="1161" on="1"/>
        <pt x="1299" y="1103" on="0"/>
        <pt x="1264" y="1006" on="0"/>
        <pt x="1201" y="926" on="0"/>
        <pt x="1113" y="860" on="0"/>
        <pt x="1061" y="834" on="1"/>
        <pt x="1130" y="749" on="0"/>
        <pt x="1268" y="595" on="0"/>
        <pt x="1334" y="531" on="1"/>
        <pt x="1440" y="695" on="1"/>
        <pt x="1444" y="702" on="0"/>
        <pt x="1444" y="711" on="1"/>
        <pt x="1444" y="724" on="0"/>
        <pt x="1417" y="741" on="0"/>
        <pt x="1368" y="752" on="0"/>
        <pt x="1301" y="757" on="0"/>
        <pt x="1262" y="757" on="1"/>
        <pt x="1262" y="829" on="1"/>
        <pt x="1737" y="829" on="1"/>
        <pt x="1737" y="757" on="1"/>
        <pt x="1692" y="757" on="0"/>
        <pt x="1631" y="749" on="0"/>
        <pt x="1590" y="732" on="0"/>
        <pt x="1563" y="709" on="0"/>
        <pt x="1553" y="694" on="1"/>
        <pt x="1514" y="637" on="0"/>
        <pt x="1439" y="525" on="0"/>
        <pt x="1401" y="468" on="1"/>
        <pt x="1435" y="437" on="0"/>
        <pt x="1493" y="389" on="0"/>
        <pt x="1549" y="356" on="0"/>
        <pt x="1604" y="338" on="0"/>
        <pt x="1634" y="338" on="1"/>
        <pt x="1688" y="338" on="0"/>
        <pt x="1756" y="405" on="0"/>
        <pt x="1756" y="474" on="1"/>
        <pt x="1820" y="474" on="1"/>
        <pt x="1829" y="403" on="0"/>
        <pt x="1829" y="344" on="1"/>
        <pt x="1829" y="241" on="0"/>
        <pt x="1770" y="96" on="0"/>
        <pt x="1657" y="4" on="0"/>
        <pt x="1495" y="-38" on="0"/>
        <pt x="1392" y="-38" on="1"/>
        <pt x="1302" y="-38" on="0"/>
        <pt x="1149" y="9" on="0"/>
        <pt x="1073" y="61" on="1"/>
        <pt x="1038" y="39" on="0"/>
        <pt x="952" y="2" on="0"/>
        <pt x="844" y="-24" on="0"/>
        <pt x="711" y="-38" on="0"/>
        <pt x="630" y="-38" on="1"/>
        <pt x="502" y="-38" on="0"/>
        <pt x="298" y="3" on="0"/>
        <pt x="154" y="85" on="0"/>
        <pt x="77" y="211" on="0"/>
      </contour>
      <contour>
        <pt x="1020" y="885" on="1"/>
        <pt x="1055" y="916" on="0"/>
        <pt x="1110" y="992" on="0"/>
        <pt x="1148" y="1074" on="0"/>
        <pt x="1168" y="1160" on="0"/>
        <pt x="1168" y="1202" on="1"/>
        <pt x="1168" y="1235" on="0"/>
        <pt x="1149" y="1293" on="0"/>
        <pt x="1113" y="1337" on="0"/>
        <pt x="1061" y="1362" on="0"/>
        <pt x="1028" y="1362" on="1"/>
        <pt x="1001" y="1362" on="0"/>
        <pt x="954" y="1336" on="0"/>
        <pt x="918" y="1291" on="0"/>
        <pt x="897" y="1229" on="0"/>
        <pt x="897" y="1193" on="1"/>
        <pt x="897" y="1106" on="0"/>
        <pt x="964" y="951" on="0"/>
      </contour>
      <contour>
        <pt x="477" y="529" on="1"/>
        <pt x="477" y="487" on="0"/>
        <pt x="514" y="389" on="0"/>
        <pt x="575" y="291" on="0"/>
        <pt x="654" y="200" on="0"/>
        <pt x="740" y="131" on="0"/>
        <pt x="827" y="89" on="0"/>
        <pt x="865" y="89" on="1"/>
        <pt x="903" y="89" on="0"/>
        <pt x="968" y="104" on="0"/>
        <pt x="997" y="118" on="1"/>
        <pt x="950" y="158" on="0"/>
        <pt x="849" y="260" on="0"/>
        <pt x="735" y="388" on="0"/>
        <pt x="605" y="542" on="0"/>
        <pt x="530" y="633" on="1"/>
        <pt x="504" y="612" on="0"/>
        <pt x="477" y="561" on="0"/>
      </contour>
    </TTGlyph>
    <TTGlyph name="aring" xMin="131" yMin="-38" xMax="1771" yMax="1738">
      <contour>
        <pt x="915" y="1253" on="1"/>
        <pt x="865" y="1253" on="0"/>
        <pt x="776" y="1291" on="0"/>
        <pt x="710" y="1357" on="0"/>
        <pt x="672" y="1446" on="0"/>
        <pt x="672" y="1496" on="1"/>
        <pt x="672" y="1546" on="0"/>
        <pt x="710" y="1634" on="0"/>
        <pt x="776" y="1700" on="0"/>
        <pt x="865" y="1738" on="0"/>
        <pt x="915" y="1738" on="1"/>
        <pt x="965" y="1738" on="0"/>
        <pt x="1053" y="1700" on="0"/>
        <pt x="1119" y="1634" on="0"/>
        <pt x="1157" y="1546" on="0"/>
        <pt x="1157" y="1496" on="1"/>
        <pt x="1157" y="1446" on="0"/>
        <pt x="1119" y="1357" on="0"/>
        <pt x="1053" y="1291" on="0"/>
        <pt x="965" y="1253" on="0"/>
      </contour>
      <contour>
        <pt x="915" y="1363" on="1"/>
        <pt x="942" y="1363" on="0"/>
        <pt x="991" y="1384" on="0"/>
        <pt x="1027" y="1420" on="0"/>
        <pt x="1048" y="1469" on="0"/>
        <pt x="1048" y="1496" on="1"/>
        <pt x="1048" y="1523" on="0"/>
        <pt x="1027" y="1572" on="0"/>
        <pt x="991" y="1608" on="0"/>
        <pt x="942" y="1629" on="0"/>
        <pt x="915" y="1629" on="1"/>
        <pt x="888" y="1629" on="0"/>
        <pt x="839" y="1608" on="0"/>
        <pt x="803" y="1572" on="0"/>
        <pt x="782" y="1523" on="0"/>
        <pt x="782" y="1496" on="1"/>
        <pt x="782" y="1469" on="0"/>
        <pt x="803" y="1420" on="0"/>
        <pt x="839" y="1384" on="0"/>
        <pt x="888" y="1363" on="0"/>
      </contour>
      <contour>
        <pt x="131" y="262" on="1"/>
        <pt x="131" y="339" on="0"/>
        <pt x="189" y="450" on="0"/>
        <pt x="295" y="527" on="0"/>
        <pt x="443" y="574" on="0"/>
        <pt x="624" y="600" on="0"/>
        <pt x="832" y="609" on="0"/>
        <pt x="944" y="609" on="1"/>
        <pt x="944" y="665" on="1"/>
        <pt x="944" y="793" on="0"/>
        <pt x="909" y="947" on="0"/>
        <pt x="838" y="1029" on="0"/>
        <pt x="734" y="1054" on="0"/>
        <pt x="665" y="1054" on="1"/>
        <pt x="628" y="1054" on="0"/>
        <pt x="545" y="1042" on="0"/>
        <pt x="513" y="1034" on="1"/>
        <pt x="559" y="1029" on="0"/>
        <pt x="637" y="993" on="0"/>
        <pt x="693" y="939" on="0"/>
        <pt x="724" y="873" on="0"/>
        <pt x="724" y="839" on="1"/>
        <pt x="724" y="797" on="0"/>
        <pt x="682" y="723" on="0"/>
        <pt x="608" y="668" on="0"/>
        <pt x="510" y="636" on="0"/>
        <pt x="454" y="636" on="1"/>
        <pt x="398" y="636" on="0"/>
        <pt x="301" y="668" on="0"/>
        <pt x="228" y="723" on="0"/>
        <pt x="186" y="797" on="0"/>
        <pt x="186" y="839" on="1"/>
        <pt x="186" y="895" on="0"/>
        <pt x="247" y="985" on="0"/>
        <pt x="352" y="1054" on="0"/>
        <pt x="495" y="1104" on="0"/>
        <pt x="659" y="1136" on="0"/>
        <pt x="836" y="1151" on="0"/>
        <pt x="924" y="1151" on="1"/>
        <pt x="1080" y="1151" on="0"/>
        <pt x="1311" y="1108" on="0"/>
        <pt x="1464" y="999" on="0"/>
        <pt x="1540" y="810" on="0"/>
        <pt x="1540" y="665" on="1"/>
        <pt x="1540" y="246" on="1"/>
        <pt x="1540" y="171" on="0"/>
        <pt x="1571" y="90" on="0"/>
        <pt x="1613" y="90" on="1"/>
        <pt x="1634" y="90" on="0"/>
        <pt x="1661" y="117" on="0"/>
        <pt x="1676" y="161" on="0"/>
        <pt x="1682" y="219" on="0"/>
        <pt x="1682" y="249" on="1"/>
        <pt x="1682" y="348" on="1"/>
        <pt x="1771" y="348" on="1"/>
        <pt x="1771" y="249" on="1"/>
        <pt x="1771" y="169" on="0"/>
        <pt x="1730" y="59" on="0"/>
        <pt x="1629" y="-9" on="0"/>
        <pt x="1460" y="-38" on="0"/>
        <pt x="1332" y="-38" on="1"/>
        <pt x="1267" y="-38" on="0"/>
        <pt x="1154" y="-24" on="0"/>
        <pt x="1061" y="10" on="0"/>
        <pt x="993" y="66" on="0"/>
        <pt x="973" y="108" on="1"/>
        <pt x="943" y="62" on="0"/>
        <pt x="843" y="5" on="0"/>
        <pt x="727" y="-27" on="0"/>
        <pt x="609" y="-38" on="0"/>
        <pt x="560" y="-38" on="1"/>
        <pt x="443" y="-38" on="0"/>
        <pt x="279" y="11" on="0"/>
        <pt x="177" y="93" on="0"/>
        <pt x="131" y="202" on="0"/>
      </contour>
      <contour>
        <pt x="708" y="273" on="1"/>
        <pt x="708" y="199" on="0"/>
        <pt x="762" y="108" on="0"/>
        <pt x="824" y="108" on="1"/>
        <pt x="876" y="108" on="0"/>
        <pt x="944" y="183" on="0"/>
        <pt x="944" y="246" on="1"/>
        <pt x="944" y="517" on="1"/>
        <pt x="872" y="517" on="0"/>
        <pt x="780" y="491" on="0"/>
        <pt x="727" y="434" on="0"/>
        <pt x="708" y="340" on="0"/>
      </contour>
    </TTGlyph>
    <TTGlyph name="asciicircum" xMin="149" yMin="192" xMax="1217" yMax="1177">
      <contour>
        <pt x="683" y="1177" on="1"/>
        <pt x="1217" y="254" on="1"/>
        <pt x="1110" y="192" on="1"/>
        <pt x="683" y="930" on="1"/>
        <pt x="256" y="192" on="1"/>
        <pt x="149" y="254" on="1"/>
      </contour>
    </TTGlyph>
    <TTGlyph name="asciitilde" xMin="141" yMin="591" xMax="1347" yMax="896">
      <contour>
        <pt x="141" y="699" on="1"/>
        <pt x="172" y="735" on="0"/>
        <pt x="265" y="806" on="0"/>
        <pt x="375" y="862" on="0"/>
        <pt x="493" y="896" on="0"/>
        <pt x="549" y="896" on="1"/>
        <pt x="614" y="896" on="0"/>
        <pt x="719" y="861" on="0"/>
        <pt x="773" y="839" on="1"/>
        <pt x="822" y="819" on="0"/>
        <pt x="929" y="788" on="0"/>
        <pt x="996" y="788" on="1"/>
        <pt x="1073" y="788" on="0"/>
        <pt x="1230" y="819" on="0"/>
        <pt x="1302" y="842" on="1"/>
        <pt x="1347" y="788" on="1"/>
        <pt x="1316" y="752" on="0"/>
        <pt x="1223" y="681" on="0"/>
        <pt x="1113" y="625" on="0"/>
        <pt x="994" y="591" on="0"/>
        <pt x="939" y="591" on="1"/>
        <pt x="873" y="591" on="0"/>
        <pt x="765" y="627" on="0"/>
        <pt x="711" y="650" on="1"/>
        <pt x="663" y="670" on="0"/>
        <pt x="558" y="699" on="0"/>
        <pt x="492" y="699" on="1"/>
        <pt x="415" y="699" on="0"/>
        <pt x="258" y="668" on="0"/>
        <pt x="186" y="645" on="1"/>
      </contour>
    </TTGlyph>
    <TTGlyph name="asterisk" xMin="140" yMin="737" xMax="904" yMax="1583">
      <contour>
        <pt x="522" y="737" on="1"/>
        <pt x="474" y="737" on="0"/>
        <pt x="416" y="796" on="0"/>
        <pt x="416" y="836" on="1"/>
        <pt x="416" y="876" on="0"/>
        <pt x="446" y="970" on="0"/>
        <pt x="466" y="1021" on="1"/>
        <pt x="476" y="1045" on="0"/>
        <pt x="492" y="1094" on="0"/>
        <pt x="498" y="1120" on="1"/>
        <pt x="480" y="1101" on="0"/>
        <pt x="446" y="1064" on="0"/>
        <pt x="430" y="1042" on="1"/>
        <pt x="415" y="1021" on="0"/>
        <pt x="374" y="970" on="0"/>
        <pt x="326" y="924" on="0"/>
        <pt x="273" y="893" on="0"/>
        <pt x="246" y="893" on="1"/>
        <pt x="223" y="893" on="0"/>
        <pt x="185" y="913" on="0"/>
        <pt x="156" y="945" on="0"/>
        <pt x="140" y="985" on="0"/>
        <pt x="140" y="1006" on="1"/>
        <pt x="140" y="1046" on="0"/>
        <pt x="192" y="1095" on="0"/>
        <pt x="266" y="1123" on="0"/>
        <pt x="347" y="1135" on="0"/>
        <pt x="375" y="1138" on="1"/>
        <pt x="400" y="1141" on="0"/>
        <pt x="450" y="1152" on="0"/>
        <pt x="475" y="1160" on="1"/>
        <pt x="428" y="1174" on="0"/>
        <pt x="375" y="1182" on="1"/>
        <pt x="342" y="1186" on="0"/>
        <pt x="260" y="1200" on="0"/>
        <pt x="189" y="1228" on="0"/>
        <pt x="140" y="1276" on="0"/>
        <pt x="140" y="1315" on="1"/>
        <pt x="140" y="1337" on="0"/>
        <pt x="157" y="1377" on="0"/>
        <pt x="187" y="1408" on="0"/>
        <pt x="225" y="1427" on="0"/>
        <pt x="246" y="1427" on="1"/>
        <pt x="270" y="1427" on="0"/>
        <pt x="323" y="1394" on="0"/>
        <pt x="373" y="1347" on="0"/>
        <pt x="416" y="1296" on="0"/>
        <pt x="430" y="1278" on="1"/>
        <pt x="447" y="1257" on="0"/>
        <pt x="480" y="1218" on="0"/>
        <pt x="498" y="1200" on="1"/>
        <pt x="491" y="1225" on="0"/>
        <pt x="476" y="1274" on="0"/>
        <pt x="466" y="1299" on="1"/>
        <pt x="446" y="1350" on="0"/>
        <pt x="416" y="1444" on="0"/>
        <pt x="416" y="1484" on="1"/>
        <pt x="416" y="1524" on="0"/>
        <pt x="474" y="1583" on="0"/>
        <pt x="522" y="1583" on="1"/>
        <pt x="570" y="1583" on="0"/>
        <pt x="628" y="1524" on="0"/>
        <pt x="628" y="1484" on="1"/>
        <pt x="628" y="1443" on="0"/>
        <pt x="596" y="1349" on="0"/>
        <pt x="576" y="1298" on="1"/>
        <pt x="557" y="1251" on="0"/>
        <pt x="545" y="1199" on="1"/>
        <pt x="564" y="1217" on="0"/>
        <pt x="599" y="1255" on="0"/>
        <pt x="615" y="1276" on="1"/>
        <pt x="635" y="1303" on="0"/>
        <pt x="676" y="1357" on="0"/>
        <pt x="721" y="1400" on="0"/>
        <pt x="771" y="1427" on="0"/>
        <pt x="798" y="1427" on="1"/>
        <pt x="820" y="1427" on="0"/>
        <pt x="859" y="1407" on="0"/>
        <pt x="888" y="1375" on="0"/>
        <pt x="904" y="1335" on="0"/>
        <pt x="904" y="1314" on="1"/>
        <pt x="904" y="1276" on="0"/>
        <pt x="851" y="1228" on="0"/>
        <pt x="777" y="1199" on="0"/>
        <pt x="697" y="1185" on="0"/>
        <pt x="670" y="1181" on="1"/>
        <pt x="644" y="1177" on="0"/>
        <pt x="593" y="1167" on="0"/>
        <pt x="568" y="1159" on="1"/>
        <pt x="594" y="1152" on="0"/>
        <pt x="644" y="1143" on="0"/>
        <pt x="670" y="1139" on="1"/>
        <pt x="701" y="1134" on="0"/>
        <pt x="782" y="1119" on="0"/>
        <pt x="854" y="1090" on="0"/>
        <pt x="904" y="1042" on="0"/>
        <pt x="904" y="1005" on="1"/>
        <pt x="904" y="983" on="0"/>
        <pt x="887" y="943" on="0"/>
        <pt x="857" y="912" on="0"/>
        <pt x="819" y="893" on="0"/>
        <pt x="798" y="893" on="1"/>
        <pt x="770" y="893" on="0"/>
        <pt x="715" y="926" on="0"/>
        <pt x="667" y="974" on="0"/>
        <pt x="628" y="1026" on="0"/>
        <pt x="615" y="1044" on="1"/>
        <pt x="600" y="1065" on="0"/>
        <pt x="564" y="1103" on="0"/>
        <pt x="546" y="1120" on="1"/>
        <pt x="557" y="1068" on="0"/>
        <pt x="576" y="1022" on="1"/>
        <pt x="596" y="971" on="0"/>
        <pt x="628" y="877" on="0"/>
        <pt x="628" y="836" on="1"/>
        <pt x="628" y="796" on="0"/>
        <pt x="570" y="737" on="0"/>
      </contour>
    </TTGlyph>
    <TTGlyph name="at" xMin="191" yMin="-461" xMax="2288" yMax="1559">
      <contour>
        <pt x="191" y="475" on="1"/>
        <pt x="191" y="606" on="0"/>
        <pt x="254" y="869" on="0"/>
        <pt x="381" y="1110" on="0"/>
        <pt x="574" y="1318" on="0"/>
        <pt x="832" y="1471" on="0"/>
        <pt x="1156" y="1559" on="0"/>
        <pt x="1352" y="1559" on="1"/>
        <pt x="1454" y="1559" on="0"/>
        <pt x="1673" y="1518" on="0"/>
        <pt x="1881" y="1430" on="0"/>
        <pt x="2067" y="1294" on="0"/>
        <pt x="2206" y="1102" on="0"/>
        <pt x="2288" y="854" on="0"/>
        <pt x="2288" y="699" on="1"/>
        <pt x="2288" y="602" on="0"/>
        <pt x="2245" y="417" on="0"/>
        <pt x="2166" y="253" on="0"/>
        <pt x="2053" y="116" on="0"/>
        <pt x="1913" y="17" on="0"/>
        <pt x="1750" y="-38" on="0"/>
        <pt x="1660" y="-38" on="1"/>
        <pt x="1578" y="-38" on="0"/>
        <pt x="1461" y="5" on="0"/>
        <pt x="1386" y="74" on="0"/>
        <pt x="1350" y="160" on="0"/>
        <pt x="1349" y="202" on="1"/>
        <pt x="1326" y="150" on="0"/>
        <pt x="1260" y="62" on="0"/>
        <pt x="1164" y="-2" on="0"/>
        <pt x="1032" y="-38" on="0"/>
        <pt x="943" y="-38" on="1"/>
        <pt x="841" y="-38" on="0"/>
        <pt x="676" y="29" on="0"/>
        <pt x="559" y="153" on="0"/>
        <pt x="496" y="327" on="0"/>
        <pt x="496" y="435" on="1"/>
        <pt x="496" y="620" on="0"/>
        <pt x="597" y="890" on="0"/>
        <pt x="769" y="1066" on="0"/>
        <pt x="999" y="1151" on="0"/>
        <pt x="1127" y="1151" on="1"/>
        <pt x="1220" y="1151" on="0"/>
        <pt x="1350" y="1103" on="0"/>
        <pt x="1434" y="1019" on="0"/>
        <pt x="1477" y="905" on="0"/>
        <pt x="1483" y="838" on="1"/>
        <pt x="1529" y="1045" on="1"/>
        <pt x="1968" y="1045" on="1"/>
        <pt x="1947" y="995" on="0"/>
        <pt x="1905" y="855" on="0"/>
        <pt x="1866" y="696" on="0"/>
        <pt x="1832" y="526" on="0"/>
        <pt x="1807" y="368" on="0"/>
        <pt x="1793" y="230" on="0"/>
        <pt x="1793" y="182" on="1"/>
        <pt x="1793" y="142" on="0"/>
        <pt x="1831" y="110" on="0"/>
        <pt x="1857" y="110" on="1"/>
        <pt x="1909" y="110" on="0"/>
        <pt x="2018" y="206" on="0"/>
        <pt x="2108" y="363" on="0"/>
        <pt x="2165" y="562" on="0"/>
        <pt x="2165" y="666" on="1"/>
        <pt x="2165" y="813" on="0"/>
        <pt x="2048" y="1064" on="0"/>
        <pt x="1821" y="1248" on="0"/>
        <pt x="1489" y="1352" on="0"/>
        <pt x="1275" y="1352" on="1"/>
        <pt x="1137" y="1352" on="0"/>
        <pt x="885" y="1297" on="0"/>
        <pt x="666" y="1192" on="0"/>
        <pt x="488" y="1041" on="0"/>
        <pt x="362" y="847" on="0"/>
        <pt x="293" y="615" on="0"/>
        <pt x="293" y="482" on="1"/>
        <pt x="293" y="284" on="0"/>
        <pt x="433" y="4" on="0"/>
        <pt x="683" y="-173" on="0"/>
        <pt x="1027" y="-255" on="0"/>
        <pt x="1231" y="-255" on="1"/>
        <pt x="1411" y="-255" on="0"/>
        <pt x="1694" y="-206" on="0"/>
        <pt x="1921" y="-128" on="0"/>
        <pt x="2101" y="-28" on="0"/>
        <pt x="2178" y="23" on="1"/>
        <pt x="2227" y="-39" on="1"/>
        <pt x="2189" y="-76" on="0"/>
        <pt x="2084" y="-168" on="0"/>
        <pt x="1948" y="-262" on="0"/>
        <pt x="1782" y="-351" on="0"/>
        <pt x="1584" y="-419" on="0"/>
        <pt x="1354" y="-461" on="0"/>
        <pt x="1222" y="-461" on="1"/>
        <pt x="1097" y="-461" on="0"/>
        <pt x="848" y="-414" on="0"/>
        <pt x="619" y="-316" on="0"/>
        <pt x="421" y="-165" on="0"/>
        <pt x="275" y="43" on="0"/>
        <pt x="191" y="310" on="0"/>
      </contour>
      <contour>
        <pt x="1028" y="368" on="1"/>
        <pt x="1028" y="287" on="0"/>
        <pt x="1048" y="184" on="0"/>
        <pt x="1081" y="124" on="0"/>
        <pt x="1125" y="101" on="0"/>
        <pt x="1150" y="101" on="1"/>
        <pt x="1195" y="101" on="0"/>
        <pt x="1289" y="194" on="0"/>
        <pt x="1367" y="364" on="0"/>
        <pt x="1416" y="602" on="0"/>
        <pt x="1416" y="746" on="1"/>
        <pt x="1416" y="807" on="0"/>
        <pt x="1405" y="909" on="0"/>
        <pt x="1379" y="981" on="0"/>
        <pt x="1337" y="1021" on="0"/>
        <pt x="1307" y="1021" on="1"/>
        <pt x="1255" y="1021" on="0"/>
        <pt x="1155" y="928" on="0"/>
        <pt x="1076" y="758" on="0"/>
        <pt x="1028" y="516" on="0"/>
      </contour>
    </TTGlyph>
    <TTGlyph name="atilde" xMin="131" yMin="-38" xMax="1771" yMax="1663">
      <contour>
        <pt x="415" y="1369" on="1"/>
        <pt x="421" y="1434" on="0"/>
        <pt x="466" y="1542" on="0"/>
        <pt x="539" y="1620" on="0"/>
        <pt x="641" y="1663" on="0"/>
        <pt x="704" y="1663" on="1"/>
        <pt x="762" y="1663" on="0"/>
        <pt x="887" y="1624" on="0"/>
        <pt x="952" y="1600" on="1"/>
        <pt x="1016" y="1577" on="0"/>
        <pt x="1143" y="1538" on="0"/>
        <pt x="1204" y="1538" on="1"/>
        <pt x="1260" y="1538" on="0"/>
        <pt x="1364" y="1582" on="0"/>
        <pt x="1412" y="1639" on="1"/>
        <pt x="1467" y="1604" on="1"/>
        <pt x="1461" y="1539" on="0"/>
        <pt x="1416" y="1431" on="0"/>
        <pt x="1343" y="1353" on="0"/>
        <pt x="1241" y="1310" on="0"/>
        <pt x="1178" y="1310" on="1"/>
        <pt x="1124" y="1310" on="0"/>
        <pt x="1006" y="1344" on="0"/>
        <pt x="946" y="1367" on="1"/>
        <pt x="878" y="1393" on="0"/>
        <pt x="743" y="1435" on="0"/>
        <pt x="678" y="1435" on="1"/>
        <pt x="621" y="1435" on="0"/>
        <pt x="517" y="1391" on="0"/>
        <pt x="470" y="1334" on="1"/>
      </contour>
      <contour>
        <pt x="131" y="262" on="1"/>
        <pt x="131" y="339" on="0"/>
        <pt x="189" y="450" on="0"/>
        <pt x="295" y="527" on="0"/>
        <pt x="443" y="574" on="0"/>
        <pt x="624" y="600" on="0"/>
        <pt x="832" y="609" on="0"/>
        <pt x="944" y="609" on="1"/>
        <pt x="944" y="665" on="1"/>
        <pt x="944" y="793" on="0"/>
        <pt x="909" y="947" on="0"/>
        <pt x="838" y="1029" on="0"/>
        <pt x="734" y="1054" on="0"/>
        <pt x="665" y="1054" on="1"/>
        <pt x="628" y="1054" on="0"/>
        <pt x="545" y="1042" on="0"/>
        <pt x="513" y="1034" on="1"/>
        <pt x="559" y="1029" on="0"/>
        <pt x="637" y="993" on="0"/>
        <pt x="693" y="939" on="0"/>
        <pt x="724" y="873" on="0"/>
        <pt x="724" y="839" on="1"/>
        <pt x="724" y="797" on="0"/>
        <pt x="682" y="723" on="0"/>
        <pt x="608" y="668" on="0"/>
        <pt x="510" y="636" on="0"/>
        <pt x="454" y="636" on="1"/>
        <pt x="398" y="636" on="0"/>
        <pt x="301" y="668" on="0"/>
        <pt x="228" y="723" on="0"/>
        <pt x="186" y="797" on="0"/>
        <pt x="186" y="839" on="1"/>
        <pt x="186" y="895" on="0"/>
        <pt x="247" y="985" on="0"/>
        <pt x="352" y="1054" on="0"/>
        <pt x="495" y="1104" on="0"/>
        <pt x="659" y="1136" on="0"/>
        <pt x="836" y="1151" on="0"/>
        <pt x="924" y="1151" on="1"/>
        <pt x="1080" y="1151" on="0"/>
        <pt x="1311" y="1108" on="0"/>
        <pt x="1464" y="999" on="0"/>
        <pt x="1540" y="810" on="0"/>
        <pt x="1540" y="665" on="1"/>
        <pt x="1540" y="246" on="1"/>
        <pt x="1540" y="171" on="0"/>
        <pt x="1571" y="90" on="0"/>
        <pt x="1613" y="90" on="1"/>
        <pt x="1634" y="90" on="0"/>
        <pt x="1661" y="117" on="0"/>
        <pt x="1676" y="161" on="0"/>
        <pt x="1682" y="219" on="0"/>
        <pt x="1682" y="249" on="1"/>
        <pt x="1682" y="348" on="1"/>
        <pt x="1771" y="348" on="1"/>
        <pt x="1771" y="249" on="1"/>
        <pt x="1771" y="169" on="0"/>
        <pt x="1730" y="59" on="0"/>
        <pt x="1629" y="-9" on="0"/>
        <pt x="1460" y="-38" on="0"/>
        <pt x="1332" y="-38" on="1"/>
        <pt x="1267" y="-38" on="0"/>
        <pt x="1154" y="-24" on="0"/>
        <pt x="1061" y="10" on="0"/>
        <pt x="993" y="66" on="0"/>
        <pt x="973" y="108" on="1"/>
        <pt x="943" y="62" on="0"/>
        <pt x="843" y="5" on="0"/>
        <pt x="727" y="-27" on="0"/>
        <pt x="609" y="-38" on="0"/>
        <pt x="560" y="-38" on="1"/>
        <pt x="443" y="-38" on="0"/>
        <pt x="279" y="11" on="0"/>
        <pt x="177" y="93" on="0"/>
        <pt x="131" y="202" on="0"/>
      </contour>
      <contour>
        <pt x="708" y="273" on="1"/>
        <pt x="708" y="199" on="0"/>
        <pt x="762" y="108" on="0"/>
        <pt x="824" y="108" on="1"/>
        <pt x="876" y="108" on="0"/>
        <pt x="944" y="183" on="0"/>
        <pt x="944" y="246" on="1"/>
        <pt x="944" y="517" on="1"/>
        <pt x="872" y="517" on="0"/>
        <pt x="780" y="491" on="0"/>
        <pt x="727" y="434" on="0"/>
        <pt x="708" y="340" on="0"/>
      </contour>
    </TTGlyph>
    <TTGlyph name="b" xMin="51" yMin="-38" xMax="1767" yMax="1512">
      <contour>
        <pt x="227" y="1440" on="1"/>
        <pt x="51" y="1440" on="1"/>
        <pt x="51" y="1512" on="1"/>
        <pt x="822" y="1512" on="1"/>
        <pt x="822" y="1054" on="1"/>
        <pt x="873" y="1096" on="0"/>
        <pt x="1024" y="1151" on="0"/>
        <pt x="1135" y="1151" on="1"/>
        <pt x="1296" y="1151" on="0"/>
        <pt x="1534" y="1054" on="0"/>
        <pt x="1690" y="891" on="0"/>
        <pt x="1767" y="675" on="0"/>
        <pt x="1767" y="556" on="1"/>
        <pt x="1767" y="434" on="0"/>
        <pt x="1684" y="218" on="0"/>
        <pt x="1515" y="56" on="0"/>
        <pt x="1259" y="-38" on="0"/>
        <pt x="1085" y="-38" on="1"/>
        <pt x="977" y="-38" on="0"/>
        <pt x="810" y="-2" on="0"/>
        <pt x="681" y="56" on="0"/>
        <pt x="587" y="129" on="0"/>
        <pt x="554" y="165" on="1"/>
        <pt x="227" y="-38" on="1"/>
      </contour>
      <contour>
        <pt x="812" y="363" on="1"/>
        <pt x="812" y="285" on="0"/>
        <pt x="838" y="171" on="0"/>
        <pt x="883" y="95" on="0"/>
        <pt x="946" y="58" on="0"/>
        <pt x="984" y="58" on="1"/>
        <pt x="1032" y="58" on="0"/>
        <pt x="1096" y="112" on="0"/>
        <pt x="1136" y="230" on="0"/>
        <pt x="1153" y="420" on="0"/>
        <pt x="1153" y="556" on="1"/>
        <pt x="1153" y="691" on="0"/>
        <pt x="1136" y="876" on="0"/>
        <pt x="1098" y="992" on="0"/>
        <pt x="1039" y="1043" on="0"/>
        <pt x="996" y="1043" on="1"/>
        <pt x="950" y="1043" on="0"/>
        <pt x="881" y="996" on="0"/>
        <pt x="835" y="924" on="0"/>
        <pt x="812" y="838" on="0"/>
        <pt x="812" y="799" on="1"/>
      </contour>
    </TTGlyph>
    <TTGlyph name="backslash" xMin="-51" yMin="-484" xMax="998" yMax="1535">
      <contour>
        <pt x="-51" y="1485" on="1"/>
        <pt x="49" y="1535" on="1"/>
        <pt x="998" y="-433" on="1"/>
        <pt x="896" y="-484" on="1"/>
      </contour>
    </TTGlyph>
    <TTGlyph name="bar" xMin="212" yMin="-590" xMax="315" yMax="1824">
      <contour>
        <pt x="212" y="1824" on="1"/>
        <pt x="315" y="1824" on="1"/>
        <pt x="315" y="-590" on="1"/>
        <pt x="212" y="-590" on="1"/>
      </contour>
    </TTGlyph>
    <TTGlyph name="braceleft" xMin="140" yMin="-237" xMax="862" yMax="1653">
      <contour>
        <pt x="272" y="86" on="1"/>
        <pt x="272" y="127" on="0"/>
        <pt x="274" y="208" on="0"/>
        <pt x="276" y="260" on="1"/>
        <pt x="279" y="335" on="0"/>
        <pt x="279" y="400" on="1"/>
        <pt x="279" y="455" on="0"/>
        <pt x="268" y="554" on="0"/>
        <pt x="238" y="628" on="0"/>
        <pt x="184" y="671" on="0"/>
        <pt x="140" y="671" on="1"/>
        <pt x="140" y="745" on="1"/>
        <pt x="184" y="745" on="0"/>
        <pt x="238" y="788" on="0"/>
        <pt x="268" y="862" on="0"/>
        <pt x="279" y="961" on="0"/>
        <pt x="279" y="1016" on="1"/>
        <pt x="279" y="1081" on="0"/>
        <pt x="276" y="1156" on="1"/>
        <pt x="274" y="1208" on="0"/>
        <pt x="272" y="1289" on="0"/>
        <pt x="272" y="1330" on="1"/>
        <pt x="272" y="1439" on="0"/>
        <pt x="353" y="1567" on="0"/>
        <pt x="505" y="1633" on="0"/>
        <pt x="724" y="1653" on="0"/>
        <pt x="862" y="1653" on="1"/>
        <pt x="862" y="1584" on="1"/>
        <pt x="806" y="1584" on="0"/>
        <pt x="737" y="1563" on="0"/>
        <pt x="699" y="1510" on="0"/>
        <pt x="686" y="1420" on="0"/>
        <pt x="686" y="1350" on="1"/>
        <pt x="686" y="1304" on="0"/>
        <pt x="688" y="1219" on="0"/>
        <pt x="690" y="1177" on="1"/>
        <pt x="692" y="1124" on="0"/>
        <pt x="694" y="1045" on="0"/>
        <pt x="694" y="1002" on="1"/>
        <pt x="694" y="935" on="0"/>
        <pt x="639" y="834" on="0"/>
        <pt x="551" y="762" on="0"/>
        <pt x="440" y="718" on="0"/>
        <pt x="383" y="708" on="1"/>
        <pt x="440" y="698" on="0"/>
        <pt x="551" y="654" on="0"/>
        <pt x="639" y="582" on="0"/>
        <pt x="694" y="481" on="0"/>
        <pt x="694" y="414" on="1"/>
        <pt x="694" y="371" on="0"/>
        <pt x="692" y="292" on="0"/>
        <pt x="690" y="239" on="1"/>
        <pt x="688" y="197" on="0"/>
        <pt x="686" y="112" on="0"/>
        <pt x="686" y="66" on="1"/>
        <pt x="686" y="-4" on="0"/>
        <pt x="699" y="-94" on="0"/>
        <pt x="737" y="-147" on="0"/>
        <pt x="806" y="-168" on="0"/>
        <pt x="862" y="-168" on="1"/>
        <pt x="862" y="-237" on="1"/>
        <pt x="724" y="-237" on="0"/>
        <pt x="505" y="-217" on="0"/>
        <pt x="353" y="-151" on="0"/>
        <pt x="272" y="-23" on="0"/>
      </contour>
    </TTGlyph>
    <TTGlyph name="braceright" xMin="84" yMin="-237" xMax="806" yMax="1653">
      <contour>
        <pt x="140" y="-168" on="1"/>
        <pt x="209" y="-147" on="0"/>
        <pt x="247" y="-94" on="0"/>
        <pt x="260" y="-4" on="0"/>
        <pt x="260" y="66" on="1"/>
        <pt x="260" y="112" on="0"/>
        <pt x="258" y="197" on="0"/>
        <pt x="256" y="239" on="1"/>
        <pt x="254" y="292" on="0"/>
        <pt x="252" y="371" on="0"/>
        <pt x="252" y="414" on="1"/>
        <pt x="252" y="481" on="0"/>
        <pt x="307" y="582" on="0"/>
        <pt x="395" y="654" on="0"/>
        <pt x="506" y="698" on="0"/>
        <pt x="563" y="708" on="1"/>
        <pt x="506" y="718" on="0"/>
        <pt x="395" y="762" on="0"/>
        <pt x="307" y="834" on="0"/>
        <pt x="252" y="935" on="0"/>
        <pt x="252" y="1002" on="1"/>
        <pt x="252" y="1045" on="0"/>
        <pt x="254" y="1124" on="0"/>
        <pt x="256" y="1177" on="1"/>
        <pt x="258" y="1219" on="0"/>
        <pt x="260" y="1304" on="0"/>
        <pt x="260" y="1350" on="1"/>
        <pt x="260" y="1420" on="0"/>
        <pt x="247" y="1510" on="0"/>
        <pt x="209" y="1563" on="0"/>
        <pt x="140" y="1584" on="0"/>
        <pt x="84" y="1584" on="1"/>
        <pt x="84" y="1653" on="1"/>
        <pt x="222" y="1653" on="0"/>
        <pt x="441" y="1633" on="0"/>
        <pt x="593" y="1567" on="0"/>
        <pt x="674" y="1439" on="0"/>
        <pt x="674" y="1330" on="1"/>
        <pt x="674" y="1289" on="0"/>
        <pt x="672" y="1208" on="0"/>
        <pt x="670" y="1156" on="1"/>
        <pt x="667" y="1081" on="0"/>
        <pt x="667" y="1016" on="1"/>
        <pt x="667" y="961" on="0"/>
        <pt x="678" y="862" on="0"/>
        <pt x="708" y="788" on="0"/>
        <pt x="762" y="745" on="0"/>
        <pt x="806" y="745" on="1"/>
        <pt x="806" y="671" on="1"/>
        <pt x="762" y="671" on="0"/>
        <pt x="708" y="628" on="0"/>
        <pt x="678" y="554" on="0"/>
        <pt x="667" y="455" on="0"/>
        <pt x="667" y="400" on="1"/>
        <pt x="667" y="335" on="0"/>
        <pt x="670" y="260" on="1"/>
        <pt x="672" y="208" on="0"/>
        <pt x="674" y="127" on="0"/>
        <pt x="674" y="86" on="1"/>
        <pt x="674" y="-23" on="0"/>
        <pt x="593" y="-151" on="0"/>
        <pt x="441" y="-217" on="0"/>
        <pt x="222" y="-237" on="0"/>
        <pt x="84" y="-237" on="1"/>
        <pt x="84" y="-168" on="1"/>
      </contour>
    </TTGlyph>
    <TTGlyph name="bracketleft" xMin="283" yMin="-227" xMax="885" yMax="1644">
      <contour>
        <pt x="283" y="1644" on="1"/>
        <pt x="885" y="1644" on="1"/>
        <pt x="885" y="1575" on="1"/>
        <pt x="724" y="1575" on="1"/>
        <pt x="724" y="-158" on="1"/>
        <pt x="885" y="-158" on="1"/>
        <pt x="885" y="-227" on="1"/>
        <pt x="283" y="-227" on="1"/>
      </contour>
    </TTGlyph>
    <TTGlyph name="bracketright" xMin="95" yMin="-227" xMax="697" yMax="1644">
      <contour>
        <pt x="256" y="-158" on="1"/>
        <pt x="256" y="1575" on="1"/>
        <pt x="95" y="1575" on="1"/>
        <pt x="95" y="1644" on="1"/>
        <pt x="697" y="1644" on="1"/>
        <pt x="697" y="-227" on="1"/>
        <pt x="95" y="-227" on="1"/>
        <pt x="95" y="-158" on="1"/>
      </contour>
    </TTGlyph>
    <TTGlyph name="brokenbar" xMin="212" yMin="-590" xMax="315" yMax="1824">
      <contour>
        <pt x="212" y="1824" on="1"/>
        <pt x="315" y="1824" on="1"/>
        <pt x="315" y="710" on="1"/>
        <pt x="212" y="710" on="1"/>
      </contour>
      <contour>
        <pt x="315" y="524" on="1"/>
        <pt x="315" y="-590" on="1"/>
        <pt x="212" y="-590" on="1"/>
        <pt x="212" y="524" on="1"/>
      </contour>
    </TTGlyph>
    <TTGlyph name="bullet" xMin="138" yMin="192" xMax="835" yMax="889">
      <contour>
        <pt x="487" y="192" on="1"/>
        <pt x="415" y="192" on="0"/>
        <pt x="288" y="247" on="0"/>
        <pt x="193" y="342" on="0"/>
        <pt x="138" y="468" on="0"/>
        <pt x="138" y="540" on="1"/>
        <pt x="138" y="613" on="0"/>
        <pt x="193" y="740" on="0"/>
        <pt x="288" y="834" on="0"/>
        <pt x="415" y="889" on="0"/>
        <pt x="487" y="889" on="1"/>
        <pt x="559" y="889" on="0"/>
        <pt x="686" y="834" on="0"/>
        <pt x="780" y="740" on="0"/>
        <pt x="835" y="613" on="0"/>
        <pt x="835" y="540" on="1"/>
        <pt x="835" y="468" on="0"/>
        <pt x="780" y="342" on="0"/>
        <pt x="686" y="247" on="0"/>
        <pt x="559" y="192" on="0"/>
      </contour>
    </TTGlyph>
    <TTGlyph name="c" xMin="89" yMin="-38" xMax="1508" yMax="1151">
      <contour>
        <pt x="89" y="567" on="1"/>
        <pt x="89" y="698" on="0"/>
        <pt x="195" y="914" on="0"/>
        <pt x="382" y="1067" on="0"/>
        <pt x="638" y="1151" on="0"/>
        <pt x="789" y="1151" on="1"/>
        <pt x="979" y="1151" on="0"/>
        <pt x="1251" y="1090" on="0"/>
        <pt x="1426" y="992" on="0"/>
        <pt x="1508" y="870" on="0"/>
        <pt x="1508" y="810" on="1"/>
        <pt x="1508" y="766" on="0"/>
        <pt x="1465" y="688" on="0"/>
        <pt x="1390" y="630" on="0"/>
        <pt x="1290" y="596" on="0"/>
        <pt x="1232" y="596" on="1"/>
        <pt x="1174" y="596" on="0"/>
        <pt x="1072" y="629" on="0"/>
        <pt x="997" y="686" on="0"/>
        <pt x="953" y="762" on="0"/>
        <pt x="953" y="806" on="1"/>
        <pt x="953" y="847" on="0"/>
        <pt x="992" y="920" on="0"/>
        <pt x="1061" y="976" on="0"/>
        <pt x="1154" y="1012" on="0"/>
        <pt x="1208" y="1015" on="1"/>
        <pt x="1151" y="1036" on="0"/>
        <pt x="1040" y="1059" on="0"/>
        <pt x="993" y="1059" on="1"/>
        <pt x="916" y="1059" on="0"/>
        <pt x="804" y="1018" on="0"/>
        <pt x="731" y="907" on="0"/>
        <pt x="695" y="711" on="0"/>
        <pt x="695" y="556" on="1"/>
        <pt x="695" y="403" on="0"/>
        <pt x="722" y="211" on="0"/>
        <pt x="781" y="102" on="0"/>
        <pt x="874" y="62" on="0"/>
        <pt x="940" y="62" on="1"/>
        <pt x="1024" y="62" on="0"/>
        <pt x="1172" y="104" on="0"/>
        <pt x="1289" y="181" on="0"/>
        <pt x="1367" y="290" on="0"/>
        <pt x="1381" y="358" on="1"/>
        <pt x="1475" y="358" on="1"/>
        <pt x="1465" y="265" on="0"/>
        <pt x="1371" y="118" on="0"/>
        <pt x="1216" y="16" on="0"/>
        <pt x="1007" y="-38" on="0"/>
        <pt x="883" y="-38" on="1"/>
        <pt x="688" y="-38" on="0"/>
        <pt x="391" y="43" on="0"/>
        <pt x="191" y="198" on="0"/>
        <pt x="89" y="423" on="0"/>
      </contour>
    </TTGlyph>
</ttFont>
